SplineFontDB: 3.0
FontName: NovaRoundSlim-Book
FullName: Nova Round Slim Book
FamilyName: Nova Round Slim
Weight: Book
Copyright: Copyright (c) 2020-2024 by Wojciech Kalinowski "wmk69" with Reserved Font Name "NovaRoundSlim-Book".\nThis Font Software is licensed under the SIL Open Font License, Version 1.1.
Version: 3.1.0; 2021-05-23
ItalicAngle: 0
UnderlinePosition: -80
UnderlineWidth: 200
Ascent: 1638
Descent: 410
InvalidEm: 0
LayerCount: 2
Layer: 0 1 "Warstwa t+AUIA-a" 1
Layer: 1 1 "Plan pierwszy" 0
XUID: [1021 783 23647091 8360855]
StyleMap: 0x0040
FSType: 0
OS2Version: 3
OS2_WeightWidthSlopeOnly: 0
OS2_UseTypoMetrics: 1
CreationTime: 1260698820
ModificationTime: 1621762161
PfmFamily: 33
TTFWeight: 400
TTFWidth: 5
LineGap: 200
VLineGap: 0
Panose: 2 12 5 4 4 5 3 6 2 4
OS2TypoAscent: 2000
OS2TypoAOffset: 0
OS2TypoDescent: -500
OS2TypoDOffset: 0
OS2TypoLinegap: 200
OS2WinAscent: 2000
OS2WinAOffset: 0
OS2WinDescent: 500
OS2WinDOffset: 0
HheadAscent: 2000
HheadAOffset: 0
HheadDescent: -500
HheadDOffset: 0
OS2SubXSize: 1434
OS2SubYSize: 1331
OS2SubXOff: 0
OS2SubYOff: 287
OS2SupXSize: 1434
OS2SupYSize: 1331
OS2SupXOff: 0
OS2SupYOff: 977
OS2StrikeYSize: 102
OS2StrikeYPos: 512
OS2CapHeight: 1530
OS2XHeight: 1120
OS2Vendor: '    '
OS2CodePages: 20000093.00000000
OS2UnicodeRanges: 8000002f.4000204b.00000000.00000000
Lookup: 258 0 0 "'kern' Horizontal Kerning lookup 0" { "'kern' Horizontal Kerning lookup 0-1 subtable" [307,0,4] } ['kern' ('DFLT' <'dflt' > 'grek' <'dflt' > 'latn' <'dflt' > ) ]
MarkAttachClasses: 1
DEI: 91125
KernClass2: 65 55 "'kern' Horizontal Kerning lookup 0-1 subtable"
 134 A M N Agrave Aacute Acircumflex Atilde Adieresis Aring Ntilde Amacron Abreve Aogonek Nacute Ncommaaccent Ncaron Eng Aringacute uni1E40
 28 B germandbls uni1E02 uni1E9E
 47 C Ccedilla Cacute Ccircumflex Cdotaccent Ccaron
 122 D O Q Eth Ograve Oacute Ocircumflex Otilde Odieresis Oslash Dcaron Dcroat Omacron Obreve Ohungarumlaut Oslashacute uni1E0A

StartChar: .notdef
Encoding: 65536 -1 0
Width: 994
Flags: W
HStem: 0 68<260 734> 1442 68<260 734>
VStem: 150 110<68 1442> 734 110<68 1442>
LayerCount: 2
Fore
SplineSet
150 0 m 1,0,-1
 150 1510 l 1,1,-1
 844 1510 l 1,2,-1
 844 0 l 1,3,-1
 150 0 l 1,0,-1
260 68 m 1,4,-1
 734 68 l 1,5,-1
 734 1442 l 1,6,-1
 260 1442 l 1,7,-1
 260 68 l 1,4,-1
EndSplineSet
Validated: 1
EndChar

StartChar: exclam
Encoding: 33 33 4
Width: 600
GlyphClass: 2
Flags: W
HStem: -20 245<216.097 383.903> 1510 20G<347.778 400>
VStem: 180 240<17.1285 187.871> 200 200<490 1440>
LayerCount: 2
Fore
SplineSet
300 -20 m 128,-1,1
 250 -20 250 -20 215 16 c 128,-1,2
 180 52 180 52 180 102.5 c 128,-1,3
 180 153 180 153 215 189 c 128,-1,4
 250 225 250 225 300 225 c 128,-1,5
 350 225 350 225 385 189 c 128,-1,6
 420 153 420 153 420 102.5 c 128,-1,7
 420 52 420 52 385 16 c 128,-1,0
 350 -20 350 -20 300 -20 c 128,-1,1
390 1530 m 1,8,-1
 400 1530 l 1,9,-1
 400 490 l 1,10,-1
 210 400 l 1,11,-1
 200 400 l 1,12,-1
 200 1440 l 1,13,-1
 390 1530 l 1,8,-1
EndSplineSet
Validated: 1
EndChar

StartChar: quotedbl
Encoding: 34 34 5
Width: 453
GlyphClass: 2
Flags: W
HStem: 1140 440
VStem: 50 120<1192 1528> 283 120<1192 1528>
LayerCount: 2
Fore
SplineSet
393 1580 m 1,0,-1
 403 1580 l 1,1,-1
 403 1192 l 1,2,-1
 293 1140 l 1,3,-1
 283 1140 l 1,4,-1
 283 1528 l 1,5,-1
 393 1580 l 1,0,-1
160 1580 m 1,6,-1
 170 1580 l 1,7,-1
 170 1192 l 1,8,-1
 60 1140 l 1,9,-1
 50 1140 l 1,10,-1
 50 1528 l 1,11,-1
 160 1580 l 1,6,-1
EndSplineSet
Validated: 1
EndChar

StartChar: numbersign
Encoding: 35 35 6
Width: 1368
GlyphClass: 2
Flags: W
HStem: 520 120<202 448 568 800 920 1166> 872 120<202 448 568 800 920 1166>
VStem: 448 120<274 520 640 872 992 1238> 800 120<274 520 640 872 992 1238>
LayerCount: 2
Fore
SplineSet
558 1290 m 1,0,-1
 568 1290 l 1,1,-1
 568 992 l 1,2,-1
 800 992 l 1,3,-1
 800 1238 l 1,4,-1
 910 1290 l 1,5,-1
 920 1290 l 1,6,-1
 920 992 l 1,7,-1
 1218 992 l 1,8,-1
 1218 982 l 1,9,-1
 1166 872 l 1,10,-1
 920 872 l 1,11,-1
 920 640 l 1,12,-1
 1218 640 l 1,13,-1
 1218 630 l 1,14,-1
 1166 520 l 1,15,-1
 920 520 l 1,16,-1
 920 274 l 1,17,-1
 810 222 l 1,18,-1
 800 222 l 1,19,-1
 800 520 l 1,20,-1
 568 520 l 1,21,-1
 568 274 l 1,22,-1
 458 222 l 1,23,-1
 448 222 l 1,24,-1
 448 520 l 1,25,-1
 150 520 l 1,26,-1
 150 530 l 1,27,-1
 202 640 l 1,28,-1
 448 640 l 1,29,-1
 448 872 l 1,30,-1
 150 872 l 1,31,-1
 150 882 l 1,32,-1
 202 992 l 1,33,-1
 448 992 l 1,34,-1
 448 1238 l 1,35,-1
 558 1290 l 1,0,-1
800 872 m 1,36,-1
 568 872 l 1,37,-1
 568 640 l 1,38,-1
 800 640 l 1,39,-1
 800 872 l 1,36,-1
EndSplineSet
Validated: 1
EndChar

StartChar: dollar
Encoding: 36 36 7
Width: 1140
GlyphClass: 2
Flags: W
VStem: 60 212<242 369.813> 153 205<1012.15 1322.15> 516 100<-78 -15.377 77 782 922 1433 1522.03 1588> 845 215<266.331 639.748>
LayerCount: 2
Fore
SplineSet
616 -78 m 1,0,-1
 526 -120 l 1,1,-1
 516 -120 l 1,2,-1
 516 -19 l 1,3,4
 332 -9 332 -9 196 121 c 0,5,6
 90 222 90 222 60 363 c 1,7,-1
 262 459 l 1,8,-1
 272 459 l 1,9,-1
 272 358 l 2,10,11
 272 230 272 230 350 150 c 0,12,13
 417 81 417 81 516 71 c 1,14,-1
 516 800 l 1,15,16
 410 820 410 820 323 862 c 0,17,18
 153 943 153 943 153 1129 c 0,19,20
 153 1312 153 1312 278 1424 c 0,21,22
 379 1515 379 1515 516 1528 c 1,23,-1
 516 1588 l 1,24,-1
 606 1630 l 1,25,-1
 616 1630 l 1,26,-1
 616 1527 l 1,27,28
 749 1512 749 1512 849 1417 c 0,29,30
 934 1337 934 1337 957 1237 c 1,31,-1
 766 1146 l 1,32,-1
 758 1146 l 1,33,34
 758 1323 758 1323 712 1374 c 0,35,36
 671 1419 671 1419 616 1433 c 1,37,-1
 616 899 l 1,38,39
 813 870 813 870 934 763 c 0,40,41
 1060 652 1060 652 1060 477 c 0,42,43
 1060 264 1060 264 910 122 c 0,44,45
 785 3 785 3 616 -16 c 1,46,-1
 616 -78 l 1,0,-1
516 922 m 1,47,-1
 516 1436 l 1,48,49
 455 1424 455 1424 412 1375 c 0,50,51
 358 1314 358 1314 358 1190 c 0,52,53
 358 982 358 982 516 922 c 1,47,-1
616 782 m 1,54,-1
 616 77 l 1,55,56
 699 95 699 95 761 161 c 0,57,58
 845 250 845 250 845 425 c 0,59,60
 845 588 845 588 779 674 c 0,61,62
 717 755 717 755 616 782 c 1,54,-1
EndSplineSet
Validated: 1
EndChar

StartChar: percent
Encoding: 37 37 8
Width: 1547
GlyphClass: 2
Flags: W
HStem: -20 63<1002.52 1181.48> 533 63<1002.52 1181.48> 914 63<365.516 544.484> 1467 63<365.516 544.484>
VStem: 150 147<1061.16 1382.84> 613 147<1061.16 1382.84> 787 147<127.162 448.838> 1250 147<127.162 448.838>
DStem2: 358 42 495 -20 0.423185 0.906043<1.80173 1641.88>
LayerCount: 2
Fore
SplineSet
485 -20 m 1,0,-1
 358 42 l 1,1,-1
 1052 1530 l 1,2,-1
 1062 1530 l 1,3,-1
 1190 1468 l 1,4,-1
 495 -20 l 1,5,-1
 485 -20 l 1,0,-1
1092 43 m 128,-1,7
 1160 43 1160 43 1205 97 c 128,-1,8
 1250 151 1250 151 1250 288 c 152,-1,9
 1250 425 1250 425 1205 479 c 128,-1,10
 1160 533 1160 533 1092 533 c 128,-1,11
 1024 533 1024 533 979 479 c 128,-1,12
 934 425 934 425 934 288 c 152,-1,13
 934 151 934 151 979 97 c 128,-1,6
 1024 43 1024 43 1092 43 c 128,-1,7
1092 -20 m 128,-1,15
 965 -20 965 -20 876 70.5 c 128,-1,16
 787 161 787 161 787 288 c 152,-1,17
 787 415 787 415 876 505.5 c 128,-1,18
 965 596 965 596 1092 596 c 128,-1,19
 1219 596 1219 596 1308 505.5 c 128,-1,20
 1397 415 1397 415 1397 288 c 152,-1,21
 1397 161 1397 161 1308 70.5 c 128,-1,14
 1219 -20 1219 -20 1092 -20 c 128,-1,15
455 1467 m 128,-1,23
 387 1467 387 1467 342 1413 c 128,-1,24
 297 1359 297 1359 297 1222 c 152,-1,25
 297 1085 297 1085 342 1031 c 128,-1,26
 387 977 387 977 455 977 c 128,-1,27
 523 977 523 977 568 1031 c 128,-1,28
 613 1085 613 1085 613 1222 c 152,-1,29
 613 1359 613 1359 568 1413 c 128,-1,22
 523 1467 523 1467 455 1467 c 128,-1,23
455 1530 m 128,-1,31
 582 1530 582 1530 671 1439.5 c 128,-1,32
 760 1349 760 1349 760 1222 c 152,-1,33
 760 1095 760 1095 671 1004.5 c 128,-1,34
 582 914 582 914 455 914 c 128,-1,35
 328 914 328 914 239 1004.5 c 128,-1,36
 150 1095 150 1095 150 1222 c 152,-1,37
 150 1349 150 1349 239 1439.5 c 128,-1,30
 328 1530 328 1530 455 1530 c 128,-1,31
EndSplineSet
Validated: 1
EndChar

StartChar: ampersand
Encoding: 38 38 9
Width: 1624
GlyphClass: 2
Flags: W
HStem: -20 90<509.396 912.531> 1440 90<516.837 785.436>
VStem: 150 202<250.974 621.052> 241 186<971.346 1321.55> 1247 205<596.75 827>
DStem2: 804 882 626 790 0.632261 -0.774756<0 604.109 775.749 1008.01>
LayerCount: 2
Fore
SplineSet
658 -20 m 0,0,1
 448 -20 448 -20 299 115 c 128,-1,2
 150 250 150 250 150 453 c 0,3,4
 150 675 150 675 297 793 c 0,5,6
 343 830 343 830 395 852 c 1,7,8
 241 954 241 954 241 1139 c 0,9,10
 241 1305 241 1305 361 1417.5 c 128,-1,11
 481 1530 481 1530 653 1530 c 0,12,13
 827 1530 827 1530 948 1418 c 0,14,15
 1036 1336 1036 1336 1060 1225 c 1,16,-1
 877 1138 l 1,17,-1
 867 1138 l 1,18,19
 867 1305 867 1305 808.5 1372.5 c 128,-1,20
 750 1440 750 1440 654 1440 c 0,21,22
 559 1440 559 1440 493 1376 c 128,-1,23
 427 1312 427 1312 427 1160.5 c 128,-1,24
 427 1009 427 1009 493 945.5 c 128,-1,25
 559 882 559 882 654 882 c 2,26,-1
 804 882 l 1,27,-1
 1186 414 l 1,28,29
 1247 573 1247 573 1247 827 c 1,30,-1
 1442 919 l 1,31,-1
 1452 919 l 1,32,33
 1452 569 1452 569 1272 308 c 1,34,-1
 1474 61 l 1,35,-1
 1303 -20 l 1,36,-1
 1293 -20 l 1,37,-1
 1145 159 l 1,38,39
 949 -20 949 -20 658 -20 c 0,0,1
626 790 m 1,40,41
 517 778 517 778 440 688 c 0,42,43
 352 584 352 584 352 412.5 c 128,-1,44
 352 241 352 241 450 155.5 c 128,-1,45
 548 70 548 70 704 70 c 0,46,47
 926 70 926 70 1081 238 c 1,48,-1
 626 790 l 1,40,41
EndSplineSet
Validated: 1
EndChar

StartChar: quotesingle
Encoding: 39 39 10
Width: 220
GlyphClass: 2
Flags: W
HStem: 1140 440
VStem: 50 120<1192 1528>
LayerCount: 2
Fore
SplineSet
160 1580 m 1,0,-1
 170 1580 l 1,1,-1
 170 1192 l 1,2,-1
 60 1140 l 1,3,-1
 50 1140 l 1,4,-1
 50 1528 l 1,5,-1
 160 1580 l 1,0,-1
EndSplineSet
Validated: 1
EndChar

StartChar: parenleft
Encoding: 40 40 11
Width: 756
GlyphClass: 2
Flags: W
HStem: -240 90<539.847 706> 1660 90<540.353 706>
VStem: 200 200<43.3591 1466.64>
LayerCount: 2
Fore
SplineSet
706 -240 m 1,0,1
 496 -240 496 -240 348 -99 c 128,-1,2
 200 42 200 42 200 254 c 2,3,-1
 200 1256 l 2,4,5
 200 1468 200 1468 348 1609 c 128,-1,6
 496 1750 496 1750 706 1750 c 1,7,-1
 706 1660 l 1,8,9
 580 1660 580 1660 490 1579.5 c 128,-1,10
 400 1499 400 1499 400 1372 c 18,11,-1
 400 138 l 10,12,13
 400 11 400 11 490 -70 c 0,14,15
 580 -150 580 -150 706 -150 c 1,16,-1
 706 -240 l 1,0,1
EndSplineSet
Validated: 1
EndChar

StartChar: parenright
Encoding: 41 41 12
Width: 756
GlyphClass: 2
Flags: W
HStem: -240 90<50 216.153> 1660 90<50 215.647>
VStem: 356 200<43.3591 1466.64>
LayerCount: 2
Fore
SplineSet
50 -240 m 1,0,1
 50 -150 l 5,2,3
 176 -150 176 -150 266 -70 c 4,4,5
 356 11 356 11 356 138 c 22,6,-1
 356 1372 l 10,7,8
 356 1499 356 1499 266 1579.5 c 128,-1,9
 176 1660 176 1660 50 1660 c 1,10,-1
 50 1750 l 1,11,12
 260 1750 260 1750 408 1609 c 128,-1,13
 556 1468 556 1468 556 1256 c 2,14,-1
 556 254 l 2,15,16
 556 42 556 42 408 -99 c 128,-1,17
 260 -240 260 -240 50 -240 c 1,0,1
EndSplineSet
Validated: 1
EndChar

StartChar: asterisk
Encoding: 42 42 13
Width: 748
GlyphClass: 2
Flags: W
HStem: 900 680
VStem: 314 120<952 1136 1344 1528>
DStem2: 155 1436 50 1358 0.865681 -0.500596<0 183.698 391.704 575.402> 50 1122 155 1044 0.865681 0.500596<51.85 235.548 443.554 627.252>
LayerCount: 2
Fore
SplineSet
424 1580 m 1,0,-1
 434 1580 l 1,1,-1
 434 1344 l 1,2,-1
 593 1436 l 1,3,-1
 693 1367 l 1,4,-1
 698 1358 l 1,5,-1
 494 1240 l 1,6,-1
 698 1122 l 1,7,-1
 693 1113 l 1,8,-1
 593 1044 l 1,9,-1
 434 1136 l 1,10,-1
 434 952 l 1,11,-1
 324 900 l 1,12,-1
 314 900 l 1,13,-1
 314 1136 l 1,14,-1
 155 1044 l 1,15,-1
 55 1113 l 1,16,-1
 50 1122 l 1,17,-1
 254 1240 l 1,18,-1
 50 1358 l 1,19,-1
 55 1367 l 1,20,-1
 155 1436 l 1,21,-1
 314 1344 l 1,22,-1
 314 1528 l 1,23,-1
 424 1580 l 1,0,-1
EndSplineSet
Validated: 1
EndChar

StartChar: plus
Encoding: 43 43 14
Width: 1200
GlyphClass: 2
Flags: W
HStem: 680 150<216 525 675 984>
VStem: 525 150<371 680 830 1139>
LayerCount: 2
Fore
SplineSet
525 1139 m 1,0,-1
 665 1205 l 1,1,-1
 675 1205 l 1,2,-1
 675 830 l 1,3,-1
 1050 830 l 1,4,-1
 1050 820 l 1,5,-1
 984 680 l 1,6,-1
 675 680 l 1,7,-1
 675 371 l 1,8,-1
 535 305 l 1,9,-1
 525 305 l 1,10,-1
 525 680 l 1,11,-1
 150 680 l 1,12,-1
 150 690 l 1,13,-1
 216 830 l 1,14,-1
 525 830 l 1,15,-1
 525 1139 l 1,0,-1
EndSplineSet
Validated: 1
EndChar

StartChar: comma
Encoding: 44 44 15
Width: 389
GlyphClass: 2
Flags: W
HStem: -276 554
VStem: 184 155<-122.682 121.561>
LayerCount: 2
Fore
SplineSet
220 278 m 1,0,-1
 230 278 l 1,1,2
 339 171 339 171 339 34 c 0,3,4
 339 -163 339 -163 114 -276 c 1,5,-1
 107 -269 l 1,6,7
 184 -139 184 -139 184 -10 c 128,-1,8
 184 119 184 119 50 198 c 1,9,-1
 220 278 l 1,0,-1
EndSplineSet
Validated: 1
EndChar

StartChar: hyphen
Encoding: 45 45 16
Width: 1200
GlyphClass: 2
Flags: W
HStem: 680 150<216 984>
LayerCount: 2
Fore
SplineSet
216 830 m 5,0,-1
 1050 830 l 5,1,-1
 1050 820 l 5,2,-1
 984 680 l 5,3,-1
 150 680 l 5,4,-1
 150 690 l 5,5,-1
 216 830 l 5,0,-1
EndSplineSet
Validated: 1
EndChar

StartChar: period
Encoding: 46 46 17
Width: 340
GlyphClass: 2
Flags: W
HStem: -20 245<86.0974 253.903>
VStem: 50 240<17.1285 187.871>
LayerCount: 2
Fore
SplineSet
170 -20 m 128,-1,1
 120 -20 120 -20 85 16 c 128,-1,2
 50 52 50 52 50 102.5 c 128,-1,3
 50 153 50 153 85 189 c 128,-1,4
 120 225 120 225 170 225 c 128,-1,5
 220 225 220 225 255 189 c 128,-1,6
 290 153 290 153 290 102.5 c 128,-1,7
 290 52 290 52 255 16 c 128,-1,0
 220 -20 220 -20 170 -20 c 128,-1,1
EndSplineSet
Validated: 1
EndChar

StartChar: slash
Encoding: 47 47 18
Width: 1019
GlyphClass: 2
Flags: W
DStem2: 10 -138 147 -200 0.422724 0.906258<1.72523 2038.73>
LayerCount: 2
Fore
SplineSet
137 -200 m 1,0,-1
 10 -138 l 1,1,-1
 871 1710 l 1,2,-1
 881 1710 l 1,3,-1
 1009 1648 l 1,4,-1
 147 -200 l 1,5,-1
 137 -200 l 1,0,-1
EndSplineSet
Validated: 1
EndChar

StartChar: zero
Encoding: 48 48 19
Width: 1330
GlyphClass: 2
Flags: W
HStem: -20 90<503.61 827.214> 1440 90<503.61 827.214>
VStem: 160 210<263.359 1246.64> 960 210<263.359 1246.64>
LayerCount: 2
Fore
SplineSet
665.5 70 m 128,-1,1
 792 70 792 70 876 150.5 c 128,-1,2
 960 231 960 231 960 358 c 18,3,-1
 960 1152 l 10,4,5
 960 1279 960 1279 876 1359.5 c 128,-1,6
 792 1440 792 1440 665.5 1440 c 128,-1,7
 539 1440 539 1440 454.5 1359.5 c 128,-1,8
 370 1279 370 1279 370 1152 c 18,9,-1
 370 358 l 10,10,11
 370 231 370 231 454.5 150.5 c 128,-1,0
 539 70 539 70 665.5 70 c 128,-1,1
665.5 -20 m 128,-1,13
 455 -20 455 -20 307.5 121 c 128,-1,14
 160 262 160 262 160 474 c 2,15,-1
 160 1036 l 2,16,17
 160 1248 160 1248 307.5 1389 c 128,-1,18
 455 1530 455 1530 665.5 1530 c 128,-1,19
 876 1530 876 1530 1023 1389 c 128,-1,20
 1170 1248 1170 1248 1170 1036 c 2,21,-1
 1170 474 l 2,22,23
 1170 262 1170 262 1023 121 c 128,-1,12
 876 -20 876 -20 665.5 -20 c 128,-1,13
EndSplineSet
Validated: 1
EndChar

StartChar: one
Encoding: 49 49 20
Width: 714
GlyphClass: 2
Flags: W
HStem: -20 21G<264 316.222> 1510 20G<412.068 464>
VStem: 264 200<70 1342>
DStem2: 20 1323 20 1228 0.902591 0.430499<0 228.412>
LayerCount: 2
Fore
SplineSet
264 -20 m 1,0,-1
 264 1342 l 1,1,-1
 20 1228 l 1,2,-1
 20 1323 l 1,3,-1
 454 1530 l 1,4,-1
 464 1530 l 1,5,-1
 464 70 l 1,6,-1
 274 -20 l 1,7,-1
 264 -20 l 1,0,-1
EndSplineSet
Validated: 1
EndChar

StartChar: two
Encoding: 50 50 21
Width: 1273
GlyphClass: 2
Flags: W
HStem: 0 180<356 1063> 1440 90<466.121 790.99>
VStem: 130 200<895.153 1255.68> 919 220<822.936 1253.24>
DStem2: 200 180 356 180 0.790009 0.613096<123.241 852.906>
LayerCount: 2
Fore
SplineSet
120 0 m 1,0,-1
 120 10 l 1,1,-1
 200 180 l 1,2,-1
 718 582 l 2,3,4
 919 738 919 738 919 1059 c 0,5,6
 919 1249 919 1249 853 1337 c 0,7,8
 776 1440 776 1440 630 1440 c 0,9,10
 483 1440 483 1440 400 1339 c 0,11,12
 330 1254 330 1254 330 1067 c 0,13,14
 330 980 330 980 369 914 c 1,15,-1
 201 833 l 1,16,-1
 191 833 l 1,17,18
 130 941 130 941 130 1070 c 0,19,20
 130 1242 130 1242 265 1385 c 0,21,22
 402 1530 402 1530 635 1530 c 128,-1,23
 868 1530 868 1530 1005 1385 c 0,24,25
 1139 1243 1139 1243 1139 1037 c 0,26,27
 1139 744 1139 744 845 532 c 2,28,-1
 356 180 l 1,29,-1
 1143 180 l 1,30,-1
 1143 170 l 1,31,-1
 1063 0 l 1,32,-1
 120 0 l 1,0,-1
EndSplineSet
Validated: 1
EndChar

StartChar: three
Encoding: 51 51 22
Width: 1223
GlyphClass: 2
Flags: W
HStem: -20 90<448.084 750.142> 1420 90<251 755>
VStem: 100 209<248.904 399.772> 888 215<257.649 682.492>
LayerCount: 2
Fore
SplineSet
599 -20 m 128,-1,1
 366 -20 366 -20 229 125 c 0,2,3
 123 238 123 238 100 393 c 1,4,-1
 299 487 l 1,5,-1
 309 487 l 1,6,7
 309 259 309 259 381 173 c 0,8,9
 468 70 468 70 599 70 c 0,10,11
 731 70 731 70 817 173 c 0,12,13
 888 258 888 258 888 470 c 0,14,15
 888 669 888 669 829 747 c 0,16,17
 751 851 751 851 599 851 c 0,18,19
 533 851 533 851 494 840 c 1,20,-1
 465 876 l 1,21,-1
 755 1420 l 1,22,-1
 213 1420 l 1,23,-1
 213 1430 l 1,24,-1
 251 1510 l 1,25,-1
 1016 1510 l 1,26,-1
 684 929 l 1,27,28
 839 918 839 918 967 805 c 0,29,30
 1103 685 1103 685 1103 472 c 0,31,32
 1103 268 1103 268 969 125 c 0,33,0
 832 -20 832 -20 599 -20 c 128,-1,1
EndSplineSet
Validated: 1
EndChar

StartChar: four
Encoding: 52 52 23
Width: 1232
GlyphClass: 2
Flags: W
HStem: -20 21G<782 834.222> 340 90<179 782 982 1094> 1510 20G<929.778 982>
VStem: 782 200<70 340 430 1281>
DStem2: 10 350 179 430 0.577976 0.816054<162.962 1205.94>
LayerCount: 2
Fore
SplineSet
179 430 m 1,0,-1
 782 430 l 1,1,-1
 782 1281 l 1,2,-1
 179 430 l 1,0,-1
782 -20 m 1,3,-1
 782 340 l 1,4,-1
 10 340 l 1,5,-1
 10 350 l 1,6,-1
 782 1440 l 1,7,-1
 972 1530 l 1,8,-1
 982 1530 l 1,9,-1
 982 430 l 1,10,-1
 1132 430 l 1,11,-1
 1132 420 l 1,12,-1
 1094 340 l 1,13,-1
 982 340 l 1,14,-1
 982 70 l 1,15,-1
 792 -20 l 1,16,-1
 782 -20 l 1,3,-1
EndSplineSet
Validated: 1
EndChar

StartChar: five
Encoding: 53 53 24
Width: 1223
GlyphClass: 2
Flags: W
HStem: -20 90<448.084 749.239> 861 90<411.307 758.422> 1420 90<509 988>
VStem: 100 209<248.904 399.772> 888 215<256.697 683.686>
DStem2: 185 889 374 889 0.231832 0.972756<43.8163 591.647>
LayerCount: 2
Fore
SplineSet
599 -20 m 128,-1,1
 366 -20 366 -20 229 125 c 0,2,3
 122 238 122 238 100 393 c 1,4,-1
 299 487 l 1,5,-1
 309 487 l 1,6,7
 309 259 309 259 381 173 c 0,8,9
 468 70 468 70 599 70 c 0,10,11
 727 70 727 70 817 173 c 0,12,13
 888 254 888 254 888 470 c 0,14,15
 888 687 888 687 819 765 c 0,16,17
 733 861 733 861 599 861 c 0,18,19
 479 861 479 861 375 797 c 1,20,-1
 185 889 l 1,21,-1
 333 1510 l 1,22,-1
 1026 1510 l 1,23,-1
 1026 1500 l 1,24,-1
 988 1420 l 1,25,-1
 509 1420 l 1,26,-1
 374 889 l 1,27,28
 482 951 482 951 599 951 c 0,29,30
 820 951 820 951 961 817 c 0,31,32
 1103 682 1103 682 1103 472 c 0,33,34
 1103 268 1103 268 969 125 c 0,35,0
 832 -20 832 -20 599 -20 c 128,-1,1
EndSplineSet
Validated: 1
EndChar

StartChar: six
Encoding: 54 54 25
Width: 1300
GlyphClass: 2
Flags: W
HStem: -20 90<502.892 808.01> 878 90<505.169 808.116> 1440 90<498.56 830.575>
VStem: 160 200<263.359 720.426 842 1246.64> 953 217<263.633 684.121> 970 189<1140.19 1267.38>
LayerCount: 2
Fore
SplineSet
659 70 m 0,0,1
 774 70 774 70 864 160 c 0,2,3
 953 249 953 249 953 474 c 24,4,5
 953 698 953 698 864 788 c 128,-1,6
 775 878 775 878 659 878 c 0,7,8
 539 878 539 878 450 789 c 0,9,10
 362 701 362 701 362 474 c 128,-1,11
 362 247 362 247 447.5 158.5 c 128,-1,12
 533 70 533 70 659 70 c 0,0,1
664.5 -20 m 128,-1,14
 454 -20 454 -20 307 121 c 128,-1,15
 160 262 160 262 160 474 c 18,16,-1
 160 1036 l 2,17,18
 160 1248 160 1248 307 1389 c 128,-1,19
 454 1530 454 1530 664.5 1530 c 128,-1,20
 875 1530 875 1530 1022 1389 c 0,21,22
 1129 1287 1129 1287 1159 1147 c 1,23,-1
 980 1062 l 1,24,-1
 970 1062 l 1,25,-1
 970 1152 l 10,26,27
 970 1279 970 1279 880.5 1359.5 c 128,-1,28
 791 1440 791 1440 664.5 1440 c 128,-1,29
 538 1440 538 1440 449 1359.5 c 128,-1,30
 360 1279 360 1279 360 1152 c 2,31,-1
 360 842 l 1,32,33
 488 968 488 968 664 968 c 0,34,35
 875 968 875 968 1022.5 827 c 128,-1,36
 1170 686 1170 686 1170 474 c 152,-1,37
 1170 262 1170 262 1022.5 121 c 128,-1,13
 875 -20 875 -20 664.5 -20 c 128,-1,14
EndSplineSet
Validated: 1
EndChar

StartChar: seven
Encoding: 55 55 26
Width: 967
GlyphClass: 2
Flags: W
HStem: -20 21G<162 214.167> 1420 90<48 720>
DStem2: 162 -20 425 100 0.361321 0.932441<206.92 1544.33>
LayerCount: 2
Fore
SplineSet
162 -20 m 1,0,-1
 720 1420 l 1,1,-1
 10 1420 l 1,2,-1
 10 1430 l 1,3,-1
 48 1510 l 1,4,-1
 957 1510 l 1,5,-1
 957 1500 l 1,6,-1
 425 100 l 1,7,-1
 172 -20 l 1,8,-1
 162 -20 l 1,0,-1
EndSplineSet
Validated: 1
EndChar

StartChar: eight
Encoding: 56 56 27
Width: 1210
GlyphClass: 2
Flags: W
HStem: -20 100<445.181 761.127> 795 84<470.358 737.889> 1450 80<474.911 735.659>
VStem: 100 212<251.472 655.62> 191 186<969.96 1321.55> 832 187<969.4 1321.96> 898 212<252.569 657.048>
LayerCount: 2
Fore
SplineSet
604 1450 m 0,0,1
 509 1450 509 1450 443 1386 c 128,-1,2
 377 1322 377 1322 377 1164 c 152,-1,3
 377 1006 377 1006 443 942.5 c 128,-1,4
 509 879 509 879 604 879 c 0,5,6
 702 879 702 879 765 942 c 0,7,8
 832 1008 832 1008 832 1165 c 152,-1,9
 832 1322 832 1322 766 1386 c 128,-1,10
 700 1450 700 1450 604 1450 c 0,0,1
605 795 m 0,11,12
 479 795 479 795 395.5 709.5 c 128,-1,13
 312 624 312 624 312 437.5 c 152,-1,14
 312 251 312 251 395.5 165.5 c 128,-1,15
 479 80 479 80 603 80 c 128,-1,16
 727 80 727 80 815 165 c 0,17,18
 898 246 898 246 898 437.5 c 152,-1,19
 898 629 898 629 815 710 c 0,20,21
 727 795 727 795 605 795 c 0,11,12
605 -20 m 128,-1,23
 395 -20 395 -20 247.5 115 c 128,-1,24
 100 250 100 250 100 453 c 0,25,26
 100 675 100 675 247 793 c 0,27,28
 293 830 293 830 345 852 c 1,29,30
 191 954 191 954 191 1139 c 0,31,32
 191 1305 191 1305 311 1417.5 c 128,-1,33
 431 1530 431 1530 603 1530 c 0,34,35
 777 1530 777 1530 898 1418 c 128,-1,36
 1019 1306 1019 1306 1019 1139 c 0,37,38
 1019 960 1019 960 866 852 c 1,39,40
 921 830 921 830 963 793 c 0,41,42
 1110 664 1110 664 1110 457 c 128,-1,43
 1110 250 1110 250 963 115 c 0,44,22
 815 -20 815 -20 605 -20 c 128,-1,23
EndSplineSet
Validated: 1
EndChar

StartChar: nine
Encoding: 57 57 28
Width: 1300
GlyphClass: 2
Flags: W
HStem: -20 90<469.425 801.44> 542 90<491.884 794.831> 1440 90<491.99 797.108>
VStem: 130 217<825.879 1246.37> 141 189<242.625 369.808> 940 200<263.359 668 789.574 1246.64>
LayerCount: 2
Fore
SplineSet
641 1440 m 0,0,1
 526 1440 526 1440 436 1350 c 0,2,3
 347 1261 347 1261 347 1036 c 24,4,5
 347 812 347 812 436 722 c 128,-1,6
 525 632 525 632 641 632 c 0,7,8
 761 632 761 632 850 721 c 0,9,10
 938 809 938 809 938 1036 c 128,-1,11
 938 1263 938 1263 852.5 1351.5 c 128,-1,12
 767 1440 767 1440 641 1440 c 0,0,1
635.5 -20 m 128,-1,14
 425 -20 425 -20 278 121 c 0,15,16
 171 223 171 223 141 363 c 1,17,-1
 320 448 l 1,18,-1
 330 448 l 1,19,-1
 330 358 l 10,20,21
 330 231 330 231 419.5 150.5 c 128,-1,22
 509 70 509 70 635.5 70 c 128,-1,23
 762 70 762 70 851 150.5 c 128,-1,24
 940 231 940 231 940 358 c 2,25,-1
 940 668 l 1,26,27
 812 542 812 542 636 542 c 0,28,29
 425 542 425 542 277.5 683 c 128,-1,30
 130 824 130 824 130 1036 c 152,-1,31
 130 1248 130 1248 277.5 1389 c 128,-1,32
 425 1530 425 1530 635.5 1530 c 128,-1,33
 846 1530 846 1530 993 1389 c 128,-1,34
 1140 1248 1140 1248 1140 1036 c 18,35,-1
 1140 474 l 2,36,37
 1140 262 1140 262 993 121 c 128,-1,13
 846 -20 846 -20 635.5 -20 c 128,-1,14
EndSplineSet
Validated: 1
EndChar

StartChar: colon
Encoding: 58 58 29
Width: 340
GlyphClass: 2
Flags: W
HStem: -20 245<86.0974 253.903> 632 245<86.0974 253.903>
VStem: 50 240<17.1285 187.871 669.129 839.871>
LayerCount: 2
Fore
SplineSet
170 877 m 128,-1,1
 220 877 220 877 255 841 c 128,-1,2
 290 805 290 805 290 754.5 c 128,-1,3
 290 704 290 704 255 668 c 128,-1,4
 220 632 220 632 170 632 c 128,-1,5
 120 632 120 632 85 668 c 128,-1,6
 50 704 50 704 50 754.5 c 128,-1,7
 50 805 50 805 85 841 c 128,-1,0
 120 877 120 877 170 877 c 128,-1,1
170 -20 m 128,-1,9
 120 -20 120 -20 85 16 c 128,-1,10
 50 52 50 52 50 102.5 c 128,-1,11
 50 153 50 153 85 189 c 128,-1,12
 120 225 120 225 170 225 c 128,-1,13
 220 225 220 225 255 189 c 128,-1,14
 290 153 290 153 290 102.5 c 128,-1,15
 290 52 290 52 255 16 c 128,-1,8
 220 -20 220 -20 170 -20 c 128,-1,9
EndSplineSet
Validated: 1
EndChar

StartChar: semicolon
Encoding: 59 59 30
Width: 389
GlyphClass: 2
Flags: W
HStem: 632 245<106.097 273.903>
VStem: 70 240<669.129 839.871> 184 155<-122.682 121.561>
LayerCount: 2
Fore
SplineSet
190 877 m 128,-1,1
 240 877 240 877 275 841 c 128,-1,2
 310 805 310 805 310 754.5 c 128,-1,3
 310 704 310 704 275 668 c 128,-1,4
 240 632 240 632 190 632 c 128,-1,5
 140 632 140 632 105 668 c 128,-1,6
 70 704 70 704 70 754.5 c 128,-1,7
 70 805 70 805 105 841 c 128,-1,0
 140 877 140 877 190 877 c 128,-1,1
220 278 m 1,8,-1
 230 278 l 1,9,10
 339 171 339 171 339 34 c 0,11,12
 339 -163 339 -163 114 -276 c 1,13,-1
 107 -269 l 1,14,15
 184 -139 184 -139 184 -10 c 128,-1,16
 184 119 184 119 50 198 c 1,17,-1
 220 278 l 1,8,-1
EndSplineSet
Validated: 1
EndChar

StartChar: less
Encoding: 60 60 31
Width: 1315
GlyphClass: 2
Flags: W
DStem2: 300 781 150 680 0.942662 -0.33375<0 848.114> 216 830 300 781 0.937476 0.348051<61.6934 928.024>
LayerCount: 2
Fore
SplineSet
216 830 m 1,0,-1
 1086 1153 l 1,1,-1
 1115 1093 l 1,2,-1
 1115 1083 l 1,3,-1
 300 781 l 1,4,-1
 1115 505 l 1,5,-1
 1115 495 l 1,6,-1
 1051 361 l 1,7,-1
 150 680 l 1,8,-1
 150 690 l 1,9,-1
 216 830 l 1,0,-1
EndSplineSet
Validated: 1
EndChar

StartChar: equal
Encoding: 61 61 32
Width: 1200
GlyphClass: 2
Flags: W
HStem: 480 150<216 984> 880 150<216 984>
LayerCount: 2
Fore
SplineSet
216 1030 m 1,0,-1
 1050 1030 l 1,1,-1
 1050 1020 l 1,2,-1
 984 880 l 1,3,-1
 150 880 l 1,4,-1
 150 890 l 1,5,-1
 216 1030 l 1,0,-1
216 630 m 1,6,-1
 1050 630 l 1,7,-1
 1050 620 l 1,8,-1
 984 480 l 1,9,-1
 150 480 l 1,10,-1
 150 490 l 1,11,-1
 216 630 l 1,6,-1
EndSplineSet
Validated: 1
EndChar

StartChar: greater
Encoding: 62 62 33
Width: 1315
GlyphClass: 2
Flags: W
DStem2: 264 1149 200 1005 0.942662 -0.33375<0 848.114> 200 427 229 357 0.937476 0.348051<2.8232 869.154>
LayerCount: 2
Fore
SplineSet
1099 680 m 1,0,-1
 229 357 l 1,1,-1
 200 417 l 1,2,-1
 200 427 l 1,3,-1
 1015 729 l 1,4,-1
 200 1005 l 1,5,-1
 200 1015 l 1,6,-1
 264 1149 l 1,7,-1
 1165 830 l 1,8,-1
 1165 820 l 1,9,-1
 1099 680 l 1,0,-1
EndSplineSet
Validated: 1
EndChar

StartChar: question
Encoding: 63 63 34
Width: 1300
GlyphClass: 2
Flags: W
HStem: -20 245<541.097 708.903> 1440 90<491.045 820.822>
VStem: 150 200<895.153 1261.59> 505 240<17.1285 187.871> 528 203<434 525.174> 949 201<876.692 1271.52>
LayerCount: 2
Fore
SplineSet
625 -20 m 128,-1,1
 575 -20 575 -20 540 16 c 128,-1,2
 505 52 505 52 505 102.5 c 128,-1,3
 505 153 505 153 540 189 c 128,-1,4
 575 225 575 225 625 225 c 128,-1,5
 675 225 675 225 710 189 c 128,-1,6
 745 153 745 153 745 102.5 c 128,-1,7
 745 52 745 52 710 16 c 128,-1,0
 675 -20 675 -20 625 -20 c 128,-1,1
655 1530 m 0,8,9
 882 1530 882 1530 1025 1385 c 0,10,11
 1150 1258 1150 1258 1150 1070 c 0,12,13
 1150 781 1150 781 821 616 c 0,14,15
 731 571 731 571 731 434 c 1,16,-1
 538 341 l 1,17,-1
 528 341 l 1,18,19
 528 573 528 573 738 678 c 0,20,21
 949 784 949 784 949 1092 c 0,22,23
 949 1263 949 1263 888 1337 c 0,24,25
 803 1440 803 1440 655 1440 c 0,26,27
 510 1440 510 1440 422 1337 c 0,28,29
 350 1253 350 1253 350 1067 c 0,30,31
 350 980 350 980 389 914 c 1,32,-1
 221 833 l 1,33,-1
 211 833 l 1,34,35
 150 941 150 941 150 1070 c 0,36,37
 150 1253 150 1253 285 1385 c 0,38,39
 433 1530 433 1530 655 1530 c 0,8,9
EndSplineSet
Validated: 1
EndChar

StartChar: at
Encoding: 64 64 35
Width: 1380
GlyphClass: 2
Flags: W
HStem: -430 80<526.875 685> -20 80<835.259 1010> 589 80<822.253 1017> 1040 80<520.86 859.021>
VStem: 180 180<-149.129 839.129> 519 180<174.002 483.225> 1020 180<70 589 669 839.621>
LayerCount: 2
Fore
SplineSet
1010 -20 m 1,0,-1
 934 -20 l 2,1,2
 756 -20 756 -20 641 70 c 0,3,4
 519 166 519 166 519 330 c 0,5,6
 519 471 519 471 643 573 c 0,7,8
 760 669 760 669 934 669 c 2,9,-1
 1017 669 l 1,10,-1
 1017 749 l 2,11,12
 1017 863 1017 863 936 945 c 0,13,14
 840 1040 840 1040 689 1040 c 0,15,16
 546 1040 546 1040 454 953 c 0,17,18
 360 865 360 865 360 720 c 2,19,-1
 360 -30 l 2,20,21
 360 -164 360 -164 447 -251 c 0,22,23
 546 -350 546 -350 685 -350 c 2,24,-1
 756 -350 l 1,25,-1
 756 -360 l 1,26,-1
 685 -430 l 1,27,28
 457 -430 457 -430 315 -285 c 0,29,30
 180 -147 180 -147 180 70 c 2,31,-1
 180 620 l 2,32,33
 180 837 180 837 315 975 c 0,34,35
 457 1120 457 1120 690 1120 c 128,-1,36
 923 1120 923 1120 1065 975 c 0,37,38
 1200 838 1200 838 1200 620 c 2,39,-1
 1200 70 l 1,40,-1
 1010 -20 l 1,0,-1
1020 589 m 1,41,42
 861 589 861 589 780 522.5 c 128,-1,43
 699 456 699 456 699 327 c 0,44,45
 699 203 699 203 779 136 c 0,46,47
 871 60 871 60 1020 60 c 1,48,-1
 1020 589 l 1,41,42
EndSplineSet
Validated: 1
EndChar

StartChar: A
Encoding: 65 65 36
Width: 1370
GlyphClass: 2
Flags: W
HStem: -20 21G<180 232.222 990 1042.22> 710 90<380 990> 1440 90<519.38 851.44>
VStem: 180 200<70 710 800 1246.64> 990 200<70 710 800 1246.64>
LayerCount: 2
Fore
SplineSet
180 -20 m 1,0,-1
 180 1036 l 2,1,2
 180 1248 180 1248 327.5 1389 c 128,-1,3
 475 1530 475 1530 685.5 1530 c 128,-1,4
 896 1530 896 1530 1043 1389 c 128,-1,5
 1190 1248 1190 1248 1190 1036 c 2,6,-1
 1190 70 l 1,7,-1
 1000 -20 l 1,8,-1
 990 -20 l 1,9,-1
 990 710 l 1,10,-1
 380 710 l 1,11,-1
 380 70 l 1,12,-1
 190 -20 l 1,13,-1
 180 -20 l 1,0,-1
990 800 m 1,14,-1
 990 1152 l 2,15,16
 990 1279 990 1279 901 1359.5 c 128,-1,17
 812 1440 812 1440 685.5 1440 c 128,-1,18
 559 1440 559 1440 469.5 1359.5 c 128,-1,19
 380 1279 380 1279 380 1152 c 2,20,-1
 380 800 l 1,21,-1
 990 800 l 1,14,-1
EndSplineSet
Validated: 1
EndChar

StartChar: B
Encoding: 66 66 37
Width: 1250
GlyphClass: 2
Flags: W
HStem: 0 90<400 824.039> 791 90<400 794.579> 1420 90<400 794.034>
VStem: 200 200<90 791 881 1420> 870 209<973.612 1317.92> 949 221<255.884 662.444>
LayerCount: 2
Fore
SplineSet
400 881 m 1,0,-1
 655 881 l 2,1,2
 747 881 747 881 805 932 c 0,3,4
 870 989 870 989 870 1154 c 0,5,6
 870 1312 870 1312 805 1369 c 0,7,8
 747 1420 747 1420 655 1420 c 2,9,-1
 400 1420 l 1,10,-1
 400 881 l 1,0,-1
400 90 m 1,11,-1
 644 90 l 2,12,13
 799 90 799 90 884 185 c 0,14,15
 949 258 949 258 949 438 c 0,16,17
 949 620 949 620 884 696 c 0,18,19
 803 791 803 791 644 791 c 2,20,-1
 400 791 l 1,21,-1
 400 90 l 1,11,-1
200 0 m 1,22,-1
 200 1440 l 1,23,-1
 348 1510 l 1,24,-1
 665 1510 l 2,25,26
 827 1510 827 1510 946 1418 c 0,27,28
 1079 1314 1079 1314 1079 1141 c 0,29,30
 1079 969 1079 969 927 855 c 1,31,32
 985 831 985 831 1026 794 c 0,33,34
 1170 663 1170 663 1170 463 c 0,35,36
 1170 264 1170 264 1042 137 c 0,37,38
 905 0 905 0 665 0 c 2,39,-1
 200 0 l 1,22,-1
EndSplineSet
Validated: 1
EndChar

StartChar: C
Encoding: 67 67 38
Width: 1250
GlyphClass: 2
Flags: W
HStem: -20 90<503.61 826.54> 1440 90<503.61 826.54>
VStem: 160 210<263.359 1246.64> 955 204<241.99 376 1145.42 1267.38>
LayerCount: 2
Fore
SplineSet
665.5 -20 m 128,-1,1
 455 -20 455 -20 307.5 121 c 128,-1,2
 160 262 160 262 160 474 c 2,3,-1
 160 1036 l 2,4,5
 160 1248 160 1248 307.5 1389 c 128,-1,6
 455 1530 455 1530 665.5 1530 c 128,-1,7
 876 1530 876 1530 1023 1389 c 0,8,9
 1129 1287 1129 1287 1159 1147 c 1,10,-1
 965 1055 l 1,11,-1
 955 1055 l 1,12,-1
 955 1152 l 10,13,14
 955 1279 955 1279 873.5 1359.5 c 128,-1,15
 792 1440 792 1440 665.5 1440 c 128,-1,16
 539 1440 539 1440 454.5 1359.5 c 128,-1,17
 370 1279 370 1279 370 1152 c 2,18,-1
 370 358 l 2,19,20
 370 231 370 231 454.5 150.5 c 128,-1,21
 539 70 539 70 665.5 70 c 128,-1,22
 792 70 792 70 873.5 150.5 c 128,-1,23
 955 231 955 231 955 358 c 18,24,-1
 955 376 l 1,25,-1
 1160 474 l 1,26,-1
 1170 474 l 1,27,28
 1170 262 1170 262 1023 121 c 128,-1,0
 876 -20 876 -20 665.5 -20 c 128,-1,1
EndSplineSet
Validated: 1
EndChar

StartChar: D
Encoding: 68 68 39
Width: 1350
GlyphClass: 2
Flags: W
HStem: 0 90<400 839.926> 1420 90<400 840.078>
VStem: 200 200<90 1420> 980 210<285.324 1226.64>
LayerCount: 2
Fore
SplineSet
400 90 m 1,0,-1
 675 90 l 2,1,2
 800 90 800 90 890 170 c 128,-1,3
 980 250 980 250 980 378 c 18,4,-1
 980 1132 l 10,5,6
 980 1259 980 1259 890.5 1339.5 c 128,-1,7
 801 1420 801 1420 675 1420 c 2,8,-1
 400 1420 l 1,9,-1
 400 90 l 1,0,-1
200 0 m 1,10,-1
 200 1440 l 1,11,-1
 348 1510 l 1,12,-1
 685 1510 l 2,13,14
 896 1510 896 1510 1043 1369 c 128,-1,15
 1190 1228 1190 1228 1190 1016 c 2,16,-1
 1190 494 l 2,17,18
 1190 284 1190 284 1042 141 c 0,19,20
 896 0 896 0 685 0 c 2,21,-1
 200 0 l 1,10,-1
EndSplineSet
Validated: 1
EndChar

StartChar: E
Encoding: 69 69 40
Width: 1060
GlyphClass: 2
Flags: W
HStem: 0 90<400 972> 710 90<400 922> 1420 90<400 922>
VStem: 200 200<90 710 800 1420>
CounterMasks: 1 e0
LayerCount: 2
Fore
SplineSet
200 0 m 1,0,-1
 200 1440 l 1,1,-1
 348 1510 l 1,2,-1
 960 1510 l 1,3,-1
 960 1500 l 1,4,-1
 922 1420 l 1,5,-1
 400 1420 l 1,6,-1
 400 800 l 1,7,-1
 960 800 l 1,8,-1
 960 790 l 1,9,-1
 922 710 l 1,10,-1
 400 710 l 1,11,-1
 400 90 l 1,12,-1
 1010 90 l 1,13,-1
 1010 80 l 1,14,-1
 972 0 l 1,15,-1
 200 0 l 1,0,-1
EndSplineSet
Validated: 1
EndChar

StartChar: F
Encoding: 70 70 41
Width: 1010
GlyphClass: 2
Flags: W
HStem: -20 21G<200 252.222> 710 90<400 922> 1420 90<400 922>
VStem: 200 200<70 710 800 1420>
LayerCount: 2
Fore
SplineSet
200 -20 m 1,0,-1
 200 1440 l 1,1,-1
 348 1510 l 1,2,-1
 960 1510 l 1,3,-1
 960 1500 l 1,4,-1
 922 1420 l 1,5,-1
 400 1420 l 1,6,-1
 400 800 l 1,7,-1
 960 800 l 1,8,-1
 960 790 l 1,9,-1
 922 710 l 1,10,-1
 400 710 l 1,11,-1
 400 70 l 1,12,-1
 210 -20 l 1,13,-1
 200 -20 l 1,0,-1
EndSplineSet
Validated: 1
EndChar

StartChar: G
Encoding: 71 71 42
Width: 1330
GlyphClass: 2
Flags: W
HStem: -20 90<503.61 827.214> 710 90<660 960> 1440 90<503.61 826.54>
VStem: 160 210<263.359 1246.64> 960 210<263.359 710 1140.57 1246.66>
CounterMasks: 1 e0
LayerCount: 2
Fore
SplineSet
665.5 -20 m 128,-1,1
 455 -20 455 -20 307.5 121 c 128,-1,2
 160 262 160 262 160 474 c 2,3,-1
 160 1036 l 2,4,5
 160 1248 160 1248 307.5 1389 c 128,-1,6
 455 1530 455 1530 665.5 1530 c 128,-1,7
 876 1530 876 1530 1023 1389 c 0,8,9
 1129 1287 1129 1287 1159 1147 c 1,10,-1
 965 1055 l 1,11,-1
 955 1055 l 1,12,-1
 955 1152 l 10,13,14
 955 1279 955 1279 873.5 1359.5 c 128,-1,15
 792 1440 792 1440 665.5 1440 c 128,-1,16
 539 1440 539 1440 454.5 1359.5 c 128,-1,17
 370 1279 370 1279 370 1152 c 18,18,-1
 370 358 l 2,19,20
 370 231 370 231 454.5 150.5 c 128,-1,21
 539 70 539 70 665.5 70 c 128,-1,22
 792 70 792 70 876 150.5 c 128,-1,23
 960 231 960 231 960 358 c 18,24,-1
 960 710 l 1,25,-1
 622 710 l 1,26,-1
 622 720 l 1,27,-1
 660 800 l 1,28,-1
 1170 800 l 1,29,-1
 1170 474 l 2,30,31
 1170 262 1170 262 1023 121 c 128,-1,0
 876 -20 876 -20 665.5 -20 c 128,-1,1
EndSplineSet
Validated: 1
EndChar

StartChar: H
Encoding: 72 72 43
Width: 1400
GlyphClass: 2
Flags: W
HStem: -20 21G<200 252.222 1000 1052.22> 710 90<400 1000> 1510 20G<347.778 400 1147.78 1200>
VStem: 200 200<70 710 800 1440> 1000 200<70 710 800 1440>
LayerCount: 2
Fore
SplineSet
200 -20 m 1,0,-1
 200 1440 l 1,1,-1
 390 1530 l 1,2,-1
 400 1530 l 1,3,-1
 400 800 l 1,4,-1
 1000 800 l 1,5,-1
 1000 1440 l 1,6,-1
 1190 1530 l 1,7,-1
 1200 1530 l 1,8,-1
 1200 70 l 1,9,-1
 1010 -20 l 1,10,-1
 1000 -20 l 1,11,-1
 1000 710 l 1,12,-1
 400 710 l 1,13,-1
 400 70 l 1,14,-1
 210 -20 l 1,15,-1
 200 -20 l 1,0,-1
EndSplineSet
Validated: 1
EndChar

StartChar: I
Encoding: 73 73 44
Width: 600
GlyphClass: 2
Flags: W
HStem: -20 21G<200 252.222> 1510 20G<347.778 400>
VStem: 200 200<70 1440>
LayerCount: 2
Fore
SplineSet
200 -20 m 1,0,-1
 200 1440 l 1,1,-1
 390 1530 l 1,2,-1
 400 1530 l 1,3,-1
 400 70 l 1,4,-1
 210 -20 l 1,5,-1
 200 -20 l 1,0,-1
EndSplineSet
Validated: 1
EndChar

StartChar: J
Encoding: 74 74 45
Width: 1150
GlyphClass: 2
Flags: W
HStem: -20 90<345.328 656.211> 1420 90<163 790>
VStem: 10 212<242.625 369.813> 790 200<263.359 1420>
LayerCount: 2
Fore
SplineSet
498.5 -20 m 128,-1,1
 293 -20 293 -20 146 121 c 0,2,3
 40 223 40 223 10 363 c 1,4,-1
 212 459 l 1,5,-1
 222 459 l 1,6,-1
 222 358 l 10,7,8
 222 231 222 231 299.5 150.5 c 128,-1,9
 377 70 377 70 498.5 70 c 128,-1,10
 620 70 620 70 705 150.5 c 128,-1,11
 790 231 790 231 790 358 c 18,12,-1
 790 1420 l 1,13,-1
 125 1420 l 1,14,-1
 125 1430 l 1,15,-1
 163 1510 l 1,16,-1
 990 1510 l 1,17,-1
 990 474 l 2,18,19
 990 262 990 262 847 121 c 128,-1,0
 704 -20 704 -20 498.5 -20 c 128,-1,1
EndSplineSet
Validated: 1
EndChar

StartChar: K
Encoding: 75 75 46
Width: 1350
GlyphClass: 2
Flags: W
HStem: -20 21G<200 252.222 990 1042.22> 964 90<644.979 852.369> 1510 20G<347.778 400 980.023 1053.22>
VStem: 200 200<70 834.541 957 1440> 990 200<70 770.641>
DStem2: 400 957 484.5 883.5 0.718574 0.69545<2.33768 162.179 240.681 830.356>
LayerCount: 2
Fore
SplineSet
210 -20 m 1,0,-1
 200 -20 l 1,1,-1
 200 1440 l 1,2,-1
 390 1530 l 1,3,-1
 400 1530 l 1,4,-1
 400 957 l 9,5,-1
 1001 1530 l 1,6,-1
 1011 1530 l 1,7,-1
 1106 1485 l 1,8,-1
 643 1052 l 1,9,10
 666 1054 666 1054 690 1054 c 0,11,12
 896 1054 896 1054 1043 913 c 128,-1,13
 1190 772 1190 772 1190 560 c 2,14,-1
 1190 70 l 1,15,-1
 1000 -20 l 1,16,-1
 990 -20 l 1,17,-1
 990 676 l 2,18,19
 990 803 990 803 901 883.5 c 128,-1,20
 812 964 812 964 690.5 964 c 128,-1,21
 569 964 569 964 484.5 883.5 c 128,-1,22
 400 803 400 803 400 676 c 2,23,-1
 400 70 l 1,24,-1
 210 -20 l 1,0,-1
EndSplineSet
Validated: 1
EndChar

StartChar: L
Encoding: 76 76 47
Width: 1020
GlyphClass: 2
Flags: W
HStem: 0 90<400 972> 1510 20G<347.778 400>
VStem: 200 200<90 1440>
LayerCount: 2
Fore
SplineSet
200 0 m 1,0,-1
 200 1440 l 1,1,-1
 390 1530 l 1,2,-1
 400 1530 l 1,3,-1
 400 90 l 1,4,-1
 1010 90 l 1,5,-1
 1010 80 l 1,6,-1
 972 0 l 1,7,-1
 200 0 l 1,0,-1
EndSplineSet
Validated: 1
EndChar

StartChar: M
Encoding: 77 77 48
Width: 2180
GlyphClass: 2
Flags: W
HStem: -20 21G<180 232.222 990 1042.22 1800 1852.22> 1440 90<519.38 851.44 1328.53 1661.52>
VStem: 180 200<70 1246.64> 990 200<70 1307.6> 1800 200<70 1246.64>
CounterMasks: 1 38
LayerCount: 2
Fore
SplineSet
180 -20 m 1,0,-1
 180 1036 l 2,1,2
 180 1248 180 1248 327.5 1389 c 128,-1,3
 475 1530 475 1530 685.5 1530 c 128,-1,4
 896 1530 896 1530 1043 1389 c 0,5,6
 1069 1364 1069 1364 1090 1337 c 1,7,8
 1109 1361 1109 1361 1138 1389 c 0,9,10
 1281 1530 1281 1530 1496 1530 c 0,11,12
 1706 1530 1706 1530 1853 1389 c 128,-1,13
 2000 1248 2000 1248 2000 1036 c 2,14,-1
 2000 70 l 1,15,-1
 1810 -20 l 1,16,-1
 1800 -20 l 1,17,-1
 1800 1152 l 2,18,19
 1800 1279 1800 1279 1711 1359.5 c 128,-1,20
 1622 1440 1622 1440 1495.5 1440 c 128,-1,21
 1369 1440 1369 1440 1279.5 1359.5 c 128,-1,22
 1190 1279 1190 1279 1190 1152 c 2,23,-1
 1190 70 l 1,24,-1
 1000 -20 l 1,25,-1
 990 -20 l 1,26,-1
 990 1152 l 2,27,28
 990 1279 990 1279 901 1359.5 c 128,-1,29
 812 1440 812 1440 685.5 1440 c 128,-1,30
 559 1440 559 1440 469.5 1359.5 c 128,-1,31
 380 1279 380 1279 380 1152 c 2,32,-1
 380 70 l 1,33,-1
 190 -20 l 1,34,-1
 180 -20 l 1,0,-1
EndSplineSet
Validated: 1
EndChar

StartChar: N
Encoding: 78 78 49
Width: 1370
GlyphClass: 2
Flags: W
HStem: -20 21G<180 232.222 990 1042.22> 1440 90<519.38 851.44>
VStem: 180 200<70 1246.64> 990 200<70 1246.64>
LayerCount: 2
Fore
SplineSet
180 -20 m 9,0,-1
 180 1036 l 2,1,2
 180 1248 180 1248 327.5 1389 c 128,-1,3
 475 1530 475 1530 685.5 1530 c 128,-1,4
 896 1530 896 1530 1043 1389 c 128,-1,5
 1190 1248 1190 1248 1190 1036 c 2,6,-1
 1190 70 l 17,7,-1
 1000 -20 l 1,8,-1
 990 -20 l 9,9,-1
 990 1152 l 10,10,11
 990 1279 990 1279 901 1359.5 c 128,-1,12
 812 1440 812 1440 685.5 1440 c 128,-1,13
 559 1440 559 1440 469.5 1359.5 c 128,-1,14
 380 1279 380 1279 380 1152 c 18,15,-1
 380 70 l 17,16,-1
 190 -20 l 1,17,-1
 180 -20 l 9,0,-1
EndSplineSet
Validated: 1
EndChar

StartChar: O
Encoding: 79 79 50
Width: 1330
GlyphClass: 2
Flags: W
HStem: -20 90<503.61 827.214> 1440 90<503.61 827.214>
VStem: 160 210<263.359 1246.64> 960 210<263.359 1246.64>
LayerCount: 2
Fore
SplineSet
665.5 70 m 128,-1,1
 792 70 792 70 876 150.5 c 128,-1,2
 960 231 960 231 960 358 c 18,3,-1
 960 1152 l 10,4,5
 960 1279 960 1279 876 1359.5 c 128,-1,6
 792 1440 792 1440 665.5 1440 c 128,-1,7
 539 1440 539 1440 454.5 1359.5 c 128,-1,8
 370 1279 370 1279 370 1152 c 18,9,-1
 370 358 l 10,10,11
 370 231 370 231 454.5 150.5 c 128,-1,0
 539 70 539 70 665.5 70 c 128,-1,1
665.5 -20 m 128,-1,13
 455 -20 455 -20 307.5 121 c 128,-1,14
 160 262 160 262 160 474 c 2,15,-1
 160 1036 l 2,16,17
 160 1248 160 1248 307.5 1389 c 128,-1,18
 455 1530 455 1530 665.5 1530 c 128,-1,19
 876 1530 876 1530 1023 1389 c 128,-1,20
 1170 1248 1170 1248 1170 1036 c 2,21,-1
 1170 474 l 2,22,23
 1170 262 1170 262 1023 121 c 128,-1,12
 876 -20 876 -20 665.5 -20 c 128,-1,13
EndSplineSet
Validated: 1
EndChar

StartChar: P
Encoding: 80 80 51
Width: 1210
GlyphClass: 2
Flags: W
HStem: -20 21G<200 252.222> 500 90<400 803.36> 1420 90<400 803.36>
VStem: 200 200<70 500 590 1420> 944 216<788.304 1220.86>
LayerCount: 2
Fore
SplineSet
400 590 m 1,0,-1
 656 590 l 10,1,2
 783 590 783 590 863.5 689 c 128,-1,3
 944 788 944 788 944 1004.5 c 128,-1,4
 944 1221 944 1221 863.5 1320.5 c 128,-1,5
 783 1420 783 1420 656 1420 c 18,6,-1
 400 1420 l 1,7,-1
 400 590 l 1,0,-1
200 -20 m 1,8,-1
 200 1440 l 1,9,-1
 348 1510 l 1,10,-1
 666 1510 l 2,11,12
 878 1510 878 1510 1019 1362.5 c 128,-1,13
 1160 1215 1160 1215 1160 1004.5 c 128,-1,14
 1160 794 1160 794 1019 647 c 128,-1,15
 878 500 878 500 666 500 c 2,16,-1
 400 500 l 1,17,-1
 400 70 l 1,18,-1
 210 -20 l 1,19,-1
 200 -20 l 1,8,-1
EndSplineSet
Validated: 1
EndChar

StartChar: Q
Encoding: 81 81 52
Width: 1330
GlyphClass: 2
Flags: W
HStem: -20 90<498.549 809.557> 1440 90<499.38 831.44>
VStem: 160 200<263.359 1246.64> 970 200<265.875 1246.64>
DStem2: 750 540 564 457 0.572465 -0.819929<0 351.205 488.106 567.726>
LayerCount: 2
Fore
SplineSet
564 457 m 1,0,-1
 740 540 l 1,1,-1
 750 540 l 1,2,-1
 951 252 l 1,3,4
 970 300 970 300 970 358 c 2,5,-1
 970 1152 l 2,6,7
 970 1279 970 1279 881 1359.5 c 128,-1,8
 792 1440 792 1440 665.5 1440 c 128,-1,9
 539 1440 539 1440 449.5 1359.5 c 128,-1,10
 360 1279 360 1279 360 1152 c 2,11,-1
 360 358 l 2,12,13
 360 231 360 231 450 150 c 0,14,15
 540 70 540 70 666 70 c 0,16,17
 747 70 747 70 811 103 c 1,18,-1
 564 457 l 1,0,-1
666 -20 m 0,19,20
 456 -20 456 -20 308 121 c 128,-1,21
 160 262 160 262 160 474 c 2,22,-1
 160 1036 l 2,23,24
 160 1248 160 1248 307.5 1389 c 128,-1,25
 455 1530 455 1530 665.5 1530 c 128,-1,26
 876 1530 876 1530 1023 1389 c 128,-1,27
 1170 1248 1170 1248 1170 1036 c 2,28,-1
 1170 474 l 2,29,30
 1170 271 1170 271 1035 132 c 1,31,-1
 1097 43 l 1,32,-1
 921 -40 l 1,33,-1
 911 -40 l 1,34,-1
 870 19 l 1,35,36
 777 -20 777 -20 666 -20 c 0,19,20
EndSplineSet
Validated: 1
EndChar

StartChar: R
Encoding: 82 82 53
Width: 1294
GlyphClass: 2
Flags: W
HStem: -20 21G<200 252.222 1003.85 1072.82> 500 90<400 650> 1420 90<400 797.481>
VStem: 200 200<70 500 590 1420> 940 220<788.304 1220.86>
DStem2: 867 540 650 500 0.577669 -0.816271<0 544.34>
LayerCount: 2
Fore
SplineSet
400 590 m 1,0,-1
 652 590 l 10,1,2
 779 590 779 590 859.5 689 c 128,-1,3
 940 788 940 788 940 1004.5 c 128,-1,4
 940 1221 940 1221 859.5 1320.5 c 128,-1,5
 779 1420 779 1420 652 1420 c 18,6,-1
 400 1420 l 1,7,-1
 400 590 l 1,0,-1
200 -20 m 1,8,-1
 200 1440 l 1,9,-1
 348 1510 l 1,10,-1
 666 1510 l 2,11,12
 878 1510 878 1510 1019 1362.5 c 128,-1,13
 1160 1215 1160 1215 1160 1004.5 c 128,-1,14
 1160 794 1160 794 1019 647 c 0,15,16
 951 576 951 576 867 540 c 1,17,-1
 1214 63 l 1,18,-1
 1028 -20 l 1,19,-1
 1018 -20 l 1,20,-1
 650 500 l 1,21,-1
 400 500 l 1,22,-1
 400 70 l 1,23,-1
 210 -20 l 1,24,-1
 200 -20 l 1,8,-1
EndSplineSet
Validated: 1
EndChar

StartChar: T
Encoding: 84 84 54
Width: 1070
GlyphClass: 2
Flags: W
HStem: -20 21G<435 487.222> 1420 90<48 435 635 1022>
VStem: 435 200<70 1420>
LayerCount: 2
Fore
SplineSet
435 -20 m 1,0,-1
 435 1420 l 1,1,-1
 10 1420 l 1,2,-1
 10 1430 l 1,3,-1
 48 1510 l 1,4,-1
 1060 1510 l 1,5,-1
 1060 1500 l 1,6,-1
 1022 1420 l 1,7,-1
 635 1420 l 1,8,-1
 635 70 l 1,9,-1
 445 -20 l 1,10,-1
 435 -20 l 1,0,-1
EndSplineSet
Validated: 1
EndChar

StartChar: U
Encoding: 85 85 55
Width: 1370
GlyphClass: 2
Flags: W
HStem: -20 90<518.56 850.62> 1510 20G<327.778 380 1137.78 1190>
VStem: 180 200<263.359 1440> 990 200<263.359 1440>
LayerCount: 2
Fore
SplineSet
684.5 -20 m 128,-1,1
 474 -20 474 -20 327 121 c 128,-1,2
 180 262 180 262 180 474 c 2,3,-1
 180 1440 l 17,4,-1
 370 1530 l 1,5,-1
 380 1530 l 9,6,-1
 380 358 l 10,7,8
 380 231 380 231 469 150.5 c 128,-1,9
 558 70 558 70 684.5 70 c 128,-1,10
 811 70 811 70 900.5 150.5 c 128,-1,11
 990 231 990 231 990 358 c 18,12,-1
 990 1440 l 17,13,-1
 1180 1530 l 1,14,-1
 1190 1530 l 9,15,-1
 1190 474 l 2,16,17
 1190 262 1190 262 1042.5 121 c 128,-1,0
 895 -20 895 -20 684.5 -20 c 128,-1,1
EndSplineSet
Validated: 1
EndChar

StartChar: V
Encoding: 86 86 56
Width: 1243
GlyphClass: 2
Flags: W
HStem: -20 21G<519.903 579.133> 1510 20G<129.722 189.136 1135.58 1194.46>
DStem2: 182 1530 5 1451 0.334428 -0.942421<15.2575 1401.51> 653 210 695 55 0.354123 0.935199<0 1403.28>
LayerCount: 2
Fore
SplineSet
537 -20 m 1,0,-1
 527 -20 l 1,1,-1
 5 1451 l 1,2,-1
 172 1530 l 1,3,-1
 182 1530 l 1,4,-1
 653 210 l 1,5,-1
 1143 1530 l 1,6,-1
 1153 1530 l 1,7,-1
 1238 1489 l 1,8,-1
 695 55 l 1,9,-1
 537 -20 l 1,0,-1
EndSplineSet
Validated: 19457
EndChar

StartChar: W
Encoding: 87 87 57
Width: 2180
GlyphClass: 2
Flags: W
HStem: -20 90<518.476 851.467 1328.56 1660.62> 1510 20G<327.778 380 1137.78 1190 1947.78 2000>
VStem: 180 200<263.359 1440> 990 200<202.395 1440> 1800 200<263.359 1440>
CounterMasks: 1 38
LayerCount: 2
Fore
SplineSet
684 -20 m 0,0,1
 474 -20 474 -20 327 121 c 128,-1,2
 180 262 180 262 180 474 c 2,3,-1
 180 1440 l 1,4,-1
 370 1530 l 1,5,-1
 380 1530 l 1,6,-1
 380 358 l 2,7,8
 380 231 380 231 469 150.5 c 128,-1,9
 558 70 558 70 684.5 70 c 128,-1,10
 811 70 811 70 900.5 150.5 c 128,-1,11
 990 231 990 231 990 358 c 2,12,-1
 990 1440 l 1,13,-1
 1180 1530 l 1,14,-1
 1190 1530 l 1,15,-1
 1190 358 l 2,16,17
 1190 231 1190 231 1279 150.5 c 128,-1,18
 1368 70 1368 70 1494.5 70 c 128,-1,19
 1621 70 1621 70 1710.5 150.5 c 128,-1,20
 1800 231 1800 231 1800 358 c 2,21,-1
 1800 1440 l 1,22,-1
 1990 1530 l 1,23,-1
 2000 1530 l 1,24,-1
 2000 474 l 2,25,26
 2000 262 2000 262 1852.5 121 c 128,-1,27
 1705 -20 1705 -20 1494.5 -20 c 128,-1,28
 1284 -20 1284 -20 1137 121 c 0,29,30
 1111 146 1111 146 1090 173 c 1,31,32
 1068 146 1068 146 1042 121 c 0,33,34
 899 -20 899 -20 684 -20 c 0,0,1
EndSplineSet
Validated: 1
EndChar

StartChar: X
Encoding: 88 88 58
Width: 1159
GlyphClass: 2
Flags: W
HStem: -20 21G<84.561 150.041 932.712 997.597> 1510 20G<162.692 227.257 1007.99 1072.9>
DStem2: 215 1530 40 1452 0.523064 -0.852293<0 748.281 954.087 1702.89> 40 21 137 -20 0.545047 0.838406<18.4949 780.137 1038.75 1799.84>
LayerCount: 2
Fore
SplineSet
137 -20 m 1,0,-1
 127 -20 l 1,1,-1
 40 21 l 1,2,-1
 492 717 l 1,3,-1
 40 1452 l 1,4,-1
 205 1530 l 1,5,-1
 215 1530 l 1,6,-1
 606 892 l 1,7,-1
 1021 1530 l 1,8,-1
 1031 1530 l 1,9,-1
 1119 1488 l 1,10,-1
 667 794 l 1,11,-1
 1119 57 l 1,12,-1
 955 -20 l 1,13,-1
 945 -20 l 1,14,-1
 553 618 l 1,15,-1
 137 -20 l 1,0,-1
EndSplineSet
Validated: 19457
EndChar

StartChar: Y
Encoding: 89 89 59
Width: 1230
GlyphClass: 2
Flags: W
HStem: -20 21G<515 567.222> 438 82<465.148 515 715 764.816> 1510 20G<267.778 320 1057.78 1110>
VStem: 120 200<713.359 1440> 515 200<70 447.575> 910 200<713.359 1440>
CounterMasks: 1 1c
LayerCount: 2
Fore
SplineSet
515 -20 m 1,0,-1
 515 438 l 1,1,2
 380 462 380 462 267 571 c 0,3,4
 120 712 120 712 120 924 c 2,5,-1
 120 1440 l 1,6,-1
 310 1530 l 1,7,-1
 320 1530 l 1,8,-1
 320 808 l 2,9,10
 320 681 320 681 409 600.5 c 128,-1,11
 498 520 498 520 614.5 520 c 128,-1,12
 731 520 731 520 820.5 600.5 c 128,-1,13
 910 681 910 681 910 808 c 2,14,-1
 910 1440 l 1,15,-1
 1100 1530 l 1,16,-1
 1110 1530 l 1,17,-1
 1110 924 l 2,18,19
 1110 712 1110 712 962 571 c 0,20,21
 850 463 850 463 715 439 c 1,22,-1
 715 70 l 1,23,-1
 525 -20 l 1,24,-1
 515 -20 l 1,0,-1
EndSplineSet
Validated: 1
EndChar

StartChar: Z
Encoding: 90 90 60
Width: 1040
GlyphClass: 2
Flags: W
HStem: 0 90<286 962> 1420 90<108 751>
DStem2: 40 10 286 90 0.451763 0.892138<182.505 1579.12>
LayerCount: 2
Fore
SplineSet
40 0 m 1,0,-1
 40 10 l 1,1,-1
 751 1420 l 1,2,-1
 70 1420 l 1,3,-1
 70 1430 l 1,4,-1
 108 1510 l 1,5,-1
 1000 1510 l 1,6,-1
 1000 1500 l 1,7,-1
 286 90 l 1,8,-1
 1000 90 l 1,9,-1
 1000 80 l 1,10,-1
 962 0 l 1,11,-1
 40 0 l 1,0,-1
EndSplineSet
Validated: 19457
EndChar

StartChar: bracketleft
Encoding: 91 91 61
Width: 880
GlyphClass: 2
Flags: W
HStem: -240 90<400 792> 1660 90<400 792>
VStem: 200 200<-150 1660>
LayerCount: 2
Fore
SplineSet
200 -240 m 1,0,-1
 200 1660 l 1,1,-1
 390 1750 l 1,2,-1
 830 1750 l 1,3,-1
 830 1740 l 1,4,-1
 792 1660 l 1,5,-1
 400 1660 l 1,6,-1
 400 -150 l 1,7,-1
 830 -150 l 1,8,-1
 830 -160 l 1,9,-1
 792 -240 l 1,10,-1
 200 -240 l 1,0,-1
EndSplineSet
Validated: 1
EndChar

StartChar: backslash
Encoding: 92 92 62
Width: 1019
GlyphClass: 2
Flags: W
DStem2: 148 1710 10 1648 0.422724 -0.906258<0 2037.01>
LayerCount: 2
Fore
SplineSet
882 -200 m 1,0,-1
 872 -200 l 1,1,-1
 10 1648 l 1,2,-1
 138 1710 l 1,3,-1
 148 1710 l 1,4,-1
 1009 -138 l 1,5,-1
 882 -200 l 1,0,-1
EndSplineSet
Validated: 1
EndChar

StartChar: bracketright
Encoding: 93 93 63
Width: 880
GlyphClass: 2
Flags: W
HStem: -240 90<88 480> 1660 90<88 480>
VStem: 480 200<-150 1660>
LayerCount: 2
Fore
SplineSet
490 -240 m 1,0,-1
 50 -240 l 1,1,-1
 50 -230 l 1,2,-1
 88 -150 l 1,3,-1
 480 -150 l 1,4,-1
 480 1660 l 1,5,-1
 50 1660 l 1,6,-1
 50 1670 l 1,7,-1
 88 1750 l 1,8,-1
 680 1750 l 1,9,-1
 680 -150 l 1,10,-1
 490 -240 l 1,0,-1
EndSplineSet
Validated: 1
EndChar

StartChar: asciicircum
Encoding: 94 94 64
Width: 905
GlyphClass: 2
Flags: W
HStem: 1160 410
DStem2: 50 1197 136 1160 0.704664 0.709541<34.3481 410.124> 522 1570 417 1441 0.701818 -0.712356<18.203 411.375>
LayerCount: 2
Fore
SplineSet
512 1570 m 1,0,-1
 522 1570 l 1,1,-1
 855 1232 l 1,2,-1
 702 1160 l 1,3,-1
 692 1160 l 1,4,-1
 417 1441 l 1,5,-1
 136 1160 l 1,6,-1
 126 1160 l 1,7,-1
 50 1197 l 1,8,-1
 339 1488 l 1,9,-1
 512 1570 l 1,0,-1
EndSplineSet
Validated: 1
EndChar

StartChar: underscore
Encoding: 95 95 65
Width: 1364
GlyphClass: 2
Flags: W
HStem: -410 120<202 1162>
LayerCount: 2
Fore
SplineSet
150 -410 m 1,0,-1
 150 -400 l 1,1,-1
 202 -290 l 1,2,-1
 1214 -290 l 1,3,-1
 1214 -300 l 1,4,-1
 1162 -410 l 1,5,-1
 150 -410 l 1,0,-1
EndSplineSet
Validated: 1
EndChar

StartChar: grave
Encoding: 96 96 66
Width: 377
GlyphClass: 2
Flags: W
HStem: 1160 367
VStem: 50 277
DStem2: 180 1527 50 1470 0.427336 -0.904093<0 339.921>
LayerCount: 2
Fore
SplineSet
170 1527 m 1,0,-1
 180 1527 l 1,1,-1
 327 1216 l 1,2,-1
 209 1160 l 1,3,-1
 199 1160 l 1,4,-1
 50 1470 l 1,5,-1
 170 1527 l 1,0,-1
EndSplineSet
Validated: 1
EndChar

StartChar: a
Encoding: 97 97 67
Width: 1064
GlyphClass: 2
Flags: W
HStem: -20 67<381.737 604.823> 669 71<377.035 608.36> 1020 80<308 604.12>
VStem: 80 198<173.164 541.25> 704 180<61 66 126.406 589.594 652 878.53>
LayerCount: 2
Fore
SplineSet
278 278 m 2,0,1
 278 173 278 173 342.5 110 c 128,-1,2
 407 47 407 47 491 47 c 128,-1,3
 575 47 575 47 644.5 110 c 128,-1,4
 714 173 714 173 714 278 c 2,5,-1
 714 438 l 2,6,7
 714 543 714 543 644.5 606 c 128,-1,8
 575 669 575 669 491 669 c 128,-1,9
 407 669 407 669 342.5 606 c 128,-1,10
 278 543 278 543 278 438 c 2,11,-1
 278 278 l 2,0,1
704 -20 m 1,12,-1
 704 66 l 1,13,14
 611 -20 611 -20 466 -20 c 0,15,16
 279 -20 279 -20 179.5 93 c 128,-1,17
 80 206 80 206 80 360 c 0,18,19
 80 520 80 520 193 632 c 0,20,21
 302 740 302 740 466 740 c 0,22,23
 616 740 616 740 704 652 c 1,24,-1
 704 794 l 2,25,26
 704 893 704 893 635.5 956.5 c 128,-1,27
 567 1020 567 1020 469 1020 c 2,28,-1
 274 1020 l 1,29,-1
 274 1030 l 1,30,-1
 308 1100 l 1,31,-1
 469 1100 l 2,32,33
 641 1100 641 1100 762.5 983 c 128,-1,34
 884 866 884 866 884 692 c 2,35,-1
 884 61 l 17,36,-1
 714 -20 l 1,37,-1
 704 -20 l 1,12,-1
EndSplineSet
Validated: 1
EndChar

StartChar: b
Encoding: 98 98 68
Width: 1170
GlyphClass: 2
Flags: W
HStem: -20 80<457.635 721.869> 1040 80<456.041 721.869> 1510 20G<308.025 360>
VStem: 180 180<201.47 951.439 1031 1449> 815 195<201.47 898.53>
LayerCount: 2
Fore
SplineSet
590 60 m 128,-1,1
 688 60 688 60 751.5 123.5 c 128,-1,2
 815 187 815 187 815 286 c 2,3,-1
 815 814 l 2,4,5
 815 913 815 913 751.5 976.5 c 128,-1,6
 688 1040 688 1040 590 1040 c 128,-1,7
 492 1040 492 1040 426 976.5 c 128,-1,8
 360 913 360 913 360 814 c 2,9,-1
 360 286 l 2,10,11
 360 187 360 187 426 123.5 c 128,-1,0
 492 60 492 60 590 60 c 128,-1,1
595 -20 m 128,-1,13
 423 -20 423 -20 301.5 97 c 128,-1,14
 180 214 180 214 180 388 c 2,15,-1
 180 1449 l 1,16,-1
 350 1530 l 1,17,-1
 360 1530 l 1,18,-1
 360 1031 l 1,19,20
 463 1120 463 1120 595 1120 c 0,21,22
 767 1120 767 1120 888.5 1003 c 128,-1,23
 1010 886 1010 886 1010 712 c 2,24,-1
 1010 388 l 2,25,26
 1010 214 1010 214 888.5 97 c 128,-1,12
 767 -20 767 -20 595 -20 c 128,-1,13
EndSplineSet
Validated: 1
EndChar

StartChar: c
Encoding: 99 99 69
Width: 1070
GlyphClass: 2
Flags: W
HStem: -20 80<448.131 707.716> 1040 80<448.131 709.544>
VStem: 160 195<201.47 898.53> 795 195<201.47 300>
LayerCount: 2
Fore
SplineSet
575 -20 m 128,-1,1
 403 -20 403 -20 281.5 97 c 128,-1,2
 160 214 160 214 160 388 c 2,3,-1
 160 712 l 2,4,5
 160 886 160 886 281.5 1003 c 128,-1,6
 403 1120 403 1120 575 1120 c 0,7,8
 745 1120 745 1120 868 1003 c 0,9,10
 954 921 954 921 979 810 c 1,11,-1
 805 727 l 1,12,-1
 795 727 l 1,13,-1
 795 814 l 2,14,15
 795 913 795 913 736.5 976.5 c 128,-1,16
 678 1040 678 1040 580 1040 c 128,-1,17
 482 1040 482 1040 418.5 976.5 c 128,-1,18
 355 913 355 913 355 814 c 2,19,-1
 355 286 l 2,20,21
 355 187 355 187 418.5 123.5 c 128,-1,22
 482 60 482 60 580 60 c 128,-1,23
 678 60 678 60 736.5 123.5 c 128,-1,24
 795 187 795 187 795 286 c 2,25,-1
 795 300 l 1,26,-1
 980 388 l 1,27,-1
 990 388 l 1,28,29
 990 214 990 214 868.5 97 c 128,-1,0
 747 -20 747 -20 575 -20 c 128,-1,1
EndSplineSet
Validated: 1
EndChar

StartChar: d
Encoding: 100 100 70
Width: 1170
GlyphClass: 2
Flags: W
HStem: -20 80<448.131 712.365> 1040 80<448.131 713.959> 1510 20G<938.025 990>
VStem: 160 195<201.47 898.53> 810 180<201.47 951.439 1031 1449>
LayerCount: 2
Fore
SplineSet
580 60 m 128,-1,1
 678 60 678 60 744 123.5 c 128,-1,2
 810 187 810 187 810 286 c 2,3,-1
 810 814 l 2,4,5
 810 913 810 913 744 976.5 c 128,-1,6
 678 1040 678 1040 580 1040 c 128,-1,7
 482 1040 482 1040 418.5 976.5 c 128,-1,8
 355 913 355 913 355 814 c 2,9,-1
 355 286 l 2,10,11
 355 187 355 187 418.5 123.5 c 128,-1,0
 482 60 482 60 580 60 c 128,-1,1
575 -20 m 128,-1,13
 403 -20 403 -20 281.5 97 c 128,-1,14
 160 214 160 214 160 388 c 2,15,-1
 160 712 l 2,16,17
 160 886 160 886 281.5 1003 c 128,-1,18
 403 1120 403 1120 575 1120 c 0,19,20
 707 1120 707 1120 810 1031 c 1,21,-1
 810 1449 l 1,22,-1
 980 1530 l 1,23,-1
 990 1530 l 1,24,-1
 990 388 l 2,25,26
 990 214 990 214 868.5 97 c 128,-1,12
 747 -20 747 -20 575 -20 c 128,-1,13
EndSplineSet
Validated: 1
EndChar

StartChar: e
Encoding: 101 101 71
Width: 1150
GlyphClass: 2
Flags: W
HStem: -20 80<443.258 705.979> 1040 80<443.258 706.742>
VStem: 160 190<201.47 338 429 898.53> 800 190<201.47 300 645 898.53>
DStem2: 350 429 350 338 0.902182 0.431356<0 499.155>
LayerCount: 2
Fore
SplineSet
575 -20 m 132,-1,1
 403 -20 403 -20 281.5 97 c 128,-1,2
 160 214 160 214 160 388 c 2,3,-1
 160 712 l 2,4,5
 160 886 160 886 281.5 1003 c 128,-1,6
 403 1120 403 1120 575 1120 c 128,-1,7
 747 1120 747 1120 868.5 1003 c 128,-1,8
 990 886 990 886 990 712 c 2,9,-1
 990 644 l 1,10,-1
 350 338 l 1,11,-1
 350 286 l 2,12,13
 350 187 350 187 413.5 123.5 c 128,-1,14
 477 60 477 60 575 60 c 128,-1,15
 673 60 673 60 734 123.5 c 128,-1,16
 795 187 795 187 795 286 c 2,17,-1
 795 300 l 1,18,-1
 980 388 l 1,19,-1
 990 388 l 1,20,21
 990 214 990 214 868.5 97 c 128,-1,0
 747 -20 747 -20 575 -20 c 132,-1,1
350 429 m 1,22,-1
 800 645 l 1,23,-1
 800 814 l 2,24,25
 800 913 800 913 736.5 976.5 c 128,-1,26
 673 1040 673 1040 575 1040 c 128,-1,27
 477 1040 477 1040 413.5 976.5 c 128,-1,28
 350 913 350 913 350 814 c 2,29,-1
 350 429 l 1,22,-1
EndSplineSet
Validated: 1
EndChar

StartChar: f
Encoding: 102 102 72
Width: 780
GlyphClass: 2
Flags: W
HStem: -20 21G<180 231.975> 820 80<360 698> 1430 80<459.88 737>
VStem: 180 180<61 820 900 1288.53>
LayerCount: 2
Fore
SplineSet
180 -20 m 1,0,-1
 180 1102 l 2,1,2
 180 1276 180 1276 301.5 1393 c 128,-1,3
 423 1510 423 1510 595 1510 c 2,4,-1
 770 1510 l 1,5,-1
 770 1500 l 1,6,-1
 737 1430 l 1,7,-1
 595 1430 l 2,8,9
 497 1430 497 1430 428.5 1366.5 c 128,-1,10
 360 1303 360 1303 360 1204 c 2,11,-1
 360 900 l 1,12,-1
 731 900 l 1,13,-1
 731 890 l 1,14,-1
 698 820 l 1,15,-1
 360 820 l 1,16,-1
 360 61 l 1,17,-1
 190 -20 l 1,18,-1
 180 -20 l 1,0,-1
EndSplineSet
Validated: 1
EndChar

StartChar: g
Encoding: 103 103 73
Width: 1170
GlyphClass: 2
Flags: W
HStem: -410 80<333 710.425> -20 80<448.131 713.959> 1040 80<448.131 712.365>
VStem: 160 195<201.47 898.53> 810 180<-188.53 69 148.561 898.53>
LayerCount: 2
Fore
SplineSet
580 60 m 128,-1,1
 678 60 678 60 744 123.5 c 128,-1,2
 810 187 810 187 810 286 c 2,3,-1
 810 814 l 2,4,5
 810 913 810 913 744 976.5 c 128,-1,6
 678 1040 678 1040 580 1040 c 128,-1,7
 482 1040 482 1040 418.5 976.5 c 128,-1,8
 355 913 355 913 355 814 c 2,9,-1
 355 286 l 2,10,11
 355 187 355 187 418.5 123.5 c 128,-1,0
 482 60 482 60 580 60 c 128,-1,1
300 -410 m 1,12,-1
 300 -400 l 1,13,-1
 333 -330 l 1,14,-1
 575 -330 l 2,15,16
 673 -330 673 -330 742 -266 c 0,17,18
 810 -203 810 -203 810 -104 c 2,19,-1
 810 69 l 1,20,21
 707 -20 707 -20 575 -20 c 0,22,23
 403 -20 403 -20 281.5 97 c 128,-1,24
 160 214 160 214 160 388 c 2,25,-1
 160 712 l 2,26,27
 160 886 160 886 281.5 1003 c 128,-1,28
 403 1120 403 1120 575 1120 c 128,-1,29
 747 1120 747 1120 868.5 1003 c 128,-1,30
 990 886 990 886 990 712 c 2,31,-1
 990 -2 l 2,32,33
 990 -176 990 -176 868.5 -293 c 128,-1,34
 747 -410 747 -410 575 -410 c 2,35,-1
 300 -410 l 1,12,-1
EndSplineSet
Validated: 1
EndChar

StartChar: h
Encoding: 104 104 74
Width: 1210
GlyphClass: 2
Flags: W
HStem: -20 21G<200 251.975 850 901.975> 1040 80<479.589 750.628> 1510 20G<328.025 380>
VStem: 200 180<61 949.238 1031 1449> 850 180<61 898.53>
LayerCount: 2
Fore
SplineSet
200 -20 m 1,0,-1
 200 1449 l 1,1,-1
 370 1530 l 1,2,-1
 380 1530 l 1,3,-1
 380 1031 l 1,4,5
 483 1120 483 1120 615 1120 c 0,6,7
 787 1120 787 1120 908.5 1003 c 128,-1,8
 1030 886 1030 886 1030 712 c 2,9,-1
 1030 61 l 1,10,-1
 860 -20 l 1,11,-1
 850 -20 l 1,12,-1
 850 814 l 2,13,14
 850 913 850 913 781.5 976.5 c 128,-1,15
 713 1040 713 1040 615 1040 c 128,-1,16
 517 1040 517 1040 448.5 976.5 c 128,-1,17
 380 913 380 913 380 814 c 2,18,-1
 380 61 l 1,19,-1
 210 -20 l 1,20,-1
 200 -20 l 1,0,-1
EndSplineSet
Validated: 1
EndChar

StartChar: i
Encoding: 105 105 75
Width: 580
GlyphClass: 2
Flags: W
HStem: -20 21G<200 251.975> 1100 20G<328.025 380> 1220 245<206.097 373.903>
VStem: 170 240<1257.13 1427.87> 200 180<61 1039>
LayerCount: 2
Fore
SplineSet
200 -20 m 1,0,-1
 200 1039 l 1,1,-1
 370 1120 l 1,2,-1
 380 1120 l 1,3,-1
 380 61 l 1,4,-1
 210 -20 l 1,5,-1
 200 -20 l 1,0,-1
290 1465 m 128,-1,7
 340 1465 340 1465 375 1429 c 128,-1,8
 410 1393 410 1393 410 1342.5 c 128,-1,9
 410 1292 410 1292 375 1256 c 128,-1,10
 340 1220 340 1220 290 1220 c 128,-1,11
 240 1220 240 1220 205 1256 c 128,-1,12
 170 1292 170 1292 170 1342.5 c 128,-1,13
 170 1393 170 1393 205 1429 c 128,-1,6
 240 1465 240 1465 290 1465 c 128,-1,7
EndSplineSet
Validated: 1
EndChar

StartChar: j
Encoding: 106 106 76
Width: 580
GlyphClass: 2
Flags: W
HStem: -410 21G<-35 51> 1100 20G<328.025 380> 1220 245<206.097 373.903>
VStem: 170 240<1257.13 1427.87> 200 180<-188.53 1039>
LayerCount: 2
Fore
SplineSet
290 1465 m 128,-1,1
 340 1465 340 1465 375 1429 c 128,-1,2
 410 1393 410 1393 410 1342.5 c 128,-1,3
 410 1292 410 1292 375 1256 c 128,-1,4
 340 1220 340 1220 290 1220 c 128,-1,5
 240 1220 240 1220 205 1256 c 128,-1,6
 170 1292 170 1292 170 1342.5 c 128,-1,7
 170 1393 170 1393 205 1429 c 128,-1,0
 240 1465 240 1465 290 1465 c 128,-1,1
-35 -410 m 1,8,-1
 -35 -400 l 1,9,-1
 -2 -330 l 1,10,11
 76 -322 76 -322 132 -266 c 0,12,13
 200 -199 200 -199 200 -104 c 2,14,-1
 200 1039 l 17,15,-1
 370 1120 l 1,16,-1
 380 1120 l 9,17,-1
 380 -2 l 2,18,19
 380 -176 380 -176 258.5 -293 c 128,-1,20
 137 -410 137 -410 -35 -410 c 1,8,-1
EndSplineSet
Validated: 1
EndChar

StartChar: k
Encoding: 107 107 77
Width: 1170
GlyphClass: 2
Flags: W
HStem: -20 21G<200 251.975 830 881.975> 720 80<530.94 730.974> 1100 20G<796.582 868.571> 1510 20G<328.025 380>
VStem: 200 180<61 633.623 711 1449> 830 180<61 579.013>
DStem2: 380 711 443.5 656.5 0.728364 0.68519<0.541384 142.471 212.525 599.266>
LayerCount: 2
Fore
SplineSet
210 -20 m 1,0,-1
 200 -20 l 1,1,-1
 200 1449 l 1,2,-1
 370 1530 l 1,3,-1
 380 1530 l 1,4,-1
 380 711 l 1,5,-1
 818 1120 l 1,6,-1
 828 1120 l 1,7,-1
 899 1085 l 1,8,-1
 589 799 l 1,9,10
 595 800 595 800 601 800 c 0,11,12
 764 800 764 800 888 683 c 0,13,14
 1010 567 1010 567 1010 392 c 2,15,-1
 1010 61 l 1,16,-1
 840 -20 l 1,17,-1
 830 -20 l 1,18,-1
 830 494 l 2,19,20
 830 593 830 593 761.5 656.5 c 128,-1,21
 693 720 693 720 600 720 c 128,-1,22
 507 720 507 720 443.5 656.5 c 128,-1,23
 380 593 380 593 380 494 c 2,24,-1
 380 61 l 1,25,-1
 210 -20 l 1,0,-1
EndSplineSet
Validated: 1
EndChar

StartChar: l
Encoding: 108 108 78
Width: 580
GlyphClass: 2
Flags: W
HStem: -20 21G<200 251.975> 1510 20G<328.025 380>
VStem: 200 180<61 1449>
LayerCount: 2
Fore
SplineSet
200 -20 m 1,0,-1
 200 1449 l 1,1,-1
 370 1530 l 1,2,-1
 380 1530 l 1,3,-1
 380 61 l 1,4,-1
 210 -20 l 1,5,-1
 200 -20 l 1,0,-1
EndSplineSet
Validated: 1
EndChar

StartChar: m
Encoding: 109 109 79
Width: 1840
GlyphClass: 2
Flags: W
HStem: -20 21G<180 231.975 830 881.975 1480 1531.98> 1040 80<459.372 729.852 1109.74 1380.71>
VStem: 180 180<61 898.53> 830 180<61 949.238> 1480 180<61 898.53>
CounterMasks: 1 38
LayerCount: 2
Fore
SplineSet
180 -20 m 1,0,-1
 180 712 l 2,1,2
 180 886 180 886 301.5 1003 c 128,-1,3
 423 1120 423 1120 595 1120 c 0,4,5
 764 1120 764 1120 888 1003 c 0,6,7
 905 987 905 987 920 969 c 1,8,9
 936 986 936 986 952 1003 c 0,10,11
 1074 1120 1074 1120 1245.5 1120 c 128,-1,12
 1417 1120 1417 1120 1538.5 1003 c 128,-1,13
 1660 886 1660 886 1660 712 c 2,14,-1
 1660 61 l 1,15,-1
 1490 -20 l 1,16,-1
 1480 -20 l 1,17,-1
 1480 814 l 2,18,19
 1480 913 1480 913 1411.5 976.5 c 128,-1,20
 1343 1040 1343 1040 1245 1040 c 128,-1,21
 1147 1040 1147 1040 1078.5 976.5 c 128,-1,22
 1010 913 1010 913 1010 814 c 2,23,-1
 1010 61 l 1,24,-1
 840 -20 l 1,25,-1
 830 -20 l 1,26,-1
 830 814 l 2,27,28
 830 913 830 913 761.5 976.5 c 128,-1,29
 693 1040 693 1040 595 1040 c 128,-1,30
 497 1040 497 1040 428.5 976.5 c 128,-1,31
 360 913 360 913 360 814 c 2,32,-1
 360 61 l 1,33,-1
 190 -20 l 1,34,-1
 180 -20 l 1,0,-1
EndSplineSet
Validated: 1
EndChar

StartChar: n
Encoding: 110 110 80
Width: 1190
GlyphClass: 2
Flags: W
HStem: -20 21G<180 231.975 830 881.975> 1040 80<459.372 730.628>
VStem: 180 180<61 898.53> 830 180<61 898.53>
LayerCount: 2
Fore
SplineSet
180 -20 m 9,0,-1
 180 712 l 2,1,2
 180 886 180 886 301.5 1003 c 128,-1,3
 423 1120 423 1120 595 1120 c 128,-1,4
 767 1120 767 1120 888.5 1003 c 128,-1,5
 1010 886 1010 886 1010 712 c 2,6,-1
 1010 61 l 17,7,-1
 840 -20 l 1,8,-1
 830 -20 l 9,9,-1
 830 814 l 2,10,11
 830 913 830 913 761.5 976.5 c 128,-1,12
 693 1040 693 1040 595 1040 c 128,-1,13
 497 1040 497 1040 428.5 976.5 c 128,-1,14
 360 913 360 913 360 814 c 2,15,-1
 360 61 l 17,16,-1
 190 -20 l 1,17,-1
 180 -20 l 9,0,-1
EndSplineSet
Validated: 1
EndChar

StartChar: o
Encoding: 111 111 81
Width: 1150
GlyphClass: 2
Flags: W
HStem: -20 80<443.258 706.742> 1040 80<443.258 706.742>
VStem: 160 190<201.47 898.53> 800 190<201.47 898.53>
LayerCount: 2
Fore
SplineSet
575 60 m 128,-1,1
 673 60 673 60 736.5 123.5 c 128,-1,2
 800 187 800 187 800 286 c 2,3,-1
 800 814 l 2,4,5
 800 913 800 913 736.5 976.5 c 128,-1,6
 673 1040 673 1040 575 1040 c 128,-1,7
 477 1040 477 1040 413.5 976.5 c 128,-1,8
 350 913 350 913 350 814 c 2,9,-1
 350 286 l 2,10,11
 350 187 350 187 413.5 123.5 c 128,-1,0
 477 60 477 60 575 60 c 128,-1,1
575 -20 m 128,-1,13
 403 -20 403 -20 281.5 97 c 128,-1,14
 160 214 160 214 160 388 c 2,15,-1
 160 712 l 2,16,17
 160 886 160 886 281.5 1003 c 128,-1,18
 403 1120 403 1120 575 1120 c 128,-1,19
 747 1120 747 1120 868.5 1003 c 128,-1,20
 990 886 990 886 990 712 c 2,21,-1
 990 388 l 2,22,23
 990 214 990 214 868.5 97 c 128,-1,12
 747 -20 747 -20 575 -20 c 128,-1,13
EndSplineSet
Validated: 1
EndChar

StartChar: p
Encoding: 112 112 82
Width: 1170
GlyphClass: 2
Flags: W
HStem: -430 21G<180 231.975> -20 80<456.041 721.869> 1040 80<457.635 721.869>
VStem: 180 180<-349 69 148.561 898.53> 815 195<201.47 898.53>
LayerCount: 2
Fore
SplineSet
590 60 m 128,-1,1
 688 60 688 60 751.5 123.5 c 128,-1,2
 815 187 815 187 815 286 c 2,3,-1
 815 814 l 2,4,5
 815 913 815 913 751.5 976.5 c 128,-1,6
 688 1040 688 1040 590 1040 c 128,-1,7
 492 1040 492 1040 426 976.5 c 128,-1,8
 360 913 360 913 360 814 c 2,9,-1
 360 286 l 2,10,11
 360 187 360 187 426 123.5 c 128,-1,0
 492 60 492 60 590 60 c 128,-1,1
180 -430 m 1,12,-1
 180 712 l 2,13,14
 180 886 180 886 301.5 1003 c 128,-1,15
 423 1120 423 1120 595 1120 c 128,-1,16
 767 1120 767 1120 888.5 1003 c 128,-1,17
 1010 886 1010 886 1010 712 c 2,18,-1
 1010 388 l 2,19,20
 1010 214 1010 214 888.5 97 c 128,-1,21
 767 -20 767 -20 595 -20 c 0,22,23
 463 -20 463 -20 360 69 c 1,24,-1
 360 -349 l 1,25,-1
 190 -430 l 1,26,-1
 180 -430 l 1,12,-1
EndSplineSet
Validated: 1
EndChar

StartChar: q
Encoding: 113 113 83
Width: 1170
GlyphClass: 2
Flags: W
HStem: -430 21G<810 861.975> -20 80<448.131 713.959> 1040 80<448.131 712.365>
VStem: 160 195<201.47 898.53> 810 180<-349 69 148.561 898.53>
LayerCount: 2
Fore
SplineSet
580 60 m 128,-1,1
 678 60 678 60 744 123.5 c 128,-1,2
 810 187 810 187 810 286 c 2,3,-1
 810 814 l 2,4,5
 810 913 810 913 744 976.5 c 128,-1,6
 678 1040 678 1040 580 1040 c 128,-1,7
 482 1040 482 1040 418.5 976.5 c 128,-1,8
 355 913 355 913 355 814 c 2,9,-1
 355 286 l 2,10,11
 355 187 355 187 418.5 123.5 c 128,-1,0
 482 60 482 60 580 60 c 128,-1,1
810 -430 m 1,12,-1
 810 69 l 1,13,14
 707 -20 707 -20 575 -20 c 0,15,16
 403 -20 403 -20 281.5 97 c 128,-1,17
 160 214 160 214 160 388 c 2,18,-1
 160 712 l 2,19,20
 160 886 160 886 281.5 1003 c 128,-1,21
 403 1120 403 1120 575 1120 c 128,-1,22
 747 1120 747 1120 868.5 1003 c 128,-1,23
 990 886 990 886 990 712 c 2,24,-1
 990 -349 l 1,25,-1
 820 -430 l 1,26,-1
 810 -430 l 1,12,-1
EndSplineSet
Validated: 1
EndChar

StartChar: r
Encoding: 114 114 84
Width: 780
GlyphClass: 2
Flags: W
HStem: -20 21G<180 231.975> 1020 80<459.233 736>
VStem: 180 180<61 878.53>
LayerCount: 2
Fore
SplineSet
180 -20 m 9,0,-1
 180 692 l 2,1,2
 180 866 180 866 301.5 983 c 128,-1,3
 423 1100 423 1100 595 1100 c 2,4,-1
 770 1100 l 1,5,-1
 770 1090 l 1,6,-1
 736 1020 l 1,7,-1
 595 1020 l 2,8,9
 496 1020 496 1020 428 956 c 0,10,11
 360 893 360 893 360 794 c 2,12,-1
 360 61 l 17,13,-1
 190 -20 l 1,14,-1
 180 -20 l 9,0,-1
EndSplineSet
Validated: 1
EndChar

StartChar: t
Encoding: 116 116 85
Width: 780
GlyphClass: 2
Flags: W
HStem: -20 21G<300 351.772> 1020 80<43 300 475 737> 1510 20G<423.228 475>
VStem: 300 175<59 1020 1100 1451>
LayerCount: 2
Fore
SplineSet
300 -20 m 1,0,-1
 300 1020 l 1,1,-1
 10 1020 l 1,2,-1
 10 1030 l 1,3,-1
 43 1100 l 1,4,-1
 300 1100 l 1,5,-1
 300 1451 l 1,6,-1
 465 1530 l 1,7,-1
 475 1530 l 1,8,-1
 475 1100 l 1,9,-1
 770 1100 l 1,10,-1
 770 1090 l 1,11,-1
 737 1020 l 1,12,-1
 475 1020 l 1,13,-1
 475 59 l 1,14,-1
 310 -20 l 1,15,-1
 300 -20 l 1,0,-1
EndSplineSet
Validated: 1
EndChar

StartChar: u
Encoding: 117 117 86
Width: 1190
GlyphClass: 2
Flags: W
HStem: -20 80<459.372 730.628> 1100 20G<308.025 360 958.025 1010>
VStem: 180 180<201.47 1039> 830 180<201.47 1039>
LayerCount: 2
Fore
SplineSet
595 -20 m 128,-1,1
 423 -20 423 -20 301.5 97 c 128,-1,2
 180 214 180 214 180 388 c 2,3,-1
 180 1039 l 17,4,-1
 350 1120 l 1,5,-1
 360 1120 l 9,6,-1
 360 286 l 2,7,8
 360 187 360 187 428.5 123.5 c 128,-1,9
 497 60 497 60 595 60 c 128,-1,10
 693 60 693 60 761.5 123.5 c 128,-1,11
 830 187 830 187 830 286 c 2,12,-1
 830 1039 l 17,13,-1
 1000 1120 l 1,14,-1
 1010 1120 l 9,15,-1
 1010 388 l 2,16,17
 1010 214 1010 214 888.5 97 c 128,-1,0
 767 -20 767 -20 595 -20 c 128,-1,1
EndSplineSet
Validated: 1
EndChar

StartChar: v
Encoding: 118 118 87
Width: 963
GlyphClass: 2
Flags: W
HStem: -20 21G<383.765 443.133> 1100 20G<116.082 175.143 866.526 925.111>
DStem2: 168 1120 5 1047 0.340186 -0.940358<13.1959 1025.75> 513 154 559 55 0.361528 0.932361<0 1027.98>
LayerCount: 2
Fore
SplineSet
401 -20 m 1,0,-1
 391 -20 l 1,1,-1
 5 1047 l 1,2,-1
 158 1120 l 1,3,-1
 168 1120 l 1,4,-1
 513 154 l 1,5,-1
 874 1120 l 1,6,-1
 884 1120 l 1,7,-1
 958 1084 l 1,8,-1
 559 55 l 1,9,-1
 401 -20 l 1,0,-1
EndSplineSet
Validated: 1
EndChar

StartChar: w
Encoding: 119 119 88
Width: 1840
GlyphClass: 2
Flags: W
HStem: -20 80<459.288 730.256 1110.15 1380.63> 1100 20G<308.025 360 958.025 1010 1608.02 1660>
VStem: 180 180<201.47 1039> 830 180<150.762 1039> 1480 180<201.47 1039>
CounterMasks: 1 38
LayerCount: 2
Fore
SplineSet
594.5 -20 m 128,-1,1
 423 -20 423 -20 301.5 97 c 128,-1,2
 180 214 180 214 180 388 c 2,3,-1
 180 1039 l 1,4,-1
 350 1120 l 1,5,-1
 360 1120 l 1,6,-1
 360 286 l 2,7,8
 360 187 360 187 428.5 123.5 c 128,-1,9
 497 60 497 60 595 60 c 128,-1,10
 693 60 693 60 761.5 123.5 c 128,-1,11
 830 187 830 187 830 286 c 2,12,-1
 830 1039 l 1,13,-1
 1000 1120 l 1,14,-1
 1010 1120 l 1,15,-1
 1010 286 l 2,16,17
 1010 187 1010 187 1078.5 123.5 c 128,-1,18
 1147 60 1147 60 1245 60 c 128,-1,19
 1343 60 1343 60 1411.5 123.5 c 128,-1,20
 1480 187 1480 187 1480 286 c 2,21,-1
 1480 1039 l 1,22,-1
 1650 1120 l 1,23,-1
 1660 1120 l 1,24,-1
 1660 388 l 2,25,26
 1660 214 1660 214 1538.5 97 c 128,-1,27
 1417 -20 1417 -20 1245 -20 c 0,28,29
 1076 -20 1076 -20 952 97 c 0,30,31
 935 113 935 113 920 131 c 1,32,33
 904 114 904 114 888 97 c 0,34,0
 766 -20 766 -20 594.5 -20 c 128,-1,1
EndSplineSet
Validated: 1
EndChar

StartChar: x
Encoding: 120 120 89
Width: 889
GlyphClass: 2
Flags: W
HStem: -20 21G<72.1429 138.111 682.778 747.353> 1100 20G<142.971 207.205 749.904 815.222>
DStem2: 195 1120 40 1051 0.520806 -0.853675<0 526.001 706.217 1233.59> 40 15 125 -20 0.547515 0.836796<17.2509 555.326 783.822 1320.51>
LayerCount: 2
Fore
SplineSet
125 -20 m 1,0,-1
 115 -20 l 1,1,-1
 40 15 l 1,2,-1
 367 516 l 1,3,-1
 40 1051 l 1,4,-1
 185 1120 l 1,5,-1
 195 1120 l 1,6,-1
 469 671 l 1,7,-1
 763 1120 l 1,8,-1
 773 1120 l 1,9,-1
 849 1084 l 1,10,-1
 522 585 l 1,11,-1
 849 48 l 1,12,-1
 705 -20 l 1,13,-1
 695 -20 l 1,14,-1
 420 430 l 1,15,-1
 125 -20 l 1,0,-1
EndSplineSet
Validated: 19457
EndChar

StartChar: y
Encoding: 121 121 90
Width: 1210
GlyphClass: 2
Flags: W
HStem: -410 80<354 729.814> -20 80<459.372 730.411> 1100 20G<308.025 360 958.025 1010>
VStem: 180 180<201.47 1039> 830 180<-188.53 69 150.762 1039>
LayerCount: 2
Fore
SplineSet
320 -410 m 1,0,-1
 320 -400 l 1,1,-1
 354 -330 l 1,2,-1
 595 -330 l 2,3,4
 693 -330 693 -330 761 -267 c 0,5,6
 830 -203 830 -203 830 -104 c 2,7,-1
 830 69 l 1,8,9
 727 -20 727 -20 595 -20 c 0,10,11
 423 -20 423 -20 301.5 97 c 128,-1,12
 180 214 180 214 180 388 c 2,13,-1
 180 1039 l 1,14,-1
 350 1120 l 1,15,-1
 360 1120 l 1,16,-1
 360 286 l 2,17,18
 360 187 360 187 428.5 123.5 c 128,-1,19
 497 60 497 60 595 60 c 128,-1,20
 693 60 693 60 761.5 123.5 c 128,-1,21
 830 187 830 187 830 286 c 2,22,-1
 830 1039 l 1,23,-1
 1000 1120 l 1,24,-1
 1010 1120 l 1,25,-1
 1010 -2 l 2,26,27
 1010 -176 1010 -176 888.5 -293 c 128,-1,28
 767 -410 767 -410 595 -410 c 2,29,-1
 320 -410 l 1,0,-1
EndSplineSet
Validated: 1
EndChar

StartChar: z
Encoding: 122 122 91
Width: 850
GlyphClass: 2
Flags: W
HStem: 0 80<262 777> 1020 80<103 589>
DStem2: 40 10 262 80 0.477572 0.878593<167.522 1149.57>
LayerCount: 2
Fore
SplineSet
40 0 m 1,0,-1
 40 10 l 1,1,-1
 589 1020 l 1,2,-1
 70 1020 l 1,3,-1
 70 1030 l 1,4,-1
 103 1100 l 1,5,-1
 810 1100 l 1,6,-1
 810 1090 l 1,7,-1
 262 80 l 1,8,-1
 810 80 l 1,9,-1
 810 70 l 1,10,-1
 777 0 l 1,11,-1
 40 0 l 1,0,-1
EndSplineSet
Validated: 19457
EndChar

StartChar: braceleft
Encoding: 123 123 92
Width: 830
GlyphClass: 2
Flags: W
HStem: -240 90<614.353 780> 710 90<88 274> 1660 90<613.847 780>
VStem: 274 200<43.3591 710 800 1466.64>
CounterMasks: 1 e0
LayerCount: 2
Fore
SplineSet
780 -240 m 1,0,1
 570 -240 570 -240 422 -99 c 128,-1,2
 274 42 274 42 274 254 c 2,3,-1
 274 710 l 1,4,-1
 50 710 l 1,5,-1
 50 720 l 1,6,-1
 88 800 l 1,7,-1
 274 800 l 1,8,-1
 274 1256 l 2,9,10
 274 1468 274 1468 422 1609 c 128,-1,11
 570 1750 570 1750 780 1750 c 1,12,-1
 780 1660 l 1,13,14
 654 1660 654 1660 564 1580 c 128,-1,15
 474 1500 474 1500 474 1372 c 2,16,-1
 474 138 l 2,17,18
 474 11 474 11 564 -69.5 c 128,-1,19
 654 -150 654 -150 780 -150 c 1,20,-1
 780 -240 l 1,0,1
EndSplineSet
Validated: 1
EndChar

StartChar: bar
Encoding: 124 124 93
Width: 650
GlyphClass: 2
Flags: W
VStem: 250 150<-134 1644>
LayerCount: 2
Fore
SplineSet
250 -200 m 1,0,-1
 250 1644 l 1,1,-1
 390 1710 l 1,2,-1
 400 1710 l 1,3,-1
 400 -134 l 1,4,-1
 260 -200 l 1,5,-1
 250 -200 l 1,0,-1
EndSplineSet
Validated: 1
EndChar

StartChar: braceright
Encoding: 125 125 94
Width: 830
GlyphClass: 2
Flags: W
HStem: -240 90<50 216.153> 710 90<556 742> 1660 90<50 215.647>
VStem: 356 200<43.3591 710 800 1466.64>
CounterMasks: 1 e0
LayerCount: 2
Fore
SplineSet
50 -240 m 1,0,-1
 50 -150 l 1,1,2
 176 -150 176 -150 266 -70 c 128,-1,3
 356 10 356 10 356 138 c 2,4,-1
 356 1372 l 2,5,6
 356 1499 356 1499 266 1579.5 c 128,-1,7
 176 1660 176 1660 50 1660 c 1,8,-1
 50 1750 l 1,9,10
 260 1750 260 1750 408 1609 c 128,-1,11
 556 1468 556 1468 556 1256 c 2,12,-1
 556 800 l 1,13,-1
 780 800 l 1,14,-1
 780 790 l 1,15,-1
 742 710 l 1,16,-1
 556 710 l 1,17,-1
 556 254 l 2,18,19
 556 42 556 42 408 -99 c 128,-1,20
 260 -240 260 -240 50 -240 c 1,0,-1
EndSplineSet
Validated: 1
EndChar

StartChar: asciitilde
Encoding: 126 126 95
Width: 1138
GlyphClass: 2
Flags: W
HStem: 576 127<682.406 868.861> 810 127<269.139 455.594>
VStem: 150 82<611 766.371> 906 82<746.629 902>
LayerCount: 2
Fore
SplineSet
406 937 m 0,0,1
 519 937 519 937 621 810 c 0,2,3
 708 703 708 703 781 703 c 0,4,5
 906 703 906 703 906 902 c 1,6,-1
 978 937 l 1,7,-1
 988 937 l 1,8,9
 988 576 988 576 732 576 c 0,10,11
 619 576 619 576 517 703 c 0,12,13
 430 810 430 810 357 810 c 0,14,15
 232 810 232 810 232 611 c 1,16,-1
 160 576 l 1,17,-1
 150 576 l 1,18,19
 150 937 150 937 406 937 c 0,0,1
EndSplineSet
Validated: 1
EndChar

StartChar: exclamdown
Encoding: 161 161 97
Width: 600
GlyphClass: 2
Flags: W
HStem: -430 21G<200 252.222> 875 245<216.097 383.903>
VStem: 180 240<912.129 1082.87> 200 200<-340 610>
LayerCount: 2
Fore
SplineSet
300 1120 m 128,-1,1
 350 1120 350 1120 385 1084 c 128,-1,2
 420 1048 420 1048 420 997.5 c 128,-1,3
 420 947 420 947 385 911 c 128,-1,4
 350 875 350 875 300 875 c 128,-1,5
 250 875 250 875 215 911 c 128,-1,6
 180 947 180 947 180 997.5 c 128,-1,7
 180 1048 180 1048 215 1084 c 128,-1,0
 250 1120 250 1120 300 1120 c 128,-1,1
210 -430 m 1,8,-1
 200 -430 l 1,9,-1
 200 610 l 1,10,-1
 390 700 l 1,11,-1
 400 700 l 1,12,-1
 400 -340 l 1,13,-1
 210 -430 l 1,8,-1
EndSplineSet
Validated: 1
EndChar

StartChar: cent
Encoding: 162 162 98
Width: 1070
GlyphClass: 2
Flags: W
VStem: 160 195<201.47 898.53> 525 100<-78 -10.5254 66 1034 1110.53 1178> 795 195<201.47 300>
CounterMasks: 1 e0
LayerCount: 2
Fore
SplineSet
625 -78 m 1,0,-1
 535 -120 l 1,1,-1
 525 -120 l 1,2,-1
 525 -17 l 1,3,4
 386 -2 386 -2 282 97 c 0,5,6
 160 214 160 214 160 388 c 2,7,-1
 160 712 l 2,8,9
 160 886 160 886 282 1003 c 0,10,11
 385 1103 385 1103 525 1117 c 1,12,-1
 525 1178 l 1,13,-1
 615 1220 l 1,14,-1
 625 1220 l 1,15,-1
 625 1117 l 1,16,17
 763 1102 763 1102 868 1003 c 0,18,19
 954 921 954 921 979 810 c 1,20,-1
 805 727 l 1,21,-1
 795 727 l 1,22,-1
 795 814 l 2,23,24
 794 912 794 912 736 976 c 0,25,26
 692 1024 692 1024 625 1036 c 1,27,-1
 625 64 l 1,28,29
 692 76 692 76 736 124 c 0,30,31
 794 188 794 188 795 286 c 2,32,-1
 795 300 l 1,33,-1
 980 388 l 1,34,-1
 990 388 l 1,35,36
 990 214 990 214 868 97 c 0,37,38
 765 -3 765 -3 625 -17 c 1,39,-1
 625 -78 l 1,0,-1
525 66 m 1,40,-1
 525 1034 l 1,41,42
 462 1020 462 1020 418 976 c 0,43,44
 355 914 355 914 355 814 c 2,45,-1
 355 286 l 2,46,47
 355 187 355 187 418 124 c 0,48,49
 462 80 462 80 525 66 c 1,40,-1
EndSplineSet
Validated: 1
EndChar

StartChar: sterling
Encoding: 163 163 99
Width: 1335
GlyphClass: 2
Flags: W
HStem: 0 90<188 300 500 1147> 645 90<189 300 500 877> 1462 68<592.239 831.016>
VStem: 300 200<90 645 735 1336.74> 915 208<1217.19 1351>
LayerCount: 2
Fore
SplineSet
150 0 m 1,0,-1
 150 10 l 1,1,-1
 188 90 l 1,2,-1
 300 90 l 1,3,-1
 300 645 l 1,4,-1
 151 645 l 1,5,-1
 151 655 l 1,6,-1
 189 735 l 1,7,-1
 300 735 l 1,8,-1
 300 1137 l 2,9,10
 300 1334 300 1334 424 1434 c 0,11,12
 542 1530 542 1530 715 1530 c 0,13,14
 883 1530 883 1530 1006 1434 c 0,15,16
 1101 1360 1101 1360 1123 1224 c 1,17,-1
 925 1130 l 1,18,-1
 915 1130 l 1,19,20
 915 1345 915 1345 861.5 1403.5 c 128,-1,21
 808 1462 808 1462 712 1462 c 128,-1,22
 616 1462 616 1462 558 1401 c 128,-1,23
 500 1340 500 1340 500 1137 c 2,24,-1
 500 735 l 1,25,-1
 915 735 l 1,26,-1
 915 725 l 1,27,-1
 877 645 l 1,28,-1
 500 645 l 1,29,-1
 500 90 l 1,30,-1
 1185 90 l 1,31,-1
 1185 80 l 1,32,-1
 1147 0 l 1,33,-1
 150 0 l 1,0,-1
EndSplineSet
Validated: 1
EndChar

StartChar: currency
Encoding: 164 164 100
Width: 1395
GlyphClass: 2
Flags: W
HStem: 241 90<542.036 850.04> 1179 90<543.21 849.165>
VStem: 192 192<540.917 969.267> 1008 192<542.101 968.811>
LayerCount: 2
Fore
SplineSet
696 1179 m 128,-1,1
 566 1179 566 1179 475 1075.5 c 128,-1,2
 384 972 384 972 384 755 c 128,-1,3
 384 538 384 538 475 434.5 c 128,-1,4
 566 331 566 331 696 331 c 128,-1,5
 826 331 826 331 917 434.5 c 128,-1,6
 1008 538 1008 538 1008 755 c 128,-1,7
 1008 972 1008 972 917 1075.5 c 128,-1,0
 826 1179 826 1179 696 1179 c 128,-1,1
696 1269 m 0,8,9
 858 1269 858 1269 982 1179 c 1,10,-1
 1059 1255 l 1,11,-1
 1238 1191 l 1,12,-1
 1245 1184 l 1,13,-1
 1110 1049 l 1,14,15
 1200 921 1200 921 1200 755 c 0,16,17
 1200 591 1200 591 1112 463 c 1,18,-1
 1245 330 l 1,19,-1
 1238 323 l 1,20,-1
 1059 259 l 1,21,-1
 985 332 l 1,22,23
 860 241 860 241 696 241 c 0,24,25
 527 241 527 241 399 338 c 1,26,-1
 336 275 l 1,27,-1
 157 339 l 1,28,-1
 150 346 l 1,29,-1
 275 471 l 1,30,31
 192 596 192 596 192 755 c 0,32,33
 192 922 192 922 283 1050 c 1,34,-1
 150 1184 l 1,35,-1
 157 1191 l 1,36,-1
 335 1255 l 1,37,-1
 411 1180 l 1,38,39
 535 1269 535 1269 696 1269 c 0,8,9
EndSplineSet
Validated: 1
EndChar

StartChar: yen
Encoding: 165 165 101
Width: 1310
GlyphClass: 2
Flags: W
HStem: -20 21G<555 607.222> 114 90<328 555 755 982> 314 90<328 555 755 982> 438 82<505.148 555 755 804.816> 1510 20G<307.778 360 1097.78 1150>
VStem: 160 200<713.359 1440> 555 200<70 114 204 314 404 447.575> 950 200<713.359 1440>
CounterMasks: 1 07
LayerCount: 2
Fore
SplineSet
565 -20 m 1,0,-1
 555 -20 l 1,1,-1
 555 114 l 1,2,-1
 290 114 l 1,3,-1
 290 124 l 1,4,-1
 328 204 l 1,5,-1
 555 204 l 1,6,-1
 555 314 l 1,7,-1
 290 314 l 1,8,-1
 290 324 l 1,9,-1
 328 404 l 1,10,-1
 555 404 l 1,11,-1
 555 438 l 1,12,13
 420 462 420 462 307 571 c 0,14,15
 160 712 160 712 160 924 c 2,16,-1
 160 1440 l 1,17,-1
 350 1530 l 1,18,-1
 360 1530 l 1,19,-1
 360 808 l 2,20,21
 360 681 360 681 449 600.5 c 128,-1,22
 538 520 538 520 654.5 520 c 128,-1,23
 771 520 771 520 860.5 600.5 c 128,-1,24
 950 681 950 681 950 808 c 2,25,-1
 950 1440 l 1,26,-1
 1140 1530 l 1,27,-1
 1150 1530 l 1,28,-1
 1150 924 l 2,29,30
 1150 712 1150 712 1002 571 c 0,31,32
 890 463 890 463 755 439 c 1,33,-1
 755 404 l 1,34,-1
 1020 404 l 1,35,-1
 1020 394 l 1,36,-1
 982 314 l 1,37,-1
 755 314 l 1,38,-1
 755 204 l 1,39,-1
 1020 204 l 1,40,-1
 1020 194 l 1,41,-1
 982 114 l 1,42,-1
 755 114 l 1,43,-1
 755 70 l 1,44,-1
 565 -20 l 1,0,-1
EndSplineSet
Validated: 1
EndChar

StartChar: brokenbar
Encoding: 166 166 102
Width: 650
GlyphClass: 2
Flags: W
VStem: 250 150<-134 587 915 1644>
LayerCount: 2
Fore
SplineSet
250 -200 m 1,0,-1
 250 587 l 1,1,-1
 390 653 l 1,2,-1
 400 653 l 1,3,-1
 400 -134 l 1,4,-1
 260 -200 l 1,5,-1
 250 -200 l 1,0,-1
390 1710 m 1,6,-1
 400 1710 l 1,7,-1
 400 915 l 1,8,-1
 260 849 l 1,9,-1
 250 849 l 1,10,-1
 250 1644 l 1,11,-1
 390 1710 l 1,6,-1
EndSplineSet
Validated: 1
EndChar

StartChar: section
Encoding: 167 167 103
Width: 1090
GlyphClass: 2
Flags: W
HStem: -20 80<450.698 637.836> 1450 80<452.164 639.302>
VStem: 150 190<611.132 927.366> 218 183<1110.98 1385.84> 689 183<124.157 399.022> 750 190<582.634 898.868>
LayerCount: 2
Fore
SplineSet
540 -20 m 0,0,1
 403 -20 403 -20 312 64 c 0,2,3
 246 125 246 125 224 209 c 1,4,-1
 399 292 l 1,5,-1
 409 292 l 1,6,7
 409 151 409 151 445.5 105.5 c 128,-1,8
 482 60 482 60 540.5 60 c 128,-1,9
 599 60 599 60 642 102 c 0,10,11
 689 147 689 147 689 273 c 0,12,13
 689 435 689 435 511 453 c 0,14,15
 329 472 329 472 243 547 c 0,16,17
 150 628 150 628 150 761 c 0,18,19
 150 901 150 901 242 999 c 1,20,-1
 364 923 l 1,21,22
 340 862 340 862 340 758 c 0,23,24
 340 559 340 559 544 537 c 0,25,26
 703 520 703 520 780 456 c 0,27,28
 872 379 872 379 872 268 c 0,29,30
 872 147 872 147 772 62 c 0,31,32
 676 -20 676 -20 540 -20 c 0,0,1
550 1530 m 0,33,34
 687 1530 687 1530 778 1446 c 0,35,36
 844 1385 844 1385 866 1301 c 1,37,-1
 691 1218 l 1,38,-1
 681 1218 l 1,39,40
 681 1359 681 1359 644.5 1404.5 c 128,-1,41
 608 1450 608 1450 549.5 1450 c 128,-1,42
 491 1450 491 1450 448 1408 c 0,43,44
 401 1363 401 1363 401 1237 c 0,45,46
 401 1075 401 1075 579 1057 c 0,47,48
 761 1038 761 1038 847 963 c 0,49,50
 940 882 940 882 940 749 c 0,51,52
 940 609 940 609 848 511 c 1,53,-1
 726 587 l 1,54,55
 750 648 750 648 750 752 c 0,56,57
 750 951 750 951 546 973 c 0,58,59
 387 990 387 990 310 1054 c 0,60,61
 218 1131 218 1131 218 1242 c 0,62,63
 218 1363 218 1363 318 1448 c 0,64,65
 414 1530 414 1530 550 1530 c 0,33,34
EndSplineSet
Validated: 1
EndChar

StartChar: dieresis
Encoding: 168 168 104
Width: 600
GlyphClass: 2
Flags: W
HStem: 1230 227<84.0344 239.966 361.004 516.996>
VStem: 50 224<1264.55 1422.45> 328 222<1265.07 1422.93>
LayerCount: 2
Fore
SplineSet
439 1458 m 128,-1,1
 486 1458 486 1458 518 1424 c 128,-1,2
 550 1390 550 1390 550 1344 c 128,-1,3
 550 1298 550 1298 518 1264 c 128,-1,4
 486 1230 486 1230 439 1230 c 128,-1,5
 392 1230 392 1230 360 1264 c 128,-1,6
 328 1298 328 1298 328 1344 c 128,-1,7
 328 1390 328 1390 360 1424 c 128,-1,0
 392 1458 392 1458 439 1458 c 128,-1,1
162 1457 m 128,-1,9
 208 1457 208 1457 241 1423.5 c 128,-1,10
 274 1390 274 1390 274 1343.5 c 128,-1,11
 274 1297 274 1297 241 1263.5 c 128,-1,12
 208 1230 208 1230 162 1230 c 128,-1,13
 116 1230 116 1230 83 1263.5 c 128,-1,14
 50 1297 50 1297 50 1343.5 c 128,-1,15
 50 1390 50 1390 83 1423.5 c 128,-1,8
 116 1457 116 1457 162 1457 c 128,-1,9
EndSplineSet
Validated: 1
EndChar

StartChar: copyright
Encoding: 169 169 105
Width: 1401
GlyphClass: 2
Flags: W
HStem: 386 48<545.181 850.676> 547 65<619.128 793.413> 1294 66<615.452 796.189> 1478 52<544.168 856.773>
VStem: 150 50<794.694 1125.05> 434 145<663.798 1244.8> 833 147<666.056 779 1132.49 1241.46> 1200 51<785.868 1126.58>
LayerCount: 2
Fore
SplineSet
708 1360 m 0,0,1
 824 1360 824 1360 900 1285 c 0,2,3
 959 1227 959 1227 977 1138 c 1,4,-1
 850 1088 l 1,5,-1
 835 1088 l 1,6,-1
 835 1171 l 2,7,8
 835 1225 835 1225 799 1259.5 c 128,-1,9
 763 1294 763 1294 707 1294 c 128,-1,10
 651 1294 651 1294 614 1260 c 0,11,12
 579 1228 579 1228 579 1171 c 2,13,-1
 579 736 l 2,14,15
 579 681 579 681 615.5 646.5 c 128,-1,16
 652 612 652 612 706 612 c 128,-1,17
 760 612 760 612 796.5 646.5 c 128,-1,18
 833 681 833 681 833 736 c 2,19,-1
 833 779 l 1,20,-1
 970 833 l 1,21,-1
 980 833 l 1,22,-1
 980 813 l 2,23,24
 980 699 980 699 899.5 623 c 128,-1,25
 819 547 819 547 706.5 547 c 128,-1,26
 594 547 594 547 514 623 c 128,-1,27
 434 699 434 699 434 812 c 2,28,-1
 434 1095 l 2,29,30
 434 1211 434 1211 514 1285 c 0,31,32
 596 1360 596 1360 708 1360 c 0,0,1
701 1530 m 0,33,34
 943 1530 943 1530 1099 1357 c 0,35,36
 1251 1188 1251 1188 1251 953 c 0,37,38
 1251 701 1251 701 1090 549 c 0,39,40
 919 386 919 386 699 386 c 0,41,42
 476 386 476 386 311 549 c 0,43,44
 150 708 150 708 150 953 c 0,45,46
 150 1197 150 1197 308 1362 c 0,47,48
 469 1530 469 1530 701 1530 c 0,33,34
699 1478 m 0,49,50
 499 1478 499 1478 350 1330 c 0,51,52
 200 1181 200 1181 200 953 c 0,53,54
 200 750 200 750 347 587 c 0,55,56
 485 434 485 434 701 434 c 0,57,58
 902 434 902 434 1054 587 c 0,59,60
 1200 734 1200 734 1200 953 c 0,61,62
 1200 1185 1200 1185 1056 1327 c 0,63,64
 903 1478 903 1478 699 1478 c 0,49,50
EndSplineSet
Validated: 1
EndChar

StartChar: ordfeminine
Encoding: 170 170 106
Width: 554
GlyphClass: 2
Flags: W
HStem: 790 120<102 452> 959 60<200.97 340.058> 1318 62<200.236 339.89> 1505 65<172 337.841>
VStem: 50 127<1044.79 1292.21> 361 130<1044.79 1292.21 1356 1479.61>
LayerCount: 2
Fore
SplineSet
177 1112 m 2,0,1
 177 1069 177 1069 202.5 1044 c 128,-1,2
 228 1019 228 1019 269 1019 c 128,-1,3
 310 1019 310 1019 338 1044 c 128,-1,4
 366 1069 366 1069 366 1112 c 2,5,-1
 366 1225 l 2,6,7
 366 1268 366 1268 338 1293 c 128,-1,8
 310 1318 310 1318 269 1318 c 128,-1,9
 228 1318 228 1318 202.5 1293 c 128,-1,10
 177 1268 177 1268 177 1225 c 2,11,-1
 177 1112 l 2,0,1
172 1570 m 1,12,-1
 264 1570 l 2,13,14
 357 1570 357 1570 424 1505 c 128,-1,15
 491 1440 491 1440 491 1346 c 2,16,-1
 491 997 l 1,17,-1
 371 949 l 1,18,-1
 361 949 l 1,19,-1
 361 983 l 1,20,21
 318 959 318 959 262 959 c 0,22,23
 157 959 157 959 103.5 1021.5 c 128,-1,24
 50 1084 50 1084 50 1171 c 128,-1,25
 50 1258 50 1258 111.5 1319 c 128,-1,26
 173 1380 173 1380 246 1380 c 128,-1,27
 319 1380 319 1380 361 1356 c 1,28,-1
 361 1417 l 2,29,30
 361 1453 361 1453 332 1479 c 128,-1,31
 303 1505 303 1505 264 1505 c 2,32,-1
 146 1505 l 1,33,-1
 146 1515 l 1,34,-1
 172 1570 l 1,12,-1
50 790 m 1,35,-1
 50 800 l 1,36,-1
 102 910 l 1,37,-1
 504 910 l 1,38,-1
 504 900 l 1,39,-1
 452 790 l 1,40,-1
 50 790 l 1,35,-1
EndSplineSet
Validated: 1
EndChar

StartChar: guillemotleft
Encoding: 171 171 107
Width: 1100
GlyphClass: 2
Flags: W
DStem2: 278 829 150 755 0.51032 -0.859984<0 511.114> 150 755 278 829 0.506484 0.862249<128.636 570.601> 630 829 502 755 0.51032 -0.859984<0 511.114> 502 755 630 829 0.506484 0.862249<128.636 570.601>
LayerCount: 2
Fore
SplineSet
502 755 m 1,0,-1
 791 1247 l 1,1,-1
 801 1247 l 1,2,-1
 861 1218 l 1,3,-1
 630 829 l 1,4,-1
 900 374 l 1,5,-1
 772 313 l 1,6,-1
 762 313 l 1,7,-1
 502 755 l 1,0,-1
150 755 m 1,8,-1
 439 1247 l 1,9,-1
 449 1247 l 1,10,-1
 509 1218 l 1,11,-1
 278 829 l 1,12,-1
 548 374 l 1,13,-1
 420 313 l 1,14,-1
 410 313 l 1,15,-1
 150 755 l 1,8,-1
EndSplineSet
Validated: 1
EndChar

StartChar: logicalnot
Encoding: 172 172 108
Width: 1200
GlyphClass: 2
Flags: W
HStem: 680 150<216 864>
DStem2: 738 418 858 418 0.430979 0.902362<51.7175 290.722>
LayerCount: 2
Fore
SplineSet
216 830 m 1,0,-1
 1050 830 l 1,1,-1
 1050 820 l 1,2,-1
 858 418 l 1,3,-1
 738 418 l 1,4,-1
 864 680 l 1,5,-1
 150 680 l 1,6,-1
 150 690 l 1,7,-1
 216 830 l 1,0,-1
EndSplineSet
Validated: 1
EndChar

StartChar: uni00AD
Encoding: 173 173 109
Width: 1200
GlyphClass: 2
Flags: W
HStem: 680 150<216 984>
LayerCount: 2
Fore
SplineSet
216 830 m 5,0,-1
 1050 830 l 5,1,-1
 1050 820 l 5,2,-1
 984 680 l 5,3,-1
 150 680 l 5,4,-1
 150 690 l 5,5,-1
 216 830 l 5,0,-1
EndSplineSet
Validated: 1
EndChar

StartChar: registered
Encoding: 174 174 110
Width: 1401
GlyphClass: 2
Flags: W
HStem: 386 48<545.181 850.676> 817 65<604 698> 1284 65<604 792.953> 1478 52<544.168 856.773>
VStem: 150 50<794.694 1125.05> 464 140<598 817 882 1284> 837 146<932.918 1232.58> 1200 51<785.868 1126.58>
DStem2: 847 849 698 817 0.575493 -0.817806<0 270.573>
LayerCount: 2
Fore
SplineSet
532 1349 m 1,0,-1
 716 1349 l 2,1,2
 831 1349 831 1349 907 1271 c 128,-1,3
 983 1193 983 1193 983 1082.5 c 128,-1,4
 983 972 983 972 907 895 c 0,5,6
 879 867 879 867 847 849 c 1,7,-1
 1022 600 l 1,8,-1
 898 547 l 1,9,-1
 888 547 l 1,10,-1
 698 817 l 1,11,-1
 604 817 l 1,12,-1
 604 598 l 1,13,-1
 474 547 l 1,14,-1
 464 547 l 1,15,-1
 464 1318 l 1,16,-1
 532 1349 l 1,0,-1
604 882 m 1,17,-1
 713 882 l 2,18,19
 767 882 767 882 802 923 c 128,-1,20
 837 964 837 964 837 1083 c 0,21,22
 837 1201 837 1201 802 1242.5 c 128,-1,23
 767 1284 767 1284 713 1284 c 2,24,-1
 604 1284 l 1,25,-1
 604 882 l 1,17,-1
701 1530 m 0,26,27
 943 1530 943 1530 1099 1357 c 0,28,29
 1251 1188 1251 1188 1251 953 c 0,30,31
 1251 701 1251 701 1090 549 c 0,32,33
 919 386 919 386 699 386 c 0,34,35
 476 386 476 386 311 549 c 0,36,37
 150 708 150 708 150 953 c 0,38,39
 150 1197 150 1197 308 1362 c 0,40,41
 469 1530 469 1530 701 1530 c 0,26,27
699 1478 m 0,42,43
 499 1478 499 1478 350 1330 c 0,44,45
 200 1181 200 1181 200 953 c 0,46,47
 200 750 200 750 347 587 c 0,48,49
 485 434 485 434 701 434 c 0,50,51
 902 434 902 434 1054 587 c 0,52,53
 1200 734 1200 734 1200 953 c 0,54,55
 1200 1185 1200 1185 1056 1327 c 0,56,57
 903 1478 903 1478 699 1478 c 0,42,43
EndSplineSet
Validated: 1
EndChar

StartChar: macron
Encoding: 175 175 111
Width: 600
GlyphClass: 2
Flags: W
HStem: 1299 130<107 493>
VStem: 50 500
LayerCount: 2
Fore
SplineSet
107 1429 m 1,0,-1
 550 1429 l 1,1,-1
 550 1419 l 1,2,-1
 493 1299 l 1,3,-1
 50 1299 l 1,4,-1
 50 1309 l 1,5,-1
 107 1429 l 1,0,-1
EndSplineSet
Validated: 1
EndChar

StartChar: degree
Encoding: 176 176 112
Width: 650
GlyphClass: 2
Flags: W
HStem: 1016 56<244.34 405.66> 1514 56<244.34 405.66>
VStem: 50 131<1142.53 1443.47> 469 131<1142.53 1443.47>
LayerCount: 2
Fore
SplineSet
325 1514 m 128,-1,1
 264 1514 264 1514 222.5 1465 c 128,-1,2
 181 1416 181 1416 181 1293 c 152,-1,3
 181 1170 181 1170 222.5 1121 c 128,-1,4
 264 1072 264 1072 325 1072 c 128,-1,5
 386 1072 386 1072 427.5 1121 c 128,-1,6
 469 1170 469 1170 469 1293 c 152,-1,7
 469 1416 469 1416 427.5 1465 c 128,-1,0
 386 1514 386 1514 325 1514 c 128,-1,1
325 1570 m 128,-1,9
 439 1570 439 1570 519.5 1488.5 c 128,-1,10
 600 1407 600 1407 600 1293 c 152,-1,11
 600 1179 600 1179 519.5 1097.5 c 128,-1,12
 439 1016 439 1016 325 1016 c 128,-1,13
 211 1016 211 1016 130.5 1097.5 c 128,-1,14
 50 1179 50 1179 50 1293 c 152,-1,15
 50 1407 50 1407 130.5 1488.5 c 128,-1,8
 211 1570 211 1570 325 1570 c 128,-1,9
EndSplineSet
Validated: 1
EndChar

StartChar: plusminus
Encoding: 177 177 113
Width: 1200
GlyphClass: 2
Flags: W
HStem: 275 150<216 984> 858 150<216 525 675 984>
VStem: 525 150<549 858 1008 1317>
LayerCount: 2
Fore
SplineSet
216 425 m 1,0,-1
 1050 425 l 1,1,-1
 1050 415 l 1,2,-1
 984 275 l 1,3,-1
 150 275 l 1,4,-1
 150 285 l 1,5,-1
 216 425 l 1,0,-1
525 1317 m 1,6,-1
 665 1383 l 1,7,-1
 675 1383 l 1,8,-1
 675 1008 l 1,9,-1
 1050 1008 l 1,10,-1
 1050 998 l 1,11,-1
 984 858 l 1,12,-1
 675 858 l 1,13,-1
 675 549 l 1,14,-1
 535 483 l 1,15,-1
 525 483 l 1,16,-1
 525 858 l 1,17,-1
 150 858 l 1,18,-1
 150 868 l 1,19,-1
 216 1008 l 1,20,-1
 525 1008 l 1,21,-1
 525 1317 l 1,6,-1
EndSplineSet
Validated: 1
EndChar

StartChar: uni00B2
Encoding: 178 178 114
Width: 651
VWidth: 1406
GlyphClass: 2
Flags: W
HStem: 764 132<213 554> 1507 63<240.258 405.57>
VStem: 55 142<1219.35 1456.82> 451 150<1164.5 1456.61>
LayerCount: 2
Fore
SplineSet
328 1570 m 128,-1,1
 454 1570 454 1570 526.5 1494 c 128,-1,2
 599 1418 599 1418 599 1309 c 0,3,4
 599 1153 599 1153 431 1041 c 2,5,-1
 213 896 l 1,6,-1
 601 895 l 1,7,-1
 601 885 l 1,8,-1
 554 764 l 1,9,-1
 50 764 l 1,10,-1
 50 774 l 1,11,-1
 94 887 l 1,12,-1
 320 1057 l 2,13,14
 451 1156 451 1156 451 1344 c 0,15,16
 451 1424 451 1424 418 1463 c 0,17,18
 382 1507 382 1507 324 1507 c 0,19,20
 267 1507 267 1507 230 1466 c 0,21,22
 197 1429 197 1429 197 1351.5 c 128,-1,23
 197 1274 197 1274 222 1234 c 1,24,-1
 103 1181 l 1,25,-1
 93 1181 l 1,26,27
 55 1252 55 1252 55 1333 c 0,28,29
 55 1415 55 1415 129 1493 c 0,30,0
 202 1570 202 1570 328 1570 c 128,-1,1
EndSplineSet
Validated: 1
EndChar

StartChar: uni00B3
Encoding: 179 179 115
Width: 643
VWidth: 1396
GlyphClass: 2
Flags: W
HStem: 774 67<235.979 407.936> 1493 67<135 377>
VStem: 50 145<890.621 1014.42> 450 143<887.105 1176.07>
DStem2: 240 1249 396 1271 0.504799 0.863237<97.7399 279.787>
LayerCount: 2
Fore
SplineSet
135 1560 m 1,0,-1
 565 1560 l 1,1,-1
 396 1271 l 1,2,3
 472 1257 472 1257 528 1200 c 0,4,5
 593 1133 593 1133 593 1035 c 0,6,7
 593 927 593 927 519 850 c 0,8,9
 446 774 446 774 321.5 774 c 128,-1,10
 197 774 197 774 131 844 c 0,11,12
 64 915 64 915 50 1009 c 1,13,-1
 185 1060 l 1,14,-1
 195 1060 l 1,15,-1
 195 976 l 2,16,17
 195 919 195 919 230 880 c 128,-1,18
 265 841 265 841 322.5 841 c 128,-1,19
 380 841 380 841 415 881 c 0,20,21
 450 922 450 922 450 1037 c 0,22,23
 450 1145 450 1145 421 1184 c 0,24,25
 394 1222 394 1222 334 1222 c 0,26,27
 299 1222 299 1222 269 1214 c 1,28,-1
 240 1249 l 1,29,-1
 377 1493 l 1,30,-1
 108 1493 l 1,31,-1
 108 1503 l 1,32,-1
 135 1560 l 1,0,-1
EndSplineSet
Validated: 1
EndChar

StartChar: acute
Encoding: 180 180 116
Width: 377
GlyphClass: 2
Flags: W
HStem: 1160 367
VStem: 50 277
DStem2: 50 1216 178 1160 0.427336 0.904093<4.06987 343.991>
LayerCount: 2
Fore
SplineSet
207 1527 m 1,0,-1
 327 1470 l 1,1,-1
 178 1160 l 1,2,-1
 168 1160 l 1,3,-1
 50 1216 l 1,4,-1
 197 1527 l 1,5,-1
 207 1527 l 1,0,-1
EndSplineSet
Validated: 1
EndChar

StartChar: uni00B5
Encoding: 181 181 117
Width: 1190
GlyphClass: 2
Flags: W
HStem: -430 21G<180 231.975> -20 80<459.589 730.628> 1100 20G<308.025 360 958.025 1010>
VStem: 180 180<-349 49 150.762 1039> 830 180<201.47 1039>
LayerCount: 2
Fore
SplineSet
180 -430 m 1,0,-1
 180 1039 l 1,1,-1
 350 1120 l 1,2,-1
 360 1120 l 1,3,-1
 360 286 l 2,4,5
 360 187 360 187 428.5 123.5 c 128,-1,6
 497 60 497 60 595 60 c 128,-1,7
 693 60 693 60 761.5 123.5 c 128,-1,8
 830 187 830 187 830 286 c 2,9,-1
 830 1039 l 1,10,-1
 1000 1120 l 1,11,-1
 1010 1120 l 1,12,-1
 1010 388 l 2,13,14
 1010 214 1010 214 888.5 97 c 128,-1,15
 767 -20 767 -20 595 -20 c 0,16,17
 463 -20 463 -20 360 49 c 1,18,-1
 360 -349 l 1,19,-1
 190 -430 l 1,20,-1
 180 -430 l 1,0,-1
EndSplineSet
Validated: 1
EndChar

StartChar: paragraph
Encoding: 182 182 118
Width: 1180
GlyphClass: 2
Flags: W
HStem: -20 21G<780 832.857> 548 982<374.128 755.872>
VStem: 780 70<8 604> 914 66<70 1138.19>
LayerCount: 2
Fore
SplineSet
790 -20 m 1,0,-1
 780 -20 l 1,1,-1
 780 604 l 1,2,3
 687 548 687 548 565 548 c 0,4,5
 393 548 393 548 271.5 665 c 128,-1,6
 150 782 150 782 150 956 c 2,7,-1
 150 1122 l 2,8,9
 150 1296 150 1296 271.5 1413 c 128,-1,10
 393 1530 393 1530 565 1530 c 128,-1,11
 737 1530 737 1530 858.5 1413 c 128,-1,12
 980 1296 980 1296 980 1122 c 2,13,-1
 980 70 l 1,14,-1
 914 39 l 1,15,-1
 914 1140 l 1,16,-1
 850 1110 l 1,17,-1
 850 8 l 1,18,-1
 790 -20 l 1,0,-1
EndSplineSet
Validated: 1
EndChar

StartChar: periodcentered
Encoding: 183 183 119
Width: 340
GlyphClass: 2
Flags: W
HStem: 632 245<86.0974 253.903>
VStem: 50 240<669.129 839.871>
LayerCount: 2
Fore
SplineSet
170 877 m 128,-1,1
 220 877 220 877 255 841 c 128,-1,2
 290 805 290 805 290 754.5 c 128,-1,3
 290 704 290 704 255 668 c 128,-1,4
 220 632 220 632 170 632 c 128,-1,5
 120 632 120 632 85 668 c 128,-1,6
 50 704 50 704 50 754.5 c 128,-1,7
 50 805 50 805 85 841 c 128,-1,0
 120 877 120 877 170 877 c 128,-1,1
EndSplineSet
Validated: 1
EndChar

StartChar: cedilla
Encoding: 184 184 120
Width: 420
GlyphClass: 2
Flags: W
HStem: -410 130<107 197.422>
VStem: 156 103<-61.7314 0> 222 148<-257.261 -86.9303>
LayerCount: 2
Fore
SplineSet
50 -410 m 1,0,-1
 50 -400 l 1,1,-1
 107 -280 l 1,2,3
 222 -264 222 -264 222 -173 c 0,4,5
 222 -100 222 -100 156 -76 c 1,6,-1
 156 0 l 1,7,-1
 259 0 l 1,8,-1
 259 -40 l 1,9,10
 370 -83 370 -83 370 -187 c 0,11,12
 370 -410 370 -410 50 -410 c 1,0,-1
EndSplineSet
Validated: 1
EndChar

StartChar: uni00B9
Encoding: 185 185 121
Width: 412
VWidth: 1401
GlyphClass: 2
Flags: W
VStem: 172 140<787 1449>
DStem2: 50 1460 50 1391 0.916491 0.400056<0 107.411>
LayerCount: 2
Fore
SplineSet
302 1570 m 1,0,-1
 312 1570 l 1,1,-1
 312 787 l 1,2,-1
 182 736 l 1,3,-1
 172 736 l 1,4,-1
 172 1449 l 1,5,-1
 50 1391 l 1,6,-1
 50 1460 l 1,7,-1
 302 1570 l 1,0,-1
EndSplineSet
Validated: 1
EndChar

StartChar: ordmasculine
Encoding: 186 186 122
Width: 554
GlyphClass: 2
Flags: W
HStem: 790 120<102 452> 960 60<207.005 346.995> 1509 61<207.223 347.151>
VStem: 50 130<1049.72 1480.27> 374 130<1049.09 1479.91>
LayerCount: 2
Fore
SplineSet
50 790 m 1,0,-1
 50 800 l 1,1,-1
 102 910 l 1,2,-1
 504 910 l 1,3,-1
 504 900 l 1,4,-1
 452 790 l 1,5,-1
 50 790 l 1,0,-1
277 1509 m 0,6,7
 235 1509 235 1509 208 1483 c 0,8,9
 180 1456 180 1456 180 1416 c 2,10,-1
 180 1113 l 2,11,12
 180 1073 180 1073 208 1046 c 0,13,14
 235 1020 235 1020 277 1020 c 128,-1,15
 319 1020 319 1020 346 1046 c 0,16,17
 374 1073 374 1073 374 1113 c 2,18,-1
 374 1416 l 2,19,20
 374 1458 374 1458 346 1483 c 0,21,22
 315 1509 315 1509 277 1509 c 0,6,7
278 1570 m 0,23,24
 371 1570 371 1570 438 1505 c 0,25,26
 504 1441 504 1441 504 1346 c 2,27,-1
 504 1183 l 2,28,29
 504 1088 504 1088 437.5 1024 c 128,-1,30
 371 960 371 960 277 960 c 128,-1,31
 183 960 183 960 116.5 1024.5 c 128,-1,32
 50 1089 50 1089 50 1183 c 2,33,-1
 50 1346 l 2,34,35
 50 1440 50 1440 117 1506 c 0,36,37
 183 1570 183 1570 278 1570 c 0,23,24
EndSplineSet
Validated: 1
EndChar

StartChar: guillemotright
Encoding: 187 187 123
Width: 1100
GlyphClass: 2
Flags: W
DStem2: 338 1197 200 1136 0.51032 -0.859984<0 511.114> 239 292 309 263 0.506484 0.862249<10.4486 452.413> 690 1197 552 1136 0.51032 -0.859984<0 511.114> 591 292 661 263 0.506484 0.862249<10.4486 452.413>
LayerCount: 2
Fore
SplineSet
598 755 m 1,0,-1
 309 263 l 1,1,-1
 299 263 l 1,2,-1
 239 292 l 1,3,-1
 470 681 l 1,4,-1
 200 1136 l 1,5,-1
 328 1197 l 1,6,-1
 338 1197 l 1,7,-1
 598 755 l 1,0,-1
950 755 m 1,8,-1
 661 263 l 1,9,-1
 651 263 l 1,10,-1
 591 292 l 1,11,-1
 822 681 l 1,12,-1
 552 1136 l 1,13,-1
 680 1197 l 1,14,-1
 690 1197 l 1,15,-1
 950 755 l 1,8,-1
EndSplineSet
Validated: 1
EndChar

StartChar: onequarter
Encoding: 188 188 124
Width: 1572
VWidth: 1401
GlyphClass: 2
Flags: W
HStem: -20 21G<413.032 473.341 1206 1266.98> 180 66<938 1206 1346 1396> 1510 20G<356.182 412 1011.67 1072.29>
VStem: 272 140<747 1409> 1206 140<31 180 246 639>
DStem2: 150 1420 150 1351 0.916491 0.400056<0 107.411> 327 42 464 -20 0.423185 0.906043<1.80173 1641.88> 820 190 938 246 0.562937 0.8265<112.711 588.392>
LayerCount: 2
Fore
SplineSet
402 1530 m 1,0,-1
 412 1530 l 1,1,-1
 412 747 l 1,2,-1
 282 696 l 1,3,-1
 272 696 l 1,4,-1
 272 1409 l 1,5,-1
 150 1351 l 1,6,-1
 150 1420 l 1,7,-1
 402 1530 l 1,0,-1
454 -20 m 1,8,-1
 327 42 l 1,9,-1
 1021 1530 l 1,10,-1
 1031 1530 l 1,11,-1
 1159 1468 l 1,12,-1
 464 -20 l 1,13,-1
 454 -20 l 1,8,-1
938 246 m 1,14,-1
 1206 246 l 1,15,-1
 1206 639 l 1,16,-1
 938 246 l 1,14,-1
1216 -20 m 1,17,-1
 1206 -20 l 1,18,-1
 1206 180 l 1,19,-1
 820 180 l 1,20,-1
 820 190 l 1,21,-1
 1213 767 l 1,22,-1
 1336 815 l 1,23,-1
 1346 815 l 1,24,-1
 1346 246 l 1,25,-1
 1422 246 l 1,26,-1
 1422 236 l 1,27,-1
 1396 180 l 1,28,-1
 1346 180 l 1,29,-1
 1346 31 l 1,30,-1
 1216 -20 l 1,17,-1
EndSplineSet
Validated: 1
EndChar

StartChar: onehalf
Encoding: 189 189 125
Width: 1718
VWidth: 1401
GlyphClass: 2
Flags: W
HStem: -20 21G<413.032 473.341> 0 132<1180 1521> 743 63<1207.26 1372.57> 1510 20G<356.182 412 1011.67 1072.29>
VStem: 272 140<747 1409> 1022 142<455.345 692.82> 1418 150<400.496 692.609>
DStem2: 150 1420 150 1351 0.916491 0.400056<0 107.411> 327 42 464 -20 0.423185 0.906043<1.80173 1641.88>
LayerCount: 2
Fore
SplineSet
1295 806 m 128,-1,1
 1421 806 1421 806 1493.5 730 c 128,-1,2
 1566 654 1566 654 1566 545 c 0,3,4
 1566 389 1566 389 1398 277 c 2,5,-1
 1180 132 l 1,6,-1
 1568 131 l 1,7,-1
 1568 121 l 1,8,-1
 1521 0 l 1,9,-1
 1017 0 l 1,10,-1
 1017 10 l 1,11,-1
 1061 123 l 1,12,-1
 1287 293 l 2,13,14
 1418 392 1418 392 1418 580 c 0,15,16
 1418 660 1418 660 1385 699 c 0,17,18
 1349 743 1349 743 1291 743 c 0,19,20
 1234 743 1234 743 1197 702 c 0,21,22
 1164 665 1164 665 1164 587.5 c 128,-1,23
 1164 510 1164 510 1189 470 c 1,24,-1
 1070 417 l 1,25,-1
 1060 417 l 1,26,27
 1022 488 1022 488 1022 569 c 0,28,29
 1022 651 1022 651 1096 729 c 0,30,0
 1169 806 1169 806 1295 806 c 128,-1,1
402 1530 m 1,31,-1
 412 1530 l 1,32,-1
 412 747 l 1,33,-1
 282 696 l 1,34,-1
 272 696 l 1,35,-1
 272 1409 l 1,36,-1
 150 1351 l 1,37,-1
 150 1420 l 1,38,-1
 402 1530 l 1,31,-1
454 -20 m 1,39,-1
 327 42 l 1,40,-1
 1021 1530 l 1,41,-1
 1031 1530 l 1,42,-1
 1159 1468 l 1,43,-1
 464 -20 l 1,44,-1
 454 -20 l 1,39,-1
EndSplineSet
Validated: 1
EndChar

StartChar: threequarters
Encoding: 190 190 126
Width: 1796
VWidth: 1401
GlyphClass: 2
Flags: W
HStem: -20 21G<637.032 697.341 1430 1490.98> 180 66<1162 1430 1570 1620> 744 67<335.979 507.936> 1463 67<235 477>
VStem: 150 145<860.621 984.416> 550 143<857.105 1146.07> 1430 140<31 180 246 639>
DStem2: 340 1219 496 1241 0.504799 0.863237<97.7399 279.787> 551 42 688 -20 0.423185 0.906043<1.80173 1641.88> 1044 190 1162 246 0.562937 0.8265<112.711 588.392>
LayerCount: 2
Fore
SplineSet
235 1530 m 1,0,-1
 665 1530 l 1,1,-1
 496 1241 l 1,2,3
 572 1227 572 1227 628 1170 c 0,4,5
 693 1103 693 1103 693 1005 c 0,6,7
 693 897 693 897 619 820 c 0,8,9
 546 744 546 744 421.5 744 c 128,-1,10
 297 744 297 744 231 814 c 0,11,12
 164 885 164 885 150 979 c 1,13,-1
 285 1030 l 1,14,-1
 295 1030 l 1,15,-1
 295 946 l 2,16,17
 295 889 295 889 330 850 c 128,-1,18
 365 811 365 811 422.5 811 c 128,-1,19
 480 811 480 811 515 851 c 0,20,21
 550 892 550 892 550 1007 c 0,22,23
 550 1115 550 1115 521 1154 c 0,24,25
 494 1192 494 1192 434 1192 c 0,26,27
 399 1192 399 1192 369 1184 c 1,28,-1
 340 1219 l 1,29,-1
 477 1463 l 1,30,-1
 208 1463 l 1,31,-1
 208 1473 l 1,32,-1
 235 1530 l 1,0,-1
1162 246 m 1,33,-1
 1430 246 l 1,34,-1
 1430 639 l 1,35,-1
 1162 246 l 1,33,-1
1440 -20 m 1,36,-1
 1430 -20 l 1,37,-1
 1430 180 l 1,38,-1
 1044 180 l 1,39,-1
 1044 190 l 1,40,-1
 1437 767 l 1,41,-1
 1560 815 l 1,42,-1
 1570 815 l 1,43,-1
 1570 246 l 1,44,-1
 1646 246 l 1,45,-1
 1646 236 l 1,46,-1
 1620 180 l 1,47,-1
 1570 180 l 1,48,-1
 1570 31 l 1,49,-1
 1440 -20 l 1,36,-1
678 -20 m 1,50,-1
 551 42 l 1,51,-1
 1245 1530 l 1,52,-1
 1255 1530 l 1,53,-1
 1383 1468 l 1,54,-1
 688 -20 l 1,55,-1
 678 -20 l 1,50,-1
EndSplineSet
Validated: 1
EndChar

StartChar: questiondown
Encoding: 191 191 127
Width: 1300
GlyphClass: 2
Flags: W
HStem: -430 90<479.178 808.955> 875 245<591.097 758.903>
VStem: 150 201<-171.515 223.308> 555 240<912.129 1082.87> 569 203<574.826 666> 950 200<-161.595 204.847>
LayerCount: 2
Fore
SplineSet
645 -430 m 0,0,1
 418 -430 418 -430 275 -285 c 0,2,3
 150 -158 150 -158 150 30 c 0,4,5
 150 319 150 319 479 484 c 0,6,7
 569 529 569 529 569 666 c 1,8,-1
 762 759 l 1,9,-1
 772 759 l 1,10,11
 772 527 772 527 562 422 c 0,12,13
 351 316 351 316 351 8 c 0,14,15
 351 -163 351 -163 412 -237 c 0,16,17
 497 -340 497 -340 645 -340 c 0,18,19
 790 -340 790 -340 878 -237 c 0,20,21
 950 -153 950 -153 950 33 c 0,22,23
 950 120 950 120 911 186 c 1,24,-1
 1079 267 l 1,25,-1
 1089 267 l 1,26,27
 1150 159 1150 159 1150 30 c 0,28,29
 1150 -153 1150 -153 1015 -285 c 0,30,31
 867 -430 867 -430 645 -430 c 0,0,1
675 1120 m 128,-1,33
 725 1120 725 1120 760 1084 c 128,-1,34
 795 1048 795 1048 795 997.5 c 128,-1,35
 795 947 795 947 760 911 c 128,-1,36
 725 875 725 875 675 875 c 128,-1,37
 625 875 625 875 590 911 c 128,-1,38
 555 947 555 947 555 997.5 c 128,-1,39
 555 1048 555 1048 590 1084 c 128,-1,32
 625 1120 625 1120 675 1120 c 128,-1,33
EndSplineSet
Validated: 1
EndChar

StartChar: endash
Encoding: 8211 8211 128
Width: 1200
GlyphClass: 2
Flags: W
HStem: 680 150<216 984>
LayerCount: 2
Fore
SplineSet
216 830 m 5,0,-1
 1050 830 l 5,1,-1
 1050 820 l 5,2,-1
 984 680 l 5,3,-1
 150 680 l 5,4,-1
 150 690 l 5,5,-1
 216 830 l 5,0,-1
EndSplineSet
Validated: 1
EndChar

StartChar: emdash
Encoding: 8212 8212 129
Width: 1500
GlyphClass: 2
Flags: W
HStem: 680 150<216 1284>
LayerCount: 2
Fore
SplineSet
216 830 m 1,0,-1
 1350 830 l 1,1,-1
 1350 820 l 1,2,-1
 1284 680 l 1,3,-1
 150 680 l 1,4,-1
 150 690 l 1,5,-1
 216 830 l 1,0,-1
EndSplineSet
Validated: 1
EndChar

StartChar: afii00208
Encoding: 8213 8213 130
Width: 1500
GlyphClass: 2
Flags: W
HStem: 680 150<216 1284>
LayerCount: 2
Fore
SplineSet
216 830 m 1,0,-1
 1350 830 l 1,1,-1
 1350 820 l 1,2,-1
 1284 680 l 1,3,-1
 150 680 l 1,4,-1
 150 690 l 1,5,-1
 216 830 l 1,0,-1
EndSplineSet
Validated: 1
EndChar

StartChar: quoteleft
Encoding: 8216 8216 131
Width: 389
GlyphClass: 2
Flags: W
HStem: 1046 554
VStem: 50 155<1202.44 1446.68>
LayerCount: 2
Fore
SplineSet
275 1600 m 1,0,-1
 282 1593 l 1,1,2
 205 1463 205 1463 205 1334 c 128,-1,3
 205 1205 205 1205 339 1126 c 1,4,-1
 169 1046 l 1,5,-1
 159 1046 l 1,6,7
 50 1153 50 1153 50 1290 c 0,8,9
 50 1487 50 1487 275 1600 c 1,0,-1
EndSplineSet
Validated: 1
EndChar

StartChar: quoteright
Encoding: 8217 8217 132
Width: 389
GlyphClass: 2
Flags: W
HStem: 1046 554
VStem: 184 155<1199.32 1443.56>
LayerCount: 2
Fore
SplineSet
220 1600 m 1,0,-1
 230 1600 l 1,1,2
 339 1493 339 1493 339 1356 c 0,3,4
 339 1159 339 1159 114 1046 c 1,5,-1
 107 1053 l 1,6,7
 184 1183 184 1183 184 1312 c 128,-1,8
 184 1441 184 1441 50 1520 c 1,9,-1
 220 1600 l 1,0,-1
EndSplineSet
Validated: 1
EndChar

StartChar: quotesinglbase
Encoding: 8218 8218 133
Width: 389
GlyphClass: 2
Flags: W
HStem: -276 554
VStem: 184 155<-122.682 121.561>
LayerCount: 2
Fore
SplineSet
220 278 m 1,0,-1
 230 278 l 1,1,2
 339 171 339 171 339 34 c 0,3,4
 339 -163 339 -163 114 -276 c 1,5,-1
 107 -269 l 1,6,7
 184 -139 184 -139 184 -10 c 128,-1,8
 184 119 184 119 50 198 c 1,9,-1
 220 278 l 1,0,-1
EndSplineSet
Validated: 1
EndChar

StartChar: quotereversed
Encoding: 8219 8219 134
Width: 389
GlyphClass: 2
Flags: W
HStem: 1046 554
VStem: 50 155<1199.32 1443.56>
LayerCount: 2
Fore
SplineSet
169 1600 m 1,0,-1
 339 1520 l 1,1,2
 205 1441 205 1441 205 1312 c 128,-1,3
 205 1183 205 1183 282 1053 c 1,4,-1
 275 1046 l 1,5,6
 50 1159 50 1159 50 1356 c 0,7,8
 50 1493 50 1493 159 1600 c 1,9,-1
 169 1600 l 1,0,-1
EndSplineSet
Validated: 1
EndChar

StartChar: quotedblleft
Encoding: 8220 8220 135
Width: 688
GlyphClass: 2
Flags: W
HStem: 1046 554
VStem: 50 155<1202.44 1446.68> 349 155<1202.44 1446.68>
LayerCount: 2
Fore
SplineSet
275 1600 m 1,0,-1
 282 1593 l 1,1,2
 205 1463 205 1463 205 1334 c 128,-1,3
 205 1205 205 1205 339 1126 c 1,4,-1
 169 1046 l 1,5,-1
 159 1046 l 1,6,7
 50 1153 50 1153 50 1290 c 0,8,9
 50 1487 50 1487 275 1600 c 1,0,-1
574 1600 m 1,10,-1
 581 1593 l 1,11,12
 504 1463 504 1463 504 1334 c 128,-1,13
 504 1205 504 1205 638 1126 c 1,14,-1
 468 1046 l 1,15,-1
 458 1046 l 1,16,17
 349 1153 349 1153 349 1290 c 0,18,19
 349 1487 349 1487 574 1600 c 1,10,-1
EndSplineSet
Validated: 1
EndChar

StartChar: quotedblright
Encoding: 8221 8221 136
Width: 688
GlyphClass: 2
Flags: W
HStem: 1046 554
VStem: 184 155<1199.32 1443.56> 483 155<1199.32 1443.56>
LayerCount: 2
Fore
SplineSet
519 1600 m 1,0,-1
 529 1600 l 1,1,2
 638 1493 638 1493 638 1356 c 0,3,4
 638 1159 638 1159 413 1046 c 1,5,-1
 406 1053 l 1,6,7
 483 1183 483 1183 483 1312 c 128,-1,8
 483 1441 483 1441 349 1520 c 1,9,-1
 519 1600 l 1,0,-1
220 1600 m 1,10,-1
 230 1600 l 1,11,12
 339 1493 339 1493 339 1356 c 0,13,14
 339 1159 339 1159 114 1046 c 1,15,-1
 107 1053 l 1,16,17
 184 1183 184 1183 184 1312 c 128,-1,18
 184 1441 184 1441 50 1520 c 1,19,-1
 220 1600 l 1,10,-1
EndSplineSet
Validated: 1
EndChar

StartChar: quotedblbase
Encoding: 8222 8222 137
Width: 688
GlyphClass: 2
Flags: W
HStem: -276 554
VStem: 184 155<-122.682 121.561> 483 155<-122.682 121.561>
LayerCount: 2
Fore
SplineSet
519 278 m 1,0,-1
 529 278 l 1,1,2
 638 171 638 171 638 34 c 0,3,4
 638 -163 638 -163 413 -276 c 1,5,-1
 406 -269 l 1,6,7
 483 -139 483 -139 483 -10 c 128,-1,8
 483 119 483 119 349 198 c 1,9,-1
 519 278 l 1,0,-1
220 278 m 1,10,-1
 230 278 l 1,11,12
 339 171 339 171 339 34 c 0,13,14
 339 -163 339 -163 114 -276 c 1,15,-1
 107 -269 l 1,16,17
 184 -139 184 -139 184 -10 c 128,-1,18
 184 119 184 119 50 198 c 1,19,-1
 220 278 l 1,10,-1
EndSplineSet
Validated: 1
EndChar

StartChar: dagger
Encoding: 8224 8224 138
Width: 1214
GlyphClass: 2
Flags: W
HStem: -20 21G<507 559.222> 1088 90<188 507 707 1026> 1510 20G<654.778 707>
VStem: 507 200<70 1088 1178 1440>
LayerCount: 2
Fore
SplineSet
517 -20 m 1,0,-1
 507 -20 l 1,1,-1
 507 1088 l 1,2,-1
 150 1088 l 1,3,-1
 150 1098 l 1,4,-1
 188 1178 l 1,5,-1
 507 1178 l 1,6,-1
 507 1440 l 1,7,-1
 697 1530 l 1,8,-1
 707 1530 l 1,9,-1
 707 1178 l 1,10,-1
 1064 1178 l 1,11,-1
 1064 1168 l 1,12,-1
 1026 1088 l 1,13,-1
 707 1088 l 1,14,-1
 707 70 l 1,15,-1
 517 -20 l 1,0,-1
EndSplineSet
Validated: 1
EndChar

StartChar: daggerdbl
Encoding: 8225 8225 139
Width: 1214
GlyphClass: 2
Flags: W
HStem: -20 21G<507 559.222> 332 90<188 507 707 1026> 1088 90<188 507 707 1026> 1510 20G<654.778 707>
VStem: 507 200<70 332 422 1088 1178 1440>
LayerCount: 2
Fore
SplineSet
517 -20 m 1,0,-1
 507 -20 l 1,1,-1
 507 332 l 1,2,-1
 150 332 l 1,3,-1
 150 342 l 1,4,-1
 188 422 l 1,5,-1
 507 422 l 1,6,-1
 507 1088 l 1,7,-1
 150 1088 l 1,8,-1
 150 1098 l 1,9,-1
 188 1178 l 1,10,-1
 507 1178 l 1,11,-1
 507 1440 l 1,12,-1
 697 1530 l 1,13,-1
 707 1530 l 1,14,-1
 707 1178 l 1,15,-1
 1064 1178 l 1,16,-1
 1064 1168 l 1,17,-1
 1026 1088 l 1,18,-1
 707 1088 l 1,19,-1
 707 422 l 1,20,-1
 1064 422 l 1,21,-1
 1064 412 l 1,22,-1
 1026 332 l 1,23,-1
 707 332 l 1,24,-1
 707 70 l 1,25,-1
 517 -20 l 1,0,-1
EndSplineSet
Validated: 1
EndChar

StartChar: bullet
Encoding: 8226 8226 140
Width: 910
GlyphClass: 2
Flags: W
HStem: 447 616<295.193 614.807>
VStem: 150 610<594.451 915.549>
LayerCount: 2
Fore
SplineSet
455 1063 m 128,-1,1
 582 1063 582 1063 671 972.5 c 128,-1,2
 760 882 760 882 760 755 c 152,-1,3
 760 628 760 628 671 537.5 c 128,-1,4
 582 447 582 447 455 447 c 128,-1,5
 328 447 328 447 239 537.5 c 128,-1,6
 150 628 150 628 150 755 c 152,-1,7
 150 882 150 882 239 972.5 c 128,-1,0
 328 1063 328 1063 455 1063 c 128,-1,1
EndSplineSet
Validated: 1
EndChar

StartChar: ellipsis
Encoding: 8230 8230 141
Width: 1012
GlyphClass: 2
Flags: W
HStem: -20 245<86.0974 253.903 422.097 589.903 758.097 925.903>
VStem: 50 240<17.1285 187.871> 386 240<17.1285 187.871> 722 240<17.1285 187.871>
CounterMasks: 1 70
LayerCount: 2
Fore
SplineSet
842 -20 m 128,-1,1
 792 -20 792 -20 757 16 c 128,-1,2
 722 52 722 52 722 102.5 c 128,-1,3
 722 153 722 153 757 189 c 128,-1,4
 792 225 792 225 842 225 c 128,-1,5
 892 225 892 225 927 189 c 128,-1,6
 962 153 962 153 962 102.5 c 128,-1,7
 962 52 962 52 927 16 c 128,-1,0
 892 -20 892 -20 842 -20 c 128,-1,1
506 -20 m 128,-1,9
 456 -20 456 -20 421 16 c 128,-1,10
 386 52 386 52 386 102.5 c 128,-1,11
 386 153 386 153 421 189 c 128,-1,12
 456 225 456 225 506 225 c 128,-1,13
 556 225 556 225 591 189 c 128,-1,14
 626 153 626 153 626 102.5 c 128,-1,15
 626 52 626 52 591 16 c 128,-1,8
 556 -20 556 -20 506 -20 c 128,-1,9
170 -20 m 128,-1,17
 120 -20 120 -20 85 16 c 128,-1,18
 50 52 50 52 50 102.5 c 128,-1,19
 50 153 50 153 85 189 c 128,-1,20
 120 225 120 225 170 225 c 128,-1,21
 220 225 220 225 255 189 c 128,-1,22
 290 153 290 153 290 102.5 c 128,-1,23
 290 52 290 52 255 16 c 128,-1,16
 220 -20 220 -20 170 -20 c 128,-1,17
EndSplineSet
Validated: 1
EndChar

StartChar: perthousand
Encoding: 8240 8240 142
Width: 2220
GlyphClass: 2
Flags: W
HStem: -20 63<1002.52 1181.48 1675.52 1854.48> 533 63<1002.52 1181.48 1675.52 1854.48> 914 63<365.516 544.484> 1467 63<365.516 544.484>
VStem: 150 147<1061.16 1382.84> 613 147<1061.16 1382.84> 787 147<127.162 448.838> 1250 147<127.162 448.838> 1460 147<127.162 448.838> 1923 147<127.162 448.838>
DStem2: 358 42 495 -20 0.423185 0.906043<1.80173 1641.88>
LayerCount: 2
Fore
SplineSet
1765 43 m 128,-1,1
 1833 43 1833 43 1878 97 c 128,-1,2
 1923 151 1923 151 1923 288 c 152,-1,3
 1923 425 1923 425 1878 479 c 128,-1,4
 1833 533 1833 533 1765 533 c 128,-1,5
 1697 533 1697 533 1652 479 c 128,-1,6
 1607 425 1607 425 1607 288 c 152,-1,7
 1607 151 1607 151 1652 97 c 128,-1,0
 1697 43 1697 43 1765 43 c 128,-1,1
1092 43 m 128,-1,9
 1160 43 1160 43 1205 97 c 128,-1,10
 1250 151 1250 151 1250 288 c 152,-1,11
 1250 425 1250 425 1205 479 c 128,-1,12
 1160 533 1160 533 1092 533 c 128,-1,13
 1024 533 1024 533 979 479 c 128,-1,14
 934 425 934 425 934 288 c 152,-1,15
 934 151 934 151 979 97 c 128,-1,8
 1024 43 1024 43 1092 43 c 128,-1,9
455 1467 m 128,-1,17
 387 1467 387 1467 342 1413 c 128,-1,18
 297 1359 297 1359 297 1222 c 152,-1,19
 297 1085 297 1085 342 1031 c 128,-1,20
 387 977 387 977 455 977 c 128,-1,21
 523 977 523 977 568 1031 c 128,-1,22
 613 1085 613 1085 613 1222 c 152,-1,23
 613 1359 613 1359 568 1413 c 128,-1,16
 523 1467 523 1467 455 1467 c 128,-1,17
1765 -20 m 128,-1,25
 1638 -20 1638 -20 1549 70.5 c 128,-1,26
 1460 161 1460 161 1460 288 c 152,-1,27
 1460 415 1460 415 1549 505.5 c 128,-1,28
 1638 596 1638 596 1765 596 c 128,-1,29
 1892 596 1892 596 1981 505.5 c 128,-1,30
 2070 415 2070 415 2070 288 c 152,-1,31
 2070 161 2070 161 1981 70.5 c 128,-1,24
 1892 -20 1892 -20 1765 -20 c 128,-1,25
1092 -20 m 128,-1,33
 965 -20 965 -20 876 70.5 c 128,-1,34
 787 161 787 161 787 288 c 152,-1,35
 787 415 787 415 876 505.5 c 128,-1,36
 965 596 965 596 1092 596 c 128,-1,37
 1219 596 1219 596 1308 505.5 c 128,-1,38
 1397 415 1397 415 1397 288 c 152,-1,39
 1397 161 1397 161 1308 70.5 c 128,-1,32
 1219 -20 1219 -20 1092 -20 c 128,-1,33
485 -20 m 1,40,-1
 358 42 l 1,41,-1
 1052 1530 l 1,42,-1
 1062 1530 l 1,43,-1
 1190 1468 l 1,44,-1
 495 -20 l 1,45,-1
 485 -20 l 1,40,-1
455 1530 m 128,-1,47
 582 1530 582 1530 671 1439.5 c 128,-1,48
 760 1349 760 1349 760 1222 c 152,-1,49
 760 1095 760 1095 671 1004.5 c 128,-1,50
 582 914 582 914 455 914 c 128,-1,51
 328 914 328 914 239 1004.5 c 128,-1,52
 150 1095 150 1095 150 1222 c 152,-1,53
 150 1349 150 1349 239 1439.5 c 128,-1,46
 328 1530 328 1530 455 1530 c 128,-1,47
EndSplineSet
Validated: 1
EndChar

StartChar: minute
Encoding: 8242 8242 143
Width: 414
GlyphClass: 2
Flags: W
HStem: 1201 399
VStem: 50 314
LayerCount: 2
Fore
SplineSet
201 1600 m 1,0,-1
 211 1600 l 1,1,-1
 364 1527 l 1,2,-1
 154 1201 l 1,3,-1
 144 1201 l 1,4,-1
 50 1245 l 1,5,-1
 201 1600 l 1,0,-1
EndSplineSet
Validated: 1
EndChar

StartChar: second
Encoding: 8243 8243 144
Width: 667
GlyphClass: 2
Flags: W
HStem: 1201 399
VStem: 50 567
LayerCount: 2
Fore
SplineSet
454 1600 m 1,0,-1
 464 1600 l 1,1,-1
 617 1527 l 1,2,-1
 407 1201 l 1,3,-1
 397 1201 l 1,4,-1
 303 1245 l 1,5,-1
 454 1600 l 1,0,-1
201 1600 m 1,6,-1
 211 1600 l 1,7,-1
 364 1527 l 1,8,-1
 154 1201 l 1,9,-1
 144 1201 l 1,10,-1
 50 1245 l 1,11,-1
 201 1600 l 1,6,-1
EndSplineSet
Validated: 1
EndChar

StartChar: guilsinglleft
Encoding: 8249 8249 145
Width: 748
GlyphClass: 2
Flags: W
VStem: 150 398
DStem2: 278 829 150 755 0.51032 -0.859984<0 511.114> 150 755 278 829 0.506484 0.862249<128.636 570.601>
LayerCount: 2
Fore
SplineSet
150 755 m 1,0,-1
 439 1247 l 1,1,-1
 449 1247 l 1,2,-1
 509 1218 l 1,3,-1
 278 829 l 1,4,-1
 548 374 l 1,5,-1
 420 313 l 1,6,-1
 410 313 l 1,7,-1
 150 755 l 1,0,-1
EndSplineSet
Validated: 1
EndChar

StartChar: guilsinglright
Encoding: 8250 8250 146
Width: 798
GlyphClass: 2
Flags: W
VStem: 200 398
DStem2: 338 1197 200 1136 0.51032 -0.859984<0 511.114> 239 292 309 263 0.506484 0.862249<10.4486 452.413>
LayerCount: 2
Fore
SplineSet
598 755 m 1,0,-1
 309 263 l 1,1,-1
 299 263 l 1,2,-1
 239 292 l 1,3,-1
 470 681 l 1,4,-1
 200 1136 l 1,5,-1
 328 1197 l 1,6,-1
 338 1197 l 1,7,-1
 598 755 l 1,0,-1
EndSplineSet
Validated: 1
EndChar

StartChar: fraction
Encoding: 8260 8260 147
Width: 852
GlyphClass: 2
Flags: W
HStem: -20 21G<96.0323 156.341> 1510 20G<694.672 755.29>
DStem2: 10 42 147 -20 0.423185 0.906043<1.80173 1641.88>
LayerCount: 2
Fore
SplineSet
137 -20 m 1,0,-1
 10 42 l 1,1,-1
 704 1530 l 1,2,-1
 714 1530 l 1,3,-1
 842 1468 l 1,4,-1
 147 -20 l 1,5,-1
 137 -20 l 1,0,-1
EndSplineSet
Validated: 1
EndChar

StartChar: Euro
Encoding: 8364 8364 148
Width: 1400
GlyphClass: 2
Flags: W
HStem: -20 90<583.61 906.54> 595 90<118 240 450 932> 795 90<118 240 450 932> 1440 90<583.61 906.54>
VStem: 240 210<263.359 595 685 795 885 1246.64> 1035 204<241.99 376 1145.42 1267.38>
LayerCount: 2
Fore
SplineSet
745.5 -20 m 128,-1,1
 535 -20 535 -20 387.5 121 c 128,-1,2
 240 262 240 262 240 474 c 2,3,-1
 240 595 l 1,4,-1
 80 595 l 1,5,-1
 80 605 l 1,6,-1
 118 685 l 1,7,-1
 240 685 l 1,8,-1
 240 795 l 1,9,-1
 80 795 l 1,10,-1
 80 805 l 1,11,-1
 118 885 l 1,12,-1
 240 885 l 1,13,-1
 240 1036 l 2,14,15
 240 1248 240 1248 387.5 1389 c 128,-1,16
 535 1530 535 1530 745.5 1530 c 128,-1,17
 956 1530 956 1530 1103 1389 c 0,18,19
 1209 1287 1209 1287 1239 1147 c 1,20,-1
 1045 1055 l 1,21,-1
 1035 1055 l 1,22,-1
 1035 1152 l 2,23,24
 1035 1279 1035 1279 953.5 1359.5 c 128,-1,25
 872 1440 872 1440 745.5 1440 c 128,-1,26
 619 1440 619 1440 534.5 1359.5 c 128,-1,27
 450 1279 450 1279 450 1152 c 2,28,-1
 450 885 l 1,29,-1
 970 885 l 1,30,-1
 970 875 l 1,31,-1
 932 795 l 1,32,-1
 450 795 l 1,33,-1
 450 685 l 1,34,-1
 970 685 l 1,35,-1
 970 675 l 1,36,-1
 932 595 l 1,37,-1
 450 595 l 1,38,-1
 450 358 l 2,39,40
 450 231 450 231 534.5 150.5 c 128,-1,41
 619 70 619 70 745.5 70 c 128,-1,42
 872 70 872 70 953.5 150.5 c 128,-1,43
 1035 231 1035 231 1035 358 c 2,44,-1
 1035 376 l 1,45,-1
 1240 474 l 1,46,-1
 1250 474 l 1,47,48
 1250 262 1250 262 1103 121 c 128,-1,0
 956 -20 956 -20 745.5 -20 c 128,-1,1
EndSplineSet
Validated: 1
EndChar

StartChar: afii61248
Encoding: 8453 8453 149
Width: 1625
GlyphClass: 2
Flags: W
HStem: -20 65<1114.13 1290.93> 717 65<335.128 509.413 1105.53 1296.85> 1464 66<331.452 512.189>
VStem: 150 145<833.798 1414.8> 549 147<836.056 949 1302.49 1411.46> 929 145<96.798 676.627> 1330 145<97.666 675.909>
DStem2: 397 42 534 -20 0.423185 0.906043<1.80173 1641.88>
LayerCount: 2
Fore
SplineSet
424 1530 m 0,0,1
 540 1530 540 1530 616 1455 c 0,2,3
 675 1397 675 1397 693 1308 c 1,4,-1
 566 1258 l 1,5,-1
 551 1258 l 1,6,-1
 551 1341 l 2,7,8
 551 1395 551 1395 515 1429.5 c 128,-1,9
 479 1464 479 1464 423 1464 c 128,-1,10
 367 1464 367 1464 330 1430 c 0,11,12
 295 1398 295 1398 295 1341 c 2,13,-1
 295 906 l 2,14,15
 295 851 295 851 331.5 816.5 c 128,-1,16
 368 782 368 782 422 782 c 128,-1,17
 476 782 476 782 512.5 816.5 c 128,-1,18
 549 851 549 851 549 906 c 2,19,-1
 549 949 l 1,20,-1
 686 1003 l 1,21,-1
 696 1003 l 1,22,-1
 696 983 l 2,23,24
 696 869 696 869 615.5 793 c 128,-1,25
 535 717 535 717 422.5 717 c 128,-1,26
 310 717 310 717 230 793 c 128,-1,27
 150 869 150 869 150 982 c 2,28,-1
 150 1265 l 2,29,30
 150 1381 150 1381 230 1455 c 0,31,32
 312 1530 312 1530 424 1530 c 0,0,1
1202 45 m 0,33,34
 1259 45 1259 45 1294.5 80 c 128,-1,35
 1330 115 1330 115 1330 169 c 2,36,-1
 1330 604 l 2,37,38
 1330 659 1330 659 1294 693 c 128,-1,39
 1258 727 1258 727 1202 727 c 128,-1,40
 1146 727 1146 727 1109 693 c 0,41,42
 1074 661 1074 661 1074 604 c 2,43,-1
 1074 169 l 2,44,45
 1074 114 1074 114 1110.5 79.5 c 128,-1,46
 1147 45 1147 45 1202 45 c 0,33,34
1201.5 -20 m 128,-1,48
 1089 -20 1089 -20 1009 56 c 128,-1,49
 929 132 929 132 929 245 c 2,50,-1
 929 528 l 2,51,52
 929 642 929 642 1009 718 c 0,53,54
 1090 793 1090 793 1202.5 793 c 128,-1,55
 1315 793 1315 793 1395 717 c 128,-1,56
 1475 641 1475 641 1475 528 c 2,57,-1
 1475 245 l 2,58,59
 1475 130 1475 130 1394.5 55 c 128,-1,47
 1314 -20 1314 -20 1201.5 -20 c 128,-1,48
524 -20 m 1,60,-1
 397 42 l 1,61,-1
 1091 1530 l 1,62,-1
 1101 1530 l 1,63,-1
 1229 1468 l 1,64,-1
 534 -20 l 1,65,-1
 524 -20 l 1,60,-1
EndSplineSet
Validated: 1
EndChar

StartChar: afii61289
Encoding: 8467 8467 150
Width: 958
GlyphClass: 2
Flags: W
HStem: -20 136<458.002 574.715> 0 21G<50 263> 1510 20G<632 703>
VStem: 232 155<466 819.618> 655 153<1042.58 1357.48>
LayerCount: 2
Fore
SplineSet
387 466 m 1,0,1
 498 708 498 708 554 860 c 0,2,3
 655 1134 655 1134 655 1359 c 1,4,5
 563 1238 563 1238 503 1067 c 0,6,7
 387 740 387 740 387 466 c 1,0,1
50 0 m 1,8,9
 171 158 171 158 244 282 c 1,10,11
 232 366 232 366 232 443 c 0,12,13
 232 629 232 629 279 848 c 0,14,15
 367 1251 367 1251 517 1434 c 0,16,17
 595 1530 595 1530 669 1530 c 0,18,19
 737 1530 737 1530 772 1479 c 0,20,21
 808 1429 808 1429 808 1318 c 0,22,23
 808 1226 808 1226 778 1072 c 0,24,25
 708 722 708 722 422 271 c 1,26,27
 454 116 454 116 511 116 c 0,28,29
 535 116 535 116 562.5 145 c 128,-1,30
 590 174 590 174 616 228 c 1,31,-1
 792 228 l 1,32,33
 715 100 715 100 650.5 40 c 128,-1,34
 586 -20 586 -20 502 -20 c 0,35,36
 382 -20 382 -20 305 90 c 1,37,-1
 251 0 l 1,38,-1
 50 0 l 1,8,9
EndSplineSet
Validated: 1
EndChar

StartChar: trademark
Encoding: 8482 8482 151
Width: 1778
GlyphClass: 2
Flags: W
HStem: 1465 65<126 313 453 640 852.111 1047.26 1257.9 1452.69>
VStem: 313 140<767 1465> 678 140<769 1424.91> 1083 140<769 1440.9> 1488 140<769 1423.62>
LayerCount: 2
Fore
SplineSet
688 716 m 1,0,-1
 678 716 l 1,1,-1
 678 1274 l 2,2,3
 678 1390 678 1390 758 1465 c 0,4,5
 839 1541 839 1541 952 1541 c 0,6,7
 1068 1541 1068 1541 1143 1466 c 0,8,9
 1148 1461 1148 1461 1153 1455 c 1,10,11
 1158 1460 1158 1460 1163 1465 c 0,12,13
 1242 1541 1242 1541 1355.5 1541 c 128,-1,14
 1469 1541 1469 1541 1549 1464 c 0,15,16
 1628 1388 1628 1388 1628 1274 c 2,17,-1
 1628 769 l 1,18,-1
 1498 716 l 1,19,-1
 1488 716 l 1,20,-1
 1488 1353 l 2,21,22
 1488 1409 1488 1409 1449 1442.5 c 128,-1,23
 1410 1476 1410 1476 1355 1476 c 0,24,25
 1298 1476 1298 1476 1261 1442 c 0,26,27
 1223 1407 1223 1407 1223 1353 c 2,28,-1
 1223 769 l 1,29,-1
 1093 716 l 1,30,-1
 1083 716 l 1,31,-1
 1083 1353 l 2,32,33
 1083 1408 1083 1408 1044 1442 c 0,34,35
 1005 1477 1005 1477 950 1477 c 128,-1,36
 895 1477 895 1477 856 1442 c 0,37,38
 818 1408 818 1408 818 1353 c 2,39,-1
 818 769 l 1,40,-1
 688 716 l 1,0,-1
126 1530 m 1,41,-1
 666 1530 l 1,42,-1
 666 1520 l 1,43,-1
 640 1465 l 1,44,-1
 453 1465 l 1,45,-1
 453 767 l 1,46,-1
 323 716 l 1,47,-1
 313 716 l 1,48,-1
 313 1465 l 1,49,-1
 100 1465 l 1,50,-1
 100 1475 l 1,51,-1
 126 1530 l 1,41,-1
EndSplineSet
Validated: 1
EndChar

StartChar: uni2126
Encoding: 8486 8486 152
Width: 1410
GlyphClass: 2
Flags: W
HStem: 0 90<238 446 964 1172> 1440 90<536.742 871.537>
VStem: 200 200<458.35 1246.64> 446 162<90 271.646> 802 162<90 271.449> 1010 200<457.359 1247.11>
LayerCount: 2
Fore
SplineSet
608 0 m 1,0,-1
 200 0 l 1,1,-1
 200 10 l 1,2,-1
 238 90 l 1,3,-1
 446 90 l 1,4,-1
 446 248 l 1,5,6
 393 270 393 270 347 315 c 24,7,8
 200 458 200 458 200 668 c 2,9,-1
 200 1036 l 2,10,11
 200 1248 200 1248 347 1389 c 128,-1,12
 494 1530 494 1530 705 1530 c 0,13,14
 912 1530 912 1530 1062 1389 c 0,15,16
 1210 1250 1210 1250 1210 1036 c 2,17,-1
 1210 668 l 2,18,19
 1210 456 1210 456 1062 315 c 0,20,21
 1016 271 1016 271 964 247 c 1,22,-1
 964 90 l 1,23,-1
 1210 90 l 1,24,-1
 1210 80 l 1,25,-1
 1172 0 l 1,26,-1
 802 0 l 1,27,-1
 802 251 l 1,28,29
 872 282 872 282 920 324 c 0,30,31
 1010 402 1010 402 1010 532 c 2,32,-1
 1010 1152 l 2,33,34
 1010 1278 1010 1278 920 1360 c 0,35,36
 832 1440 832 1440 705 1440 c 0,37,38
 576 1440 576 1440 489 1360 c 0,39,40
 400 1278 400 1278 400 1152 c 2,41,-1
 400 532 l 2,42,43
 400 404 400 404 489 324 c 0,44,45
 538 280 538 280 608 251 c 1,46,-1
 608 0 l 1,0,-1
EndSplineSet
Validated: 1
EndChar

StartChar: estimated
Encoding: 8494 8494 153
Width: 1330
GlyphClass: 2
Flags: W
HStem: -20 92<451.758 852.453> 525 80<348 983> 1036 84<468.183 852.399>
VStem: 100 248<309.991 525 605 788.181> 983 247<605 774.087>
LayerCount: 2
Fore
SplineSet
1104 204 m 1,0,1
 1032 113 1032 113 948 61 c 0,2,3
 817 -20 817 -20 665 -20 c 0,4,5
 409 -20 409 -20 256 139 c 0,6,7
 100 301 100 301 100 550 c 0,8,9
 100 788 100 788 249 952 c 24,10,11
 402 1120 402 1120 666 1120 c 0,12,13
 915 1120 915 1120 1064 964 c 280,14,15
 1230 790 1230 790 1230 525 c 1,16,-1
 348 525 l 1,17,-1
 348 192 l 1,18,19
 459 72 459 72 666 72 c 256,20,21
 789 72 789 72 880 132 c 0,22,23
 962 186 962 186 1011 266 c 1,24,25
 1104 204 l 1,0,1
348 605 m 1,26,-1
 983 605 l 1,27,-1
 983 903 l 1,28,29
 852 1036 852 1036 666 1036 c 0,30,31
 475 1036 475 1036 348 914 c 1,32,-1
 348 605 l 1,26,-1
EndSplineSet
Validated: 1
EndChar

StartChar: partialdiff
Encoding: 8706 8706 154
Width: 1285
GlyphClass: 2
Flags: W
HStem: -20 153<399.379 663.581> 870 170<546.66 823.335> 1378 152<492 830.299>
VStem: 150 188<198.966 600.959> 952 183<930 1235.35>
LayerCount: 2
Fore
SplineSet
512 -20 m 0,0,1
 150 -20 150 -20 150 375 c 0,2,3
 150 631 150 631 286 815 c 0,4,5
 454 1040 454 1040 672 1040 c 0,6,7
 859 1040 859 1040 952 930 c 1,8,9
 952 1136 952 1136 907 1239 c 0,10,11
 846 1378 846 1378 678 1378 c 0,12,13
 547 1378 547 1378 420 1294 c 1,14,-1
 420 1468 l 1,15,16
 554 1530 554 1530 703 1530 c 0,17,18
 1135 1530 1135 1530 1135 934 c 0,19,20
 1135 545 1135 545 966.5 262.5 c 128,-1,21
 798 -20 798 -20 512 -20 c 0,0,1
525 133 m 0,22,23
 663 133 663 133 772.5 286 c 128,-1,24
 882 439 882 439 920 680 c 1,25,26
 898 765 898 765 834.5 817.5 c 128,-1,27
 771 870 771 870 695 870 c 0,28,29
 535 870 535 870 436.5 710 c 128,-1,30
 338 550 338 550 338 369 c 0,31,32
 338 133 338 133 525 133 c 0,22,23
EndSplineSet
Validated: 1
EndChar

StartChar: uni2206
Encoding: 8710 8710 155
Width: 1331
GlyphClass: 2
Flags: W
HStem: 0 90<136 1091>
DStem2: 5 0 136 90 0.355307 0.93475<130.673 1481.81> 746 1550 616 1353 0.350461 -0.936577<138.946 1488.31>
LayerCount: 2
Fore
SplineSet
5 0 m 1,0,-1
 563 1468 l 1,1,-1
 736 1550 l 1,2,-1
 746 1550 l 1,3,-1
 1326 0 l 1,4,-1
 5 0 l 1,0,-1
136 90 m 1,5,-1
 1091 90 l 1,6,-1
 616 1353 l 1,7,-1
 136 90 l 1,5,-1
EndSplineSet
Validated: 1
EndChar

StartChar: product
Encoding: 8719 8719 156
Width: 1400
GlyphClass: 2
Flags: W
HStem: -430 21G<200 252.222 1000 1052.22> 1420 90<400 1000>
VStem: 200 200<-340 1420> 1000 200<-340 1420>
LayerCount: 2
Fore
SplineSet
210 -430 m 1,0,-1
 200 -430 l 1,1,-1
 200 1460 l 1,2,-1
 306 1510 l 1,3,-1
 1200 1510 l 1,4,-1
 1200 -340 l 1,5,-1
 1010 -430 l 1,6,-1
 1000 -430 l 1,7,-1
 1000 1420 l 1,8,-1
 400 1420 l 1,9,-1
 400 -340 l 1,10,-1
 210 -430 l 1,0,-1
EndSplineSet
Validated: 1
EndChar

StartChar: summation
Encoding: 8721 8721 157
Width: 1203
GlyphClass: 2
Flags: W
HStem: -410 90<361 1015> 1420 90<351 995>
DStem2: 100 -410 361 -320 0.431264 0.902226<193.76 1108.37> 351 1420 101 1460 0.480758 -0.876854<0 836.92>
LayerCount: 2
Fore
SplineSet
100 -410 m 1,0,-1
 578 590 l 1,1,-1
 101 1460 l 1,2,-1
 207 1510 l 1,3,-1
 1033 1510 l 1,4,-1
 1033 1500 l 1,5,-1
 995 1420 l 1,6,-1
 351 1420 l 1,7,-1
 808 596 l 1,8,-1
 361 -320 l 1,9,-1
 1053 -320 l 1,10,-1
 1053 -330 l 1,11,-1
 1015 -410 l 1,12,-1
 100 -410 l 1,0,-1
EndSplineSet
Validated: 1
EndChar

StartChar: minus
Encoding: 8722 8722 158
Width: 1200
GlyphClass: 2
Flags: W
HStem: 680 150<216 984>
LayerCount: 2
Fore
SplineSet
216 830 m 5,0,-1
 1050 830 l 5,1,-1
 1050 820 l 5,2,-1
 984 680 l 5,3,-1
 150 680 l 5,4,-1
 150 690 l 5,5,-1
 216 830 l 5,0,-1
EndSplineSet
Validated: 1
EndChar

StartChar: uni2215
Encoding: 8725 8725 159
Width: 852
GlyphClass: 2
Flags: W
HStem: -20 21G<96.0323 156.341> 1510 20G<694.672 755.29>
DStem2: 10 42 147 -20 0.423185 0.906043<1.80173 1641.88>
LayerCount: 2
Fore
SplineSet
137 -20 m 1,0,-1
 10 42 l 1,1,-1
 704 1530 l 1,2,-1
 714 1530 l 1,3,-1
 842 1468 l 1,4,-1
 147 -20 l 1,5,-1
 137 -20 l 1,0,-1
EndSplineSet
Validated: 1
EndChar

StartChar: uni2219
Encoding: 8729 8729 160
Width: 340
GlyphClass: 2
Flags: W
HStem: 632 245<86.0974 253.903>
VStem: 50 240<669.129 839.871>
LayerCount: 2
Fore
SplineSet
170 877 m 128,-1,1
 220 877 220 877 255 841 c 128,-1,2
 290 805 290 805 290 754.5 c 128,-1,3
 290 704 290 704 255 668 c 128,-1,4
 220 632 220 632 170 632 c 128,-1,5
 120 632 120 632 85 668 c 128,-1,6
 50 704 50 704 50 754.5 c 128,-1,7
 50 805 50 805 85 841 c 128,-1,0
 120 877 120 877 170 877 c 128,-1,1
EndSplineSet
Validated: 1
EndChar

StartChar: radical
Encoding: 8730 8730 161
Width: 1093
GlyphClass: 2
Flags: W
HStem: -20 21G<312.829 372.133> 1510 20G<948.529 1007.62>
DStem2: 213 806 50 733 0.337524 -0.941317<13.6997 691.032> 442 154 488 55 0.360066 0.932927<0 1465.59>
LayerCount: 2
Fore
SplineSet
320 -20 m 1,0,-1
 50 733 l 1,1,-1
 203 806 l 1,2,-1
 213 806 l 1,3,-1
 442 154 l 1,4,-1
 956 1530 l 1,5,-1
 966 1530 l 1,6,-1
 1043 1493 l 1,7,-1
 488 55 l 1,8,-1
 330 -20 l 1,9,-1
 320 -20 l 1,0,-1
EndSplineSet
Validated: 1
EndChar

StartChar: infinity
Encoding: 8734 8734 162
Width: 1373
GlyphClass: 2
Flags: W
HStem: 446 63<365.516 544.484 828.516 1007.48> 999 63<365.516 544.484 828.516 1007.48>
VStem: 150 147<593.162 914.838> 613 147<563.011 944.989> 1076 147<593.162 914.838>
CounterMasks: 1 38
LayerCount: 2
Fore
SplineSet
918 446 m 128,-1,1
 791 446 791 446 702 536 c 0,2,3
 695 544 695 544 687 553 c 1,4,5
 680 544 680 544 671 536 c 0,6,7
 582 446 582 446 455 446 c 128,-1,8
 328 446 328 446 239 536.5 c 128,-1,9
 150 627 150 627 150 754 c 128,-1,10
 150 881 150 881 239 971.5 c 128,-1,11
 328 1062 328 1062 455 1062 c 128,-1,12
 582 1062 582 1062 671 972 c 0,13,14
 679 964 679 964 687 955 c 1,15,16
 694 964 694 964 702 972 c 0,17,18
 791 1062 791 1062 918 1062 c 128,-1,19
 1045 1062 1045 1062 1134 971.5 c 128,-1,20
 1223 881 1223 881 1223 754 c 128,-1,21
 1223 627 1223 627 1134 536.5 c 128,-1,0
 1045 446 1045 446 918 446 c 128,-1,1
918 509 m 128,-1,23
 986 509 986 509 1031 563 c 128,-1,24
 1076 617 1076 617 1076 754 c 128,-1,25
 1076 891 1076 891 1031 945 c 128,-1,26
 986 999 986 999 918 999 c 128,-1,27
 850 999 850 999 805 945 c 128,-1,28
 760 891 760 891 760 754 c 128,-1,29
 760 617 760 617 805 563 c 128,-1,22
 850 509 850 509 918 509 c 128,-1,23
455 509 m 128,-1,31
 523 509 523 509 568 563 c 128,-1,32
 613 617 613 617 613 754 c 128,-1,33
 613 891 613 891 568 945 c 128,-1,34
 523 999 523 999 455 999 c 128,-1,35
 387 999 387 999 342 945 c 128,-1,36
 297 891 297 891 297 754 c 128,-1,37
 297 617 297 617 342 563 c 128,-1,30
 387 509 387 509 455 509 c 128,-1,31
EndSplineSet
Validated: 1
EndChar

StartChar: approxequal
Encoding: 8776 8776 163
Width: 1138
GlyphClass: 2
Flags: W
HStem: 376 127<682.406 868.861> 610 127<269.139 455.594> 776 127<682.406 868.861> 1010 127<269.139 455.594>
VStem: 150 82<411 566.371 811 966.371> 906 82<546.629 702 946.629 1102>
LayerCount: 2
Fore
SplineSet
406 737 m 0,0,1
 519 737 519 737 621 610 c 0,2,3
 708 503 708 503 781 503 c 0,4,5
 906 503 906 503 906 702 c 1,6,-1
 978 737 l 1,7,-1
 988 737 l 1,8,9
 988 376 988 376 732 376 c 0,10,11
 619 376 619 376 517 503 c 0,12,13
 430 610 430 610 357 610 c 0,14,15
 232 610 232 610 232 411 c 1,16,-1
 160 376 l 1,17,-1
 150 376 l 1,18,19
 150 737 150 737 406 737 c 0,0,1
406 1137 m 0,20,21
 519 1137 519 1137 621 1010 c 0,22,23
 708 903 708 903 781 903 c 0,24,25
 906 903 906 903 906 1102 c 1,26,-1
 978 1137 l 1,27,-1
 988 1137 l 1,28,29
 988 776 988 776 732 776 c 0,30,31
 619 776 619 776 517 903 c 0,32,33
 430 1010 430 1010 357 1010 c 0,34,35
 232 1010 232 1010 232 811 c 1,36,-1
 160 776 l 1,37,-1
 150 776 l 1,38,39
 150 1137 150 1137 406 1137 c 0,20,21
EndSplineSet
Validated: 1
EndChar

StartChar: notequal
Encoding: 8800 8800 164
Width: 1200
GlyphClass: 2
Flags: W
HStem: 480 150<216 417 596 984> 880 150<216 603 783 984>
DStem2: 272 170 380 166 0.422674 0.906282<42.0237 342.235 553.836 783.365 995.389 1296.51>
LayerCount: 2
Fore
SplineSet
216 1030 m 1,0,-1
 673 1030 l 1,1,-1
 820 1345 l 1,2,-1
 919 1345 l 1,3,-1
 928 1341 l 1,4,-1
 783 1030 l 1,5,-1
 1050 1030 l 1,6,-1
 1050 1020 l 1,7,-1
 984 880 l 1,8,-1
 713 880 l 1,9,-1
 596 630 l 1,10,-1
 1050 630 l 1,11,-1
 1050 620 l 1,12,-1
 984 480 l 1,13,-1
 526 480 l 1,14,-1
 380 166 l 1,15,-1
 281 166 l 1,16,-1
 272 170 l 1,17,-1
 417 480 l 1,18,-1
 150 480 l 1,19,-1
 150 490 l 1,20,-1
 216 630 l 1,21,-1
 487 630 l 1,22,-1
 603 880 l 1,23,-1
 150 880 l 1,24,-1
 150 890 l 1,25,-1
 216 1030 l 1,0,-1
EndSplineSet
Validated: 1
EndChar

StartChar: lessequal
Encoding: 8804 8804 165
Width: 1315
GlyphClass: 2
Flags: W
HStem: 275 150<216 1049>
DStem2: 300 919 150 818 0.942662 -0.33375<0 848.114> 216 968 300 919 0.937476 0.348051<61.6934 928.024>
LayerCount: 2
Fore
SplineSet
216 968 m 1,0,-1
 1086 1291 l 1,1,-1
 1115 1231 l 1,2,-1
 1115 1221 l 1,3,-1
 300 919 l 1,4,-1
 1115 643 l 1,5,-1
 1115 633 l 1,6,-1
 1051 499 l 1,7,-1
 150 818 l 1,8,-1
 150 828 l 1,9,-1
 216 968 l 1,0,-1
216 425 m 1,10,-1
 1115 425 l 1,11,-1
 1115 415 l 1,12,-1
 1049 275 l 1,13,-1
 150 275 l 1,14,-1
 150 285 l 1,15,-1
 216 425 l 1,10,-1
EndSplineSet
Validated: 1
EndChar

StartChar: greaterequal
Encoding: 8805 8805 166
Width: 1315
GlyphClass: 2
Flags: W
HStem: 275 150<266 1099>
DStem2: 264 1279 200 1135 0.942662 -0.33375<0 848.114> 200 557 229 487 0.937476 0.348051<2.8232 869.154>
LayerCount: 2
Fore
SplineSet
1099 810 m 1,0,-1
 229 487 l 1,1,-1
 200 547 l 1,2,-1
 200 557 l 1,3,-1
 1015 859 l 1,4,-1
 200 1135 l 1,5,-1
 200 1145 l 1,6,-1
 264 1279 l 1,7,-1
 1165 960 l 1,8,-1
 1165 950 l 1,9,-1
 1099 810 l 1,0,-1
266 425 m 1,10,-1
 1165 425 l 1,11,-1
 1165 415 l 1,12,-1
 1099 275 l 1,13,-1
 200 275 l 1,14,-1
 200 285 l 1,15,-1
 266 425 l 1,10,-1
EndSplineSet
Validated: 1
EndChar

StartChar: lozenge
Encoding: 9674 9674 167
Width: 1134
GlyphClass: 2
Flags: W
HStem: -20 21G<554.678 579.273> 1510 20G<555.207 578.838>
DStem2: 100 738 253 833 0.507923 0.861403<159.545 659.822> 253 833 100 738 0.524536 -0.851388<0.627871 717.553> 567 1530 507 1264 0.509354 -0.860557<198.347 916.848> 626 220 567 -20 0.523035 0.852311<0 492.332>
LayerCount: 2
Fore
SplineSet
626 220 m 1,0,-1
 878 643 l 1,1,-1
 507 1264 l 1,2,-1
 253 833 l 1,3,-1
 626 220 l 1,0,-1
567 -20 m 1,4,-1
 100 738 l 1,5,-1
 567 1530 l 1,6,-1
 1034 741 l 1,7,-1
 567 -20 l 1,4,-1
EndSplineSet
Validated: 1
EndChar

StartChar: Oslash
Encoding: 216 216 168
Width: 1330
Flags: W
HStem: -20 90<500.911 831.524> 1440 90<497.861 830.576>
VStem: 160 200<260.188 1246.64> 970 200<263.359 1248.1>
DStem2: 241 -36 349 -40 0.422823 0.906212<42.04 145.828 322.118 1470.06 1646.35 1750.14>
LayerCount: 2
Fore
SplineSet
666 -20 m 0,0,1
 513 -20 513 -20 393 54 c 1,2,-1
 349 -40 l 1,3,-1
 250 -40 l 1,4,-1
 241 -36 l 1,5,-1
 312 117 l 17,6,7
 160 247 160 247 160 474 c 2,8,-1
 160 1036 l 2,9,10
 160 1248 160 1248 308 1389 c 128,-1,11
 456 1530 456 1530 666 1530 c 0,12,13
 818 1530 818 1530 937 1456 c 1,14,-1
 981 1550 l 1,15,-1
 1080 1550 l 1,16,-1
 1089 1546 l 1,17,-1
 1018 1394 l 17,18,19
 1170 1259 1170 1259 1170 1036 c 2,20,-1
 1170 474 l 2,21,22
 1170 262 1170 262 1023 121 c 128,-1,23
 876 -20 876 -20 666 -20 c 0,0,1
441 158 m 1,24,25
 539 70 539 70 665.5 70 c 128,-1,26
 792 70 792 70 881 150.5 c 128,-1,27
 970 231 970 231 970 358 c 2,28,-1
 970 1152 l 2,29,30
 970 1208 970 1208 953 1254 c 1,31,-1
 441 158 l 1,24,25
889 1352 m 1,32,33
 796 1440 796 1440 665 1440 c 0,34,35
 538 1440 538 1440 449 1360 c 0,36,37
 360 1279 360 1279 360 1152 c 2,38,-1
 360 358 l 2,39,40
 360 303 360 303 377 256 c 1,41,-1
 889 1352 l 1,32,33
EndSplineSet
Validated: 1
EndChar

StartChar: oslash
Encoding: 248 248 169
Width: 1150
Flags: W
HStem: -20 80<439.337 710.628> 1040 80<439.372 710.566>
VStem: 160 180<199.252 898.53> 810 180<201.47 899.074>
DStem2: 247 -36 355 -40 0.422379 0.906419<41.9913 112.684 258.141 1081.26 1226.72 1297.41>
LayerCount: 2
Fore
SplineSet
575 60 m 0,0,1
 673 60 673 60 741.5 123.5 c 128,-1,2
 810 187 810 187 810 286 c 2,3,-1
 810 814 l 2,4,5
 810 862 810 862 794 902 c 1,6,-1
 425 110 l 1,7,8
 488 60 488 60 575 60 c 0,0,1
575 -20 m 0,9,10
 470 -20 470 -20 384 23 c 1,11,-1
 355 -40 l 1,12,-1
 256 -40 l 1,13,-1
 247 -36 l 1,14,-1
 301 79 l 1,15,16
 160 183 160 183 160 388 c 2,17,-1
 160 712 l 2,18,19
 160 886 160 886 281.5 1003 c 128,-1,20
 403 1120 403 1120 575 1120 c 0,21,22
 680 1120 680 1120 766 1077 c 1,23,-1
 795 1140 l 1,24,-1
 894 1140 l 1,25,-1
 903 1136 l 1,26,-1
 849 1021 l 1,27,28
 990 903 990 903 990 712 c 2,29,-1
 990 388 l 2,30,31
 990 214 990 214 868.5 97 c 128,-1,32
 747 -20 747 -20 575 -20 c 0,9,10
356 198 m 1,33,-1
 725 990 l 1,34,35
 661 1040 661 1040 575 1040 c 0,36,37
 477 1040 477 1040 408.5 976.5 c 128,-1,38
 340 913 340 913 340 814 c 2,39,-1
 340 286 l 2,40,41
 340 238 340 238 356 198 c 1,33,-1
EndSplineSet
Validated: 1
EndChar

StartChar: multiply
Encoding: 215 215 170
Width: 1142
Flags: W
HStem: 649 212<465 677>
VStem: 465 212<649 861>
DStem2: 353 1080 200 1020 0.706507 -0.707706<0 309.006 459.04 768.046> 200 490 353 430 0.706507 0.707706<65.6332 374.639 524.673 833.679>
LayerCount: 2
Fore
SplineSet
789 1080 m 1,0,-1
 935 1027 l 1,1,-1
 942 1020 l 1,2,-1
 677 755 l 1,3,-1
 942 490 l 1,4,-1
 935 483 l 1,5,-1
 789 430 l 1,6,-1
 571 649 l 1,7,-1
 353 430 l 1,8,-1
 207 483 l 1,9,-1
 200 490 l 1,10,-1
 465 755 l 1,11,-1
 200 1020 l 1,12,-1
 207 1027 l 1,13,-1
 353 1080 l 1,14,-1
 571 861 l 1,15,-1
 789 1080 l 1,0,-1
EndSplineSet
Validated: 1
EndChar

StartChar: divide
Encoding: 247 247 171
Width: 1200
Flags: W
HStem: 306 245<516.097 683.903> 680 150<216 984> 959 245<516.097 683.903>
VStem: 480 240<343.129 513.871 996.129 1166.87>
CounterMasks: 1 e0
LayerCount: 2
Fore
SplineSet
216 830 m 1,0,-1
 1050 830 l 1,1,-1
 1050 820 l 1,2,-1
 984 680 l 1,3,-1
 150 680 l 1,4,-1
 150 690 l 1,5,-1
 216 830 l 1,0,-1
600 1204 m 128,-1,7
 650 1204 650 1204 685 1168 c 128,-1,8
 720 1132 720 1132 720 1081.5 c 128,-1,9
 720 1031 720 1031 685 995 c 128,-1,10
 650 959 650 959 600 959 c 128,-1,11
 550 959 550 959 515 995 c 128,-1,12
 480 1031 480 1031 480 1081.5 c 128,-1,13
 480 1132 480 1132 515 1168 c 128,-1,6
 550 1204 550 1204 600 1204 c 128,-1,7
600 306 m 128,-1,15
 550 306 550 306 515 342 c 128,-1,16
 480 378 480 378 480 428.5 c 128,-1,17
 480 479 480 479 515 515 c 128,-1,18
 550 551 550 551 600 551 c 128,-1,19
 650 551 650 551 685 515 c 128,-1,20
 720 479 720 479 720 428.5 c 128,-1,21
 720 378 720 378 685 342 c 128,-1,14
 650 306 650 306 600 306 c 128,-1,15
EndSplineSet
Validated: 1
EndChar

StartChar: uni1E02
Encoding: 7682 7682 172
Width: 1250
Flags: W
HStem: 0 90<400 824.039> 791 90<400 794.579> 1420 90<400 794.034> 1630 245<521.097 688.903>
VStem: 200 200<90 791 881 1420> 485 240<1667.13 1837.87> 870 209<973.612 1317.92> 949 221<255.884 662.444>
LayerCount: 2
Fore
SplineSet
400 881 m 1,0,-1
 655 881 l 2,1,2
 747 881 747 881 805 932 c 0,3,4
 870 989 870 989 870 1154 c 0,5,6
 870 1312 870 1312 805 1369 c 0,7,8
 747 1420 747 1420 655 1420 c 2,9,-1
 400 1420 l 1,10,-1
 400 881 l 1,0,-1
400 90 m 1,11,-1
 644 90 l 2,12,13
 799 90 799 90 884 185 c 0,14,15
 949 258 949 258 949 438 c 0,16,17
 949 620 949 620 884 696 c 0,18,19
 803 791 803 791 644 791 c 2,20,-1
 400 791 l 1,21,-1
 400 90 l 1,11,-1
200 0 m 1,22,-1
 200 1440 l 1,23,-1
 348 1510 l 1,24,-1
 665 1510 l 2,25,26
 827 1510 827 1510 946 1418 c 0,27,28
 1079 1314 1079 1314 1079 1141 c 0,29,30
 1079 969 1079 969 927 855 c 1,31,32
 985 831 985 831 1026 794 c 0,33,34
 1170 663 1170 663 1170 463 c 0,35,36
 1170 264 1170 264 1042 137 c 0,37,38
 905 0 905 0 665 0 c 2,39,-1
 200 0 l 1,22,-1
605 1875 m 128,-1,41
 655 1875 655 1875 690 1839 c 128,-1,42
 725 1803 725 1803 725 1752.5 c 128,-1,43
 725 1702 725 1702 690 1666 c 128,-1,44
 655 1630 655 1630 605 1630 c 128,-1,45
 555 1630 555 1630 520 1666 c 128,-1,46
 485 1702 485 1702 485 1752.5 c 128,-1,47
 485 1803 485 1803 520 1839 c 128,-1,40
 555 1875 555 1875 605 1875 c 128,-1,41
EndSplineSet
Validated: 1
EndChar

StartChar: uni1E03
Encoding: 7683 7683 173
Width: 1170
Flags: W
HStem: -20 80<457.635 721.869> 1040 80<456.041 721.869> 1220 245<512.097 679.903> 1510 20G<308.025 360>
VStem: 180 180<201.47 951.439 1031 1449> 476 240<1257.13 1427.87> 815 195<201.47 898.53>
LayerCount: 2
Fore
SplineSet
590 60 m 128,-1,1
 688 60 688 60 751.5 123.5 c 128,-1,2
 815 187 815 187 815 286 c 2,3,-1
 815 814 l 2,4,5
 815 913 815 913 751.5 976.5 c 128,-1,6
 688 1040 688 1040 590 1040 c 128,-1,7
 492 1040 492 1040 426 976.5 c 128,-1,8
 360 913 360 913 360 814 c 2,9,-1
 360 286 l 2,10,11
 360 187 360 187 426 123.5 c 128,-1,0
 492 60 492 60 590 60 c 128,-1,1
595 -20 m 128,-1,13
 423 -20 423 -20 301.5 97 c 128,-1,14
 180 214 180 214 180 388 c 2,15,-1
 180 1449 l 1,16,-1
 350 1530 l 1,17,-1
 360 1530 l 1,18,-1
 360 1031 l 1,19,20
 463 1120 463 1120 595 1120 c 0,21,22
 767 1120 767 1120 888.5 1003 c 128,-1,23
 1010 886 1010 886 1010 712 c 2,24,-1
 1010 388 l 2,25,26
 1010 214 1010 214 888.5 97 c 128,-1,12
 767 -20 767 -20 595 -20 c 128,-1,13
596 1465 m 128,-1,28
 646 1465 646 1465 681 1429 c 128,-1,29
 716 1393 716 1393 716 1342.5 c 128,-1,30
 716 1292 716 1292 681 1256 c 128,-1,31
 646 1220 646 1220 596 1220 c 128,-1,32
 546 1220 546 1220 511 1256 c 128,-1,33
 476 1292 476 1292 476 1342.5 c 128,-1,34
 476 1393 476 1393 511 1429 c 128,-1,27
 546 1465 546 1465 596 1465 c 128,-1,28
EndSplineSet
Validated: 1
EndChar

StartChar: uni1E0A
Encoding: 7690 7690 174
Width: 1350
Flags: W
HStem: 0 90<400 839.926> 1420 90<400 840.078> 1630 245<551.097 718.903>
VStem: 200 200<90 1420> 515 240<1667.13 1837.87> 980 210<285.324 1226.64>
LayerCount: 2
Fore
SplineSet
400 90 m 1,0,-1
 675 90 l 2,1,2
 800 90 800 90 890 170 c 128,-1,3
 980 250 980 250 980 378 c 18,4,-1
 980 1132 l 10,5,6
 980 1259 980 1259 890.5 1339.5 c 128,-1,7
 801 1420 801 1420 675 1420 c 2,8,-1
 400 1420 l 1,9,-1
 400 90 l 1,0,-1
200 0 m 1,10,-1
 200 1440 l 1,11,-1
 348 1510 l 1,12,-1
 685 1510 l 2,13,14
 896 1510 896 1510 1043 1369 c 128,-1,15
 1190 1228 1190 1228 1190 1016 c 2,16,-1
 1190 494 l 2,17,18
 1190 284 1190 284 1042 141 c 0,19,20
 896 0 896 0 685 0 c 2,21,-1
 200 0 l 1,10,-1
635 1875 m 128,-1,23
 685 1875 685 1875 720 1839 c 128,-1,24
 755 1803 755 1803 755 1752.5 c 128,-1,25
 755 1702 755 1702 720 1666 c 128,-1,26
 685 1630 685 1630 635 1630 c 128,-1,27
 585 1630 585 1630 550 1666 c 128,-1,28
 515 1702 515 1702 515 1752.5 c 128,-1,29
 515 1803 515 1803 550 1839 c 128,-1,22
 585 1875 585 1875 635 1875 c 128,-1,23
EndSplineSet
Validated: 1
EndChar

StartChar: uni1E0B
Encoding: 7691 7691 175
Width: 1170
Flags: W
HStem: -20 80<448.131 712.365> 1040 80<448.131 713.959> 1220 245<490.097 657.903> 1510 20G<938.025 990>
VStem: 160 195<201.47 898.53> 454 240<1257.13 1427.87> 810 180<201.47 951.439 1031 1449>
LayerCount: 2
Fore
SplineSet
580 60 m 128,-1,1
 678 60 678 60 744 123.5 c 128,-1,2
 810 187 810 187 810 286 c 2,3,-1
 810 814 l 2,4,5
 810 913 810 913 744 976.5 c 128,-1,6
 678 1040 678 1040 580 1040 c 128,-1,7
 482 1040 482 1040 418.5 976.5 c 128,-1,8
 355 913 355 913 355 814 c 2,9,-1
 355 286 l 2,10,11
 355 187 355 187 418.5 123.5 c 128,-1,0
 482 60 482 60 580 60 c 128,-1,1
575 -20 m 128,-1,13
 403 -20 403 -20 281.5 97 c 128,-1,14
 160 214 160 214 160 388 c 2,15,-1
 160 712 l 2,16,17
 160 886 160 886 281.5 1003 c 128,-1,18
 403 1120 403 1120 575 1120 c 0,19,20
 707 1120 707 1120 810 1031 c 1,21,-1
 810 1449 l 1,22,-1
 980 1530 l 1,23,-1
 990 1530 l 1,24,-1
 990 388 l 2,25,26
 990 214 990 214 868.5 97 c 128,-1,12
 747 -20 747 -20 575 -20 c 128,-1,13
574 1465 m 128,-1,28
 624 1465 624 1465 659 1429 c 128,-1,29
 694 1393 694 1393 694 1342.5 c 128,-1,30
 694 1292 694 1292 659 1256 c 128,-1,31
 624 1220 624 1220 574 1220 c 128,-1,32
 524 1220 524 1220 489 1256 c 128,-1,33
 454 1292 454 1292 454 1342.5 c 128,-1,34
 454 1393 454 1393 489 1429 c 128,-1,27
 524 1465 524 1465 574 1465 c 128,-1,28
EndSplineSet
Validated: 1
EndChar

StartChar: uni1E1E
Encoding: 7710 7710 176
Width: 1010
Flags: W
HStem: -20 21G<200 252.222> 710 90<400 922> 1420 90<400 922> 1630 245<510.097 677.903>
VStem: 200 200<70 710 800 1420> 474 240<1667.13 1837.87>
LayerCount: 2
Fore
SplineSet
200 -20 m 1,0,-1
 200 1440 l 1,1,-1
 348 1510 l 1,2,-1
 960 1510 l 1,3,-1
 960 1500 l 1,4,-1
 922 1420 l 1,5,-1
 400 1420 l 1,6,-1
 400 800 l 1,7,-1
 960 800 l 1,8,-1
 960 790 l 1,9,-1
 922 710 l 1,10,-1
 400 710 l 1,11,-1
 400 70 l 1,12,-1
 210 -20 l 1,13,-1
 200 -20 l 1,0,-1
594 1875 m 128,-1,15
 644 1875 644 1875 679 1839 c 128,-1,16
 714 1803 714 1803 714 1752.5 c 128,-1,17
 714 1702 714 1702 679 1666 c 128,-1,18
 644 1630 644 1630 594 1630 c 128,-1,19
 544 1630 544 1630 509 1666 c 128,-1,20
 474 1702 474 1702 474 1752.5 c 128,-1,21
 474 1803 474 1803 509 1839 c 128,-1,14
 544 1875 544 1875 594 1875 c 128,-1,15
EndSplineSet
Validated: 1
EndChar

StartChar: uni1E1F
Encoding: 7711 7711 177
Width: 780
Flags: W
HStem: -20 21G<180 231.975> 820 80<360 698> 1430 80<459.88 737> 1630 245<356.097 523.903>
VStem: 180 180<61 820 900 1288.53> 320 240<1667.13 1837.87>
LayerCount: 2
Fore
SplineSet
180 -20 m 1,0,-1
 180 1102 l 2,1,2
 180 1276 180 1276 301.5 1393 c 128,-1,3
 423 1510 423 1510 595 1510 c 2,4,-1
 770 1510 l 1,5,-1
 770 1500 l 1,6,-1
 737 1430 l 1,7,-1
 595 1430 l 2,8,9
 497 1430 497 1430 428.5 1366.5 c 128,-1,10
 360 1303 360 1303 360 1204 c 2,11,-1
 360 900 l 1,12,-1
 731 900 l 1,13,-1
 731 890 l 1,14,-1
 698 820 l 1,15,-1
 360 820 l 1,16,-1
 360 61 l 1,17,-1
 190 -20 l 1,18,-1
 180 -20 l 1,0,-1
440 1875 m 128,-1,20
 490 1875 490 1875 525 1839 c 128,-1,21
 560 1803 560 1803 560 1752.5 c 128,-1,22
 560 1702 560 1702 525 1666 c 128,-1,23
 490 1630 490 1630 440 1630 c 128,-1,24
 390 1630 390 1630 355 1666 c 128,-1,25
 320 1702 320 1702 320 1752.5 c 128,-1,26
 320 1803 320 1803 355 1839 c 128,-1,19
 390 1875 390 1875 440 1875 c 128,-1,20
EndSplineSet
Validated: 1
EndChar

StartChar: uni1E40
Encoding: 7744 7744 178
Width: 2180
Flags: W
HStem: -20 21G<180 232.222 990 1042.22 1800 1852.22> 1440 90<519.38 851.44 1328.53 1661.52> 1630 245<1003.1 1170.9>
VStem: 180 200<70 1246.64> 967 240<1667.13 1837.87> 990 200<70 1307.6> 1800 200<70 1246.64>
LayerCount: 2
Fore
SplineSet
180 -20 m 1,0,-1
 180 1036 l 2,1,2
 180 1248 180 1248 327.5 1389 c 128,-1,3
 475 1530 475 1530 685.5 1530 c 128,-1,4
 896 1530 896 1530 1043 1389 c 0,5,6
 1069 1364 1069 1364 1090 1337 c 1,7,8
 1109 1361 1109 1361 1138 1389 c 0,9,10
 1281 1530 1281 1530 1496 1530 c 0,11,12
 1706 1530 1706 1530 1853 1389 c 128,-1,13
 2000 1248 2000 1248 2000 1036 c 2,14,-1
 2000 70 l 1,15,-1
 1810 -20 l 1,16,-1
 1800 -20 l 1,17,-1
 1800 1152 l 2,18,19
 1800 1279 1800 1279 1711 1359.5 c 128,-1,20
 1622 1440 1622 1440 1495.5 1440 c 128,-1,21
 1369 1440 1369 1440 1279.5 1359.5 c 128,-1,22
 1190 1279 1190 1279 1190 1152 c 2,23,-1
 1190 70 l 1,24,-1
 1000 -20 l 1,25,-1
 990 -20 l 1,26,-1
 990 1152 l 2,27,28
 990 1279 990 1279 901 1359.5 c 128,-1,29
 812 1440 812 1440 685.5 1440 c 128,-1,30
 559 1440 559 1440 469.5 1359.5 c 128,-1,31
 380 1279 380 1279 380 1152 c 2,32,-1
 380 70 l 1,33,-1
 190 -20 l 1,34,-1
 180 -20 l 1,0,-1
1087 1875 m 128,-1,36
 1137 1875 1137 1875 1172 1839 c 128,-1,37
 1207 1803 1207 1803 1207 1752.5 c 128,-1,38
 1207 1702 1207 1702 1172 1666 c 128,-1,39
 1137 1630 1137 1630 1087 1630 c 128,-1,40
 1037 1630 1037 1630 1002 1666 c 128,-1,41
 967 1702 967 1702 967 1752.5 c 128,-1,42
 967 1803 967 1803 1002 1839 c 128,-1,35
 1037 1875 1037 1875 1087 1875 c 128,-1,36
EndSplineSet
Validated: 1
EndChar

StartChar: uni1E41
Encoding: 7745 7745 179
Width: 1840
Flags: W
HStem: -20 21G<180 231.975 830 881.975 1480 1531.98> 1040 80<459.372 729.852 1109.74 1380.71> 1220 245<832.097 999.903>
VStem: 180 180<61 898.53> 796 240<1257.13 1427.87> 830 180<61 949.238> 1480 180<61 898.53>
LayerCount: 2
Fore
SplineSet
180 -20 m 1,0,-1
 180 712 l 2,1,2
 180 886 180 886 301.5 1003 c 128,-1,3
 423 1120 423 1120 595 1120 c 0,4,5
 764 1120 764 1120 888 1003 c 0,6,7
 905 987 905 987 920 969 c 1,8,9
 936 986 936 986 952 1003 c 0,10,11
 1074 1120 1074 1120 1245.5 1120 c 128,-1,12
 1417 1120 1417 1120 1538.5 1003 c 128,-1,13
 1660 886 1660 886 1660 712 c 2,14,-1
 1660 61 l 1,15,-1
 1490 -20 l 1,16,-1
 1480 -20 l 1,17,-1
 1480 814 l 2,18,19
 1480 913 1480 913 1411.5 976.5 c 128,-1,20
 1343 1040 1343 1040 1245 1040 c 128,-1,21
 1147 1040 1147 1040 1078.5 976.5 c 128,-1,22
 1010 913 1010 913 1010 814 c 2,23,-1
 1010 61 l 1,24,-1
 840 -20 l 1,25,-1
 830 -20 l 1,26,-1
 830 814 l 2,27,28
 830 913 830 913 761.5 976.5 c 128,-1,29
 693 1040 693 1040 595 1040 c 128,-1,30
 497 1040 497 1040 428.5 976.5 c 128,-1,31
 360 913 360 913 360 814 c 2,32,-1
 360 61 l 1,33,-1
 190 -20 l 1,34,-1
 180 -20 l 1,0,-1
916 1465 m 128,-1,36
 966 1465 966 1465 1001 1429 c 128,-1,37
 1036 1393 1036 1393 1036 1342.5 c 128,-1,38
 1036 1292 1036 1292 1001 1256 c 128,-1,39
 966 1220 966 1220 916 1220 c 128,-1,40
 866 1220 866 1220 831 1256 c 128,-1,41
 796 1292 796 1292 796 1342.5 c 128,-1,42
 796 1393 796 1393 831 1429 c 128,-1,35
 866 1465 866 1465 916 1465 c 128,-1,36
EndSplineSet
Validated: 1
EndChar

StartChar: uni1E56
Encoding: 7766 7766 180
Width: 1210
Flags: W
HStem: -20 21G<200 252.222> 500 90<400 803.36> 1420 90<400 803.36> 1630 245<504.097 671.903>
VStem: 200 200<70 500 590 1420> 468 240<1667.13 1837.87> 944 216<788.304 1220.86>
LayerCount: 2
Fore
SplineSet
400 590 m 1,0,-1
 656 590 l 10,1,2
 783 590 783 590 863.5 689 c 128,-1,3
 944 788 944 788 944 1004.5 c 128,-1,4
 944 1221 944 1221 863.5 1320.5 c 128,-1,5
 783 1420 783 1420 656 1420 c 18,6,-1
 400 1420 l 1,7,-1
 400 590 l 1,0,-1
200 -20 m 1,8,-1
 200 1440 l 1,9,-1
 348 1510 l 1,10,-1
 666 1510 l 2,11,12
 878 1510 878 1510 1019 1362.5 c 128,-1,13
 1160 1215 1160 1215 1160 1004.5 c 128,-1,14
 1160 794 1160 794 1019 647 c 128,-1,15
 878 500 878 500 666 500 c 2,16,-1
 400 500 l 1,17,-1
 400 70 l 1,18,-1
 210 -20 l 1,19,-1
 200 -20 l 1,8,-1
588 1875 m 128,-1,21
 638 1875 638 1875 673 1839 c 128,-1,22
 708 1803 708 1803 708 1752.5 c 128,-1,23
 708 1702 708 1702 673 1666 c 128,-1,24
 638 1630 638 1630 588 1630 c 128,-1,25
 538 1630 538 1630 503 1666 c 128,-1,26
 468 1702 468 1702 468 1752.5 c 128,-1,27
 468 1803 468 1803 503 1839 c 128,-1,20
 538 1875 538 1875 588 1875 c 128,-1,21
EndSplineSet
Validated: 1
EndChar

StartChar: uni1E57
Encoding: 7767 7767 181
Width: 1170
Flags: W
HStem: -430 21G<180 231.975> -20 80<456.041 721.869> 1040 80<457.635 721.869> 1220 245<514.097 681.903>
VStem: 180 180<-349 69 148.561 898.53> 478 240<1257.13 1427.87> 815 195<201.47 898.53>
LayerCount: 2
Fore
SplineSet
590 60 m 128,-1,1
 688 60 688 60 751.5 123.5 c 128,-1,2
 815 187 815 187 815 286 c 2,3,-1
 815 814 l 2,4,5
 815 913 815 913 751.5 976.5 c 128,-1,6
 688 1040 688 1040 590 1040 c 128,-1,7
 492 1040 492 1040 426 976.5 c 128,-1,8
 360 913 360 913 360 814 c 2,9,-1
 360 286 l 2,10,11
 360 187 360 187 426 123.5 c 128,-1,0
 492 60 492 60 590 60 c 128,-1,1
180 -430 m 1,12,-1
 180 712 l 2,13,14
 180 886 180 886 301.5 1003 c 128,-1,15
 423 1120 423 1120 595 1120 c 128,-1,16
 767 1120 767 1120 888.5 1003 c 128,-1,17
 1010 886 1010 886 1010 712 c 2,18,-1
 1010 388 l 2,19,20
 1010 214 1010 214 888.5 97 c 128,-1,21
 767 -20 767 -20 595 -20 c 0,22,23
 463 -20 463 -20 360 69 c 1,24,-1
 360 -349 l 1,25,-1
 190 -430 l 1,26,-1
 180 -430 l 1,12,-1
598 1465 m 128,-1,28
 648 1465 648 1465 683 1429 c 128,-1,29
 718 1393 718 1393 718 1342.5 c 128,-1,30
 718 1292 718 1292 683 1256 c 128,-1,31
 648 1220 648 1220 598 1220 c 128,-1,32
 548 1220 548 1220 513 1256 c 128,-1,33
 478 1292 478 1292 478 1342.5 c 128,-1,34
 478 1393 478 1393 513 1429 c 128,-1,27
 548 1465 548 1465 598 1465 c 128,-1,28
EndSplineSet
Validated: 1
EndChar

StartChar: uni1E6A
Encoding: 7786 7786 182
Width: 1070
Flags: W
HStem: -20 21G<435 487.222> 1420 90<48 435 635 1022> 1630 245<445.097 612.903>
VStem: 409 240<1667.13 1837.87> 435 200<70 1420>
LayerCount: 2
Fore
SplineSet
435 -20 m 1,0,-1
 435 1420 l 1,1,-1
 10 1420 l 1,2,-1
 10 1430 l 1,3,-1
 48 1510 l 1,4,-1
 1060 1510 l 1,5,-1
 1060 1500 l 1,6,-1
 1022 1420 l 1,7,-1
 635 1420 l 1,8,-1
 635 70 l 1,9,-1
 445 -20 l 1,10,-1
 435 -20 l 1,0,-1
529 1875 m 128,-1,12
 579 1875 579 1875 614 1839 c 128,-1,13
 649 1803 649 1803 649 1752.5 c 128,-1,14
 649 1702 649 1702 614 1666 c 128,-1,15
 579 1630 579 1630 529 1630 c 128,-1,16
 479 1630 479 1630 444 1666 c 128,-1,17
 409 1702 409 1702 409 1752.5 c 128,-1,18
 409 1803 409 1803 444 1839 c 128,-1,11
 479 1875 479 1875 529 1875 c 128,-1,12
EndSplineSet
Validated: 1
EndChar

StartChar: uni1E6B
Encoding: 7787 7787 183
Width: 780
Flags: W
HStem: -20 21G<300 351.772> 1020 80<43 300 475 737> 1510 20G<423.228 475> 1630 245<306.097 473.903>
VStem: 270 240<1667.13 1837.87> 300 175<59 1020 1100 1451>
LayerCount: 2
Fore
SplineSet
300 -20 m 1,0,-1
 300 1020 l 1,1,-1
 10 1020 l 1,2,-1
 10 1030 l 1,3,-1
 43 1100 l 1,4,-1
 300 1100 l 1,5,-1
 300 1451 l 1,6,-1
 465 1530 l 1,7,-1
 475 1530 l 1,8,-1
 475 1100 l 1,9,-1
 770 1100 l 1,10,-1
 770 1090 l 1,11,-1
 737 1020 l 1,12,-1
 475 1020 l 1,13,-1
 475 59 l 1,14,-1
 310 -20 l 1,15,-1
 300 -20 l 1,0,-1
390 1875 m 128,-1,17
 440 1875 440 1875 475 1839 c 128,-1,18
 510 1803 510 1803 510 1752.5 c 128,-1,19
 510 1702 510 1702 475 1666 c 128,-1,20
 440 1630 440 1630 390 1630 c 128,-1,21
 340 1630 340 1630 305 1666 c 128,-1,22
 270 1702 270 1702 270 1752.5 c 128,-1,23
 270 1803 270 1803 305 1839 c 128,-1,16
 340 1875 340 1875 390 1875 c 128,-1,17
EndSplineSet
Validated: 1
EndChar

StartChar: uni1E60
Encoding: 7776 7776 184
Width: 1140
Flags: W
HStem: -20 90<394.397 705.206> 1440 90<434.148 687.116> 1630 245<483.097 650.903>
VStem: 60 212<242 369.813> 153 205<1013.46 1322.15> 447 240<1667.13 1837.87> 845 215<269.38 639.748>
LayerCount: 2
Fore
SplineSet
548 -20 m 0,0,1
 344 -20 344 -20 196 121 c 0,2,3
 90 222 90 222 60 363 c 1,4,-1
 262 459 l 1,5,-1
 272 459 l 1,6,-1
 272 358 l 10,7,8
 272 230 272 230 350 150 c 128,-1,9
 428 70 428 70 548 70 c 0,10,11
 675 70 675 70 761 161 c 0,12,13
 845 250 845 250 845 425 c 0,14,15
 845 588 845 588 779 674 c 0,16,17
 702 774 702 774 567 792 c 0,18,19
 430 811 430 811 323 862 c 0,20,21
 153 943 153 943 153 1129 c 0,22,23
 153 1312 153 1312 278 1424 c 0,24,25
 396 1530 396 1530 563 1530 c 128,-1,26
 730 1530 730 1530 849 1417 c 0,27,28
 934 1337 934 1337 957 1237 c 1,29,-1
 766 1146 l 1,30,-1
 758 1146 l 1,31,32
 758 1323 758 1323 712 1374 c 0,33,34
 651 1440 651 1440 560.5 1440 c 128,-1,35
 470 1440 470 1440 412 1375 c 0,36,37
 358 1314 358 1314 358 1190 c 0,38,39
 358 933 358 933 598 902 c 0,40,41
 807 875 807 875 934 763 c 0,42,43
 1060 652 1060 652 1060 477 c 0,44,45
 1059 265 1059 265 909.5 122.5 c 128,-1,46
 760 -20 760 -20 548 -20 c 0,0,1
567 1875 m 128,-1,48
 617 1875 617 1875 652 1839 c 128,-1,49
 687 1803 687 1803 687 1752.5 c 128,-1,50
 687 1702 687 1702 652 1666 c 128,-1,51
 617 1630 617 1630 567 1630 c 128,-1,52
 517 1630 517 1630 482 1666 c 128,-1,53
 447 1702 447 1702 447 1752.5 c 128,-1,54
 447 1803 447 1803 482 1839 c 128,-1,47
 517 1875 517 1875 567 1875 c 128,-1,48
EndSplineSet
Validated: 1
EndChar

StartChar: uni1E61
Encoding: 7777 7777 185
Width: 930
Flags: W
HStem: -20 80<325.55 576.648> 1040 80<362.164 549.302> 1220 245<369.097 536.903>
VStem: 128 183<700.978 975.843> 333 240<1257.13 1427.87> 660 190<166.762 488.408>
LayerCount: 2
Fore
SplineSet
449 -20 m 0,0,1
 281 -20 281 -20 168 85 c 0,2,3
 89 158 89 158 60 272 c 1,4,-1
 238 356 l 1,5,-1
 248 356 l 1,6,7
 248 164 248 164 316 107 c 0,8,9
 372 60 372 60 462 60 c 0,10,11
 541 60 541 60 600 119 c 0,12,13
 660 179 660 179 660 342 c 0,14,15
 660 541 660 541 456 563 c 0,16,17
 297 580 297 580 220 644 c 0,18,19
 128 721 128 721 128 832 c 0,20,21
 128 953 128 953 228 1038 c 0,22,23
 324 1120 324 1120 460 1120 c 0,24,25
 597 1120 597 1120 688 1036 c 0,26,27
 754 975 754 975 776 891 c 1,28,-1
 601 808 l 1,29,-1
 591 808 l 1,30,31
 591 949 591 949 554.5 994.5 c 128,-1,32
 518 1040 518 1040 459.5 1040 c 128,-1,33
 401 1040 401 1040 358 998 c 0,34,35
 311 953 311 953 311 827 c 0,36,37
 311 665 311 665 489 647 c 0,38,39
 671 628 671 628 757 553 c 0,40,41
 850 470 850 470 850 339 c 0,42,43
 850 182 850 182 733 77 c 0,44,45
 625 -20 625 -20 449 -20 c 0,0,1
453 1465 m 128,-1,47
 503 1465 503 1465 538 1429 c 128,-1,48
 573 1393 573 1393 573 1342.5 c 128,-1,49
 573 1292 573 1292 538 1256 c 128,-1,50
 503 1220 503 1220 453 1220 c 128,-1,51
 403 1220 403 1220 368 1256 c 128,-1,52
 333 1292 333 1292 333 1342.5 c 128,-1,53
 333 1393 333 1393 368 1429 c 128,-1,46
 403 1465 403 1465 453 1465 c 128,-1,47
EndSplineSet
Validated: 1
EndChar

StartChar: Wgrave
Encoding: 7808 7808 186
Width: 2180
Flags: W
HStem: -20 90<518.476 851.467 1328.56 1660.62> 1510 20G<327.778 380 1137.78 1190 1947.78 2000>
VStem: 180 200<263.359 1440> 990 200<202.395 1440> 1800 200<263.359 1440>
DStem2: 1030 1937 900 1880 0.427336 -0.904093<0 339.921>
CounterMasks: 1 38
LayerCount: 2
Fore
SplineSet
684 -20 m 0,0,1
 474 -20 474 -20 327 121 c 128,-1,2
 180 262 180 262 180 474 c 2,3,-1
 180 1440 l 1,4,-1
 370 1530 l 1,5,-1
 380 1530 l 1,6,-1
 380 358 l 2,7,8
 380 231 380 231 469 150.5 c 128,-1,9
 558 70 558 70 684.5 70 c 128,-1,10
 811 70 811 70 900.5 150.5 c 128,-1,11
 990 231 990 231 990 358 c 2,12,-1
 990 1440 l 1,13,-1
 1180 1530 l 1,14,-1
 1190 1530 l 1,15,-1
 1190 358 l 2,16,17
 1190 231 1190 231 1279 150.5 c 128,-1,18
 1368 70 1368 70 1494.5 70 c 128,-1,19
 1621 70 1621 70 1710.5 150.5 c 128,-1,20
 1800 231 1800 231 1800 358 c 2,21,-1
 1800 1440 l 1,22,-1
 1990 1530 l 1,23,-1
 2000 1530 l 1,24,-1
 2000 474 l 2,25,26
 2000 262 2000 262 1852.5 121 c 128,-1,27
 1705 -20 1705 -20 1494.5 -20 c 128,-1,28
 1284 -20 1284 -20 1137 121 c 0,29,30
 1111 146 1111 146 1090 173 c 1,31,32
 1068 146 1068 146 1042 121 c 0,33,34
 899 -20 899 -20 684 -20 c 0,0,1
1020 1937 m 1,35,-1
 1030 1937 l 1,36,-1
 1177 1626 l 1,37,-1
 1059 1570 l 1,38,-1
 1049 1570 l 1,39,-1
 900 1880 l 1,40,-1
 1020 1937 l 1,35,-1
EndSplineSet
Validated: 1
EndChar

StartChar: wgrave
Encoding: 7809 7809 187
Width: 1840
Flags: W
HStem: -20 80<459.288 730.256 1110.15 1380.63> 1100 20G<308.025 360 958.025 1010 1608.02 1660> 1507 20G<809.895 871.453>
VStem: 180 180<201.47 1039> 830 180<150.762 1039> 1480 180<201.47 1039>
DStem2: 862 1527 732 1470 0.427336 -0.904093<0 339.921>
CounterMasks: 1 1c
LayerCount: 2
Fore
SplineSet
594.5 -20 m 128,-1,1
 423 -20 423 -20 301.5 97 c 128,-1,2
 180 214 180 214 180 388 c 2,3,-1
 180 1039 l 1,4,-1
 350 1120 l 1,5,-1
 360 1120 l 1,6,-1
 360 286 l 2,7,8
 360 187 360 187 428.5 123.5 c 128,-1,9
 497 60 497 60 595 60 c 128,-1,10
 693 60 693 60 761.5 123.5 c 128,-1,11
 830 187 830 187 830 286 c 2,12,-1
 830 1039 l 1,13,-1
 1000 1120 l 1,14,-1
 1010 1120 l 1,15,-1
 1010 286 l 2,16,17
 1010 187 1010 187 1078.5 123.5 c 128,-1,18
 1147 60 1147 60 1245 60 c 128,-1,19
 1343 60 1343 60 1411.5 123.5 c 128,-1,20
 1480 187 1480 187 1480 286 c 2,21,-1
 1480 1039 l 1,22,-1
 1650 1120 l 1,23,-1
 1660 1120 l 1,24,-1
 1660 388 l 2,25,26
 1660 214 1660 214 1538.5 97 c 128,-1,27
 1417 -20 1417 -20 1245 -20 c 0,28,29
 1076 -20 1076 -20 952 97 c 0,30,31
 935 113 935 113 920 131 c 1,32,33
 904 114 904 114 888 97 c 0,34,0
 766 -20 766 -20 594.5 -20 c 128,-1,1
852 1527 m 1,35,-1
 862 1527 l 1,36,-1
 1009 1216 l 1,37,-1
 891 1160 l 1,38,-1
 881 1160 l 1,39,-1
 732 1470 l 1,40,-1
 852 1527 l 1,35,-1
EndSplineSet
Validated: 1
EndChar

StartChar: Wacute
Encoding: 7810 7810 188
Width: 2180
Flags: W
HStem: -20 90<518.476 851.467 1328.56 1660.62> 1510 20G<327.778 380 1137.78 1190 1947.78 2000>
VStem: 180 200<263.359 1440> 990 200<202.395 1440> 1800 200<263.359 1440>
DStem2: 980 1626 1108 1570 0.427336 0.904093<4.06987 343.991>
CounterMasks: 1 38
LayerCount: 2
Fore
SplineSet
684 -20 m 0,0,1
 474 -20 474 -20 327 121 c 128,-1,2
 180 262 180 262 180 474 c 2,3,-1
 180 1440 l 1,4,-1
 370 1530 l 1,5,-1
 380 1530 l 1,6,-1
 380 358 l 2,7,8
 380 231 380 231 469 150.5 c 128,-1,9
 558 70 558 70 684.5 70 c 128,-1,10
 811 70 811 70 900.5 150.5 c 128,-1,11
 990 231 990 231 990 358 c 2,12,-1
 990 1440 l 1,13,-1
 1180 1530 l 1,14,-1
 1190 1530 l 1,15,-1
 1190 358 l 2,16,17
 1190 231 1190 231 1279 150.5 c 128,-1,18
 1368 70 1368 70 1494.5 70 c 128,-1,19
 1621 70 1621 70 1710.5 150.5 c 128,-1,20
 1800 231 1800 231 1800 358 c 2,21,-1
 1800 1440 l 1,22,-1
 1990 1530 l 1,23,-1
 2000 1530 l 1,24,-1
 2000 474 l 2,25,26
 2000 262 2000 262 1852.5 121 c 128,-1,27
 1705 -20 1705 -20 1494.5 -20 c 128,-1,28
 1284 -20 1284 -20 1137 121 c 0,29,30
 1111 146 1111 146 1090 173 c 1,31,32
 1068 146 1068 146 1042 121 c 0,33,34
 899 -20 899 -20 684 -20 c 0,0,1
1137 1937 m 1,35,-1
 1257 1880 l 1,36,-1
 1108 1570 l 1,37,-1
 1098 1570 l 1,38,-1
 980 1626 l 1,39,-1
 1127 1937 l 1,40,-1
 1137 1937 l 1,35,-1
EndSplineSet
Validated: 1
EndChar

StartChar: wacute
Encoding: 7811 7811 189
Width: 1840
Flags: W
HStem: -20 80<459.288 730.256 1110.15 1380.63> 1100 20G<308.025 360 958.025 1010 1608.02 1660> 1507 20G<939.547 1001.11>
VStem: 180 180<201.47 1039> 830 180<150.762 1039> 1480 180<201.47 1039>
DStem2: 802 1216 930 1160 0.427336 0.904093<4.06987 343.991>
CounterMasks: 1 1c
LayerCount: 2
Fore
SplineSet
594.5 -20 m 128,-1,1
 423 -20 423 -20 301.5 97 c 128,-1,2
 180 214 180 214 180 388 c 2,3,-1
 180 1039 l 1,4,-1
 350 1120 l 1,5,-1
 360 1120 l 1,6,-1
 360 286 l 2,7,8
 360 187 360 187 428.5 123.5 c 128,-1,9
 497 60 497 60 595 60 c 128,-1,10
 693 60 693 60 761.5 123.5 c 128,-1,11
 830 187 830 187 830 286 c 2,12,-1
 830 1039 l 1,13,-1
 1000 1120 l 1,14,-1
 1010 1120 l 1,15,-1
 1010 286 l 2,16,17
 1010 187 1010 187 1078.5 123.5 c 128,-1,18
 1147 60 1147 60 1245 60 c 128,-1,19
 1343 60 1343 60 1411.5 123.5 c 128,-1,20
 1480 187 1480 187 1480 286 c 2,21,-1
 1480 1039 l 1,22,-1
 1650 1120 l 1,23,-1
 1660 1120 l 1,24,-1
 1660 388 l 2,25,26
 1660 214 1660 214 1538.5 97 c 128,-1,27
 1417 -20 1417 -20 1245 -20 c 0,28,29
 1076 -20 1076 -20 952 97 c 0,30,31
 935 113 935 113 920 131 c 1,32,33
 904 114 904 114 888 97 c 0,34,0
 766 -20 766 -20 594.5 -20 c 128,-1,1
959 1527 m 1,35,-1
 1079 1470 l 1,36,-1
 930 1160 l 1,37,-1
 920 1160 l 1,38,-1
 802 1216 l 1,39,-1
 949 1527 l 1,40,-1
 959 1527 l 1,35,-1
EndSplineSet
Validated: 1
EndChar

StartChar: Wdieresis
Encoding: 7812 7812 190
Width: 2180
Flags: W
HStem: -20 90<518.476 851.467 1328.56 1660.62> 1510 20G<327.778 380 1137.78 1190 1947.78 2000> 1640 227<866.034 1021.97 1143 1299>
VStem: 180 200<263.359 1440> 832 224<1674.55 1832.45> 990 200<202.395 1440> 1110 222<1675.07 1832.93> 1800 200<263.359 1440>
LayerCount: 2
Fore
SplineSet
684 -20 m 0,0,1
 474 -20 474 -20 327 121 c 128,-1,2
 180 262 180 262 180 474 c 2,3,-1
 180 1440 l 1,4,-1
 370 1530 l 1,5,-1
 380 1530 l 1,6,-1
 380 358 l 2,7,8
 380 231 380 231 469 150.5 c 128,-1,9
 558 70 558 70 684.5 70 c 128,-1,10
 811 70 811 70 900.5 150.5 c 128,-1,11
 990 231 990 231 990 358 c 2,12,-1
 990 1440 l 1,13,-1
 1180 1530 l 1,14,-1
 1190 1530 l 1,15,-1
 1190 358 l 2,16,17
 1190 231 1190 231 1279 150.5 c 128,-1,18
 1368 70 1368 70 1494.5 70 c 128,-1,19
 1621 70 1621 70 1710.5 150.5 c 128,-1,20
 1800 231 1800 231 1800 358 c 2,21,-1
 1800 1440 l 1,22,-1
 1990 1530 l 1,23,-1
 2000 1530 l 1,24,-1
 2000 474 l 2,25,26
 2000 262 2000 262 1852.5 121 c 128,-1,27
 1705 -20 1705 -20 1494.5 -20 c 128,-1,28
 1284 -20 1284 -20 1137 121 c 0,29,30
 1111 146 1111 146 1090 173 c 1,31,32
 1068 146 1068 146 1042 121 c 0,33,34
 899 -20 899 -20 684 -20 c 0,0,1
1221 1868 m 128,-1,36
 1268 1868 1268 1868 1300 1834 c 128,-1,37
 1332 1800 1332 1800 1332 1754 c 128,-1,38
 1332 1708 1332 1708 1300 1674 c 128,-1,39
 1268 1640 1268 1640 1221 1640 c 128,-1,40
 1174 1640 1174 1640 1142 1674 c 128,-1,41
 1110 1708 1110 1708 1110 1754 c 128,-1,42
 1110 1800 1110 1800 1142 1834 c 128,-1,35
 1174 1868 1174 1868 1221 1868 c 128,-1,36
944 1867 m 128,-1,44
 990 1867 990 1867 1023 1833.5 c 128,-1,45
 1056 1800 1056 1800 1056 1753.5 c 128,-1,46
 1056 1707 1056 1707 1023 1673.5 c 128,-1,47
 990 1640 990 1640 944 1640 c 128,-1,48
 898 1640 898 1640 865 1673.5 c 128,-1,49
 832 1707 832 1707 832 1753.5 c 128,-1,50
 832 1800 832 1800 865 1833.5 c 128,-1,43
 898 1867 898 1867 944 1867 c 128,-1,44
EndSplineSet
Validated: 1
EndChar

StartChar: wdieresis
Encoding: 7813 7813 191
Width: 1840
Flags: W
HStem: -20 80<459.288 730.256 1110.15 1380.63> 1100 20G<308.025 360 958.025 1010 1608.02 1660> 1230 227<703.034 858.966 980.004 1136>
VStem: 180 180<201.47 1039> 669 224<1264.55 1422.45> 830 180<150.762 1039> 947 222<1265.07 1422.93> 1480 180<201.47 1039>
LayerCount: 2
Fore
SplineSet
594.5 -20 m 128,-1,1
 423 -20 423 -20 301.5 97 c 128,-1,2
 180 214 180 214 180 388 c 2,3,-1
 180 1039 l 1,4,-1
 350 1120 l 1,5,-1
 360 1120 l 1,6,-1
 360 286 l 2,7,8
 360 187 360 187 428.5 123.5 c 128,-1,9
 497 60 497 60 595 60 c 128,-1,10
 693 60 693 60 761.5 123.5 c 128,-1,11
 830 187 830 187 830 286 c 2,12,-1
 830 1039 l 1,13,-1
 1000 1120 l 1,14,-1
 1010 1120 l 1,15,-1
 1010 286 l 2,16,17
 1010 187 1010 187 1078.5 123.5 c 128,-1,18
 1147 60 1147 60 1245 60 c 128,-1,19
 1343 60 1343 60 1411.5 123.5 c 128,-1,20
 1480 187 1480 187 1480 286 c 2,21,-1
 1480 1039 l 1,22,-1
 1650 1120 l 1,23,-1
 1660 1120 l 1,24,-1
 1660 388 l 2,25,26
 1660 214 1660 214 1538.5 97 c 128,-1,27
 1417 -20 1417 -20 1245 -20 c 0,28,29
 1076 -20 1076 -20 952 97 c 0,30,31
 935 113 935 113 920 131 c 1,32,33
 904 114 904 114 888 97 c 0,34,0
 766 -20 766 -20 594.5 -20 c 128,-1,1
1058 1458 m 128,-1,36
 1105 1458 1105 1458 1137 1424 c 128,-1,37
 1169 1390 1169 1390 1169 1344 c 128,-1,38
 1169 1298 1169 1298 1137 1264 c 128,-1,39
 1105 1230 1105 1230 1058 1230 c 128,-1,40
 1011 1230 1011 1230 979 1264 c 128,-1,41
 947 1298 947 1298 947 1344 c 128,-1,42
 947 1390 947 1390 979 1424 c 128,-1,35
 1011 1458 1011 1458 1058 1458 c 128,-1,36
781 1457 m 128,-1,44
 827 1457 827 1457 860 1423.5 c 128,-1,45
 893 1390 893 1390 893 1343.5 c 128,-1,46
 893 1297 893 1297 860 1263.5 c 128,-1,47
 827 1230 827 1230 781 1230 c 128,-1,48
 735 1230 735 1230 702 1263.5 c 128,-1,49
 669 1297 669 1297 669 1343.5 c 128,-1,50
 669 1390 669 1390 702 1423.5 c 128,-1,43
 735 1457 735 1457 781 1457 c 128,-1,44
EndSplineSet
Validated: 1
EndChar

StartChar: Ygrave
Encoding: 7922 7922 192
Width: 1230
Flags: W
HStem: -20 21G<515 567.222> 438 82<465.148 515 715 764.816> 1510 20G<267.778 320 1057.78 1110>
VStem: 120 200<713.359 1440> 515 200<70 447.575> 910 200<713.359 1440>
DStem2: 602 1937 472 1880 0.427336 -0.904093<0 339.921>
CounterMasks: 1 1c
LayerCount: 2
Fore
SplineSet
515 -20 m 1,0,-1
 515 438 l 1,1,2
 380 462 380 462 267 571 c 0,3,4
 120 712 120 712 120 924 c 2,5,-1
 120 1440 l 1,6,-1
 310 1530 l 1,7,-1
 320 1530 l 1,8,-1
 320 808 l 2,9,10
 320 681 320 681 409 600.5 c 128,-1,11
 498 520 498 520 614.5 520 c 128,-1,12
 731 520 731 520 820.5 600.5 c 128,-1,13
 910 681 910 681 910 808 c 2,14,-1
 910 1440 l 1,15,-1
 1100 1530 l 1,16,-1
 1110 1530 l 1,17,-1
 1110 924 l 2,18,19
 1110 712 1110 712 962 571 c 0,20,21
 850 463 850 463 715 439 c 1,22,-1
 715 70 l 1,23,-1
 525 -20 l 1,24,-1
 515 -20 l 1,0,-1
592 1937 m 1,25,-1
 602 1937 l 1,26,-1
 749 1626 l 1,27,-1
 631 1570 l 1,28,-1
 621 1570 l 1,29,-1
 472 1880 l 1,30,-1
 592 1937 l 1,25,-1
EndSplineSet
Validated: 1
EndChar

StartChar: ygrave
Encoding: 7923 7923 193
Width: 1210
Flags: W
HStem: -410 80<354 729.814> -20 80<459.372 730.411> 1100 20G<308.025 360 958.025 1010> 1507 20G<492.895 554.453>
VStem: 180 180<201.47 1039> 830 180<-188.53 69 150.762 1039>
DStem2: 545 1527 415 1470 0.427336 -0.904093<0 339.921>
LayerCount: 2
Fore
SplineSet
320 -410 m 1,0,-1
 320 -400 l 1,1,-1
 354 -330 l 1,2,-1
 595 -330 l 2,3,4
 693 -330 693 -330 761 -267 c 0,5,6
 830 -203 830 -203 830 -104 c 2,7,-1
 830 69 l 1,8,9
 727 -20 727 -20 595 -20 c 0,10,11
 423 -20 423 -20 301.5 97 c 128,-1,12
 180 214 180 214 180 388 c 2,13,-1
 180 1039 l 1,14,-1
 350 1120 l 1,15,-1
 360 1120 l 1,16,-1
 360 286 l 2,17,18
 360 187 360 187 428.5 123.5 c 128,-1,19
 497 60 497 60 595 60 c 128,-1,20
 693 60 693 60 761.5 123.5 c 128,-1,21
 830 187 830 187 830 286 c 2,22,-1
 830 1039 l 1,23,-1
 1000 1120 l 1,24,-1
 1010 1120 l 1,25,-1
 1010 -2 l 2,26,27
 1010 -176 1010 -176 888.5 -293 c 128,-1,28
 767 -410 767 -410 595 -410 c 2,29,-1
 320 -410 l 1,0,-1
535 1527 m 1,30,-1
 545 1527 l 1,31,-1
 692 1216 l 1,32,-1
 574 1160 l 1,33,-1
 564 1160 l 1,34,-1
 415 1470 l 1,35,-1
 535 1527 l 1,30,-1
EndSplineSet
Validated: 1
EndChar

StartChar: AE
Encoding: 198 198 194
Width: 1688
Flags: W
HStem: -20 21G<180 232.222> 0 90<1028 1600> 710 90<380 828 1028 1550> 1420 90<1028 1550> 1440 90<518.549 826.106>
VStem: 180 200<70 710 800 1246.64> 828 200<90 710 800 1419.54>
LayerCount: 2
Fore
SplineSet
1600 0 m 1,0,-1
 828 0 l 1,1,-1
 828 710 l 1,2,-1
 380 710 l 1,3,-1
 380 70 l 1,4,-1
 190 -20 l 1,5,-1
 180 -20 l 1,6,-1
 180 1036 l 2,7,8
 180 1248 180 1248 328 1389 c 128,-1,9
 476 1530 476 1530 686 1530 c 0,10,11
 765 1530 765 1530 835 1510 c 1,12,-1
 1588 1510 l 1,13,-1
 1588 1500 l 1,14,-1
 1550 1420 l 1,15,-1
 1028 1420 l 1,16,-1
 1028 800 l 1,17,-1
 1588 800 l 1,18,-1
 1588 790 l 1,19,-1
 1550 710 l 1,20,-1
 1028 710 l 1,21,-1
 1028 90 l 1,22,-1
 1638 90 l 1,23,-1
 1638 80 l 1,24,-1
 1600 0 l 1,0,-1
828 1409 m 1,25,26
 764 1440 764 1440 686 1440 c 0,27,28
 560 1440 560 1440 470 1360 c 0,29,30
 380 1278 380 1278 380 1152 c 2,31,-1
 380 800 l 1,32,-1
 828 800 l 1,33,-1
 828 1409 l 1,25,26
EndSplineSet
Validated: 1
EndChar

StartChar: Eth
Encoding: 208 208 195
Width: 1350
Flags: W
HStem: 0 90<400 839.926> 710 90<78 200 400 692> 1420 90<400 840.078>
VStem: 200 200<90 710 800 1420> 980 210<285.324 1226.64>
CounterMasks: 1 e0
LayerCount: 2
Fore
SplineSet
400 90 m 1,0,-1
 675 90 l 2,1,2
 800 90 800 90 890 170 c 128,-1,3
 980 250 980 250 980 378 c 2,4,-1
 980 1132 l 2,5,6
 980 1259 980 1259 890.5 1339.5 c 128,-1,7
 801 1420 801 1420 675 1420 c 2,8,-1
 400 1420 l 1,9,-1
 400 800 l 1,10,-1
 730 800 l 1,11,-1
 730 790 l 1,12,-1
 692 710 l 1,13,-1
 400 710 l 1,14,-1
 400 90 l 1,0,-1
200 0 m 1,15,-1
 200 710 l 1,16,-1
 40 710 l 1,17,-1
 40 720 l 1,18,-1
 78 800 l 1,19,-1
 200 800 l 1,20,-1
 200 1440 l 1,21,-1
 348 1510 l 1,22,-1
 685 1510 l 2,23,24
 896 1510 896 1510 1043 1369 c 128,-1,25
 1190 1228 1190 1228 1190 1016 c 2,26,-1
 1190 494 l 2,27,28
 1190 284 1190 284 1042 141 c 0,29,30
 896 0 896 0 685 0 c 2,31,-1
 200 0 l 1,15,-1
EndSplineSet
Validated: 1
EndChar

StartChar: Dcroat
Encoding: 272 272 196
Width: 1350
Flags: W
HStem: 0 90<400 839.926> 710 90<78 200 400 692> 1420 90<400 840.078>
VStem: 200 200<90 710 800 1420> 980 210<285.324 1226.64>
CounterMasks: 1 e0
LayerCount: 2
Fore
SplineSet
400 90 m 1,0,-1
 675 90 l 2,1,2
 800 90 800 90 890 170 c 128,-1,3
 980 250 980 250 980 378 c 2,4,-1
 980 1132 l 2,5,6
 980 1259 980 1259 890.5 1339.5 c 128,-1,7
 801 1420 801 1420 675 1420 c 2,8,-1
 400 1420 l 1,9,-1
 400 800 l 1,10,-1
 730 800 l 1,11,-1
 730 790 l 1,12,-1
 692 710 l 1,13,-1
 400 710 l 1,14,-1
 400 90 l 1,0,-1
200 0 m 1,15,-1
 200 710 l 1,16,-1
 40 710 l 1,17,-1
 40 720 l 1,18,-1
 78 800 l 1,19,-1
 200 800 l 1,20,-1
 200 1440 l 1,21,-1
 348 1510 l 1,22,-1
 685 1510 l 2,23,24
 896 1510 896 1510 1043 1369 c 128,-1,25
 1190 1228 1190 1228 1190 1016 c 2,26,-1
 1190 494 l 2,27,28
 1190 284 1190 284 1042 141 c 0,29,30
 896 0 896 0 685 0 c 2,31,-1
 200 0 l 1,15,-1
EndSplineSet
Validated: 1
EndChar

StartChar: Hbar
Encoding: 294 294 197
Width: 1400
Flags: W
HStem: -20 21G<200 252.222 1000 1052.22> 710 90<400 1000> 1265 90<78 200 400 1000 1200 1322> 1510 20G<347.778 400 1147.78 1200>
VStem: 200 200<70 710 800 1265 1355 1440> 1000 200<70 710 800 1265 1355 1440>
LayerCount: 2
Fore
SplineSet
210 -20 m 1,0,-1
 200 -20 l 1,1,-1
 200 1265 l 1,2,-1
 40 1265 l 1,3,-1
 40 1275 l 1,4,-1
 78 1355 l 1,5,-1
 200 1355 l 1,6,-1
 200 1440 l 1,7,-1
 390 1530 l 1,8,-1
 400 1530 l 1,9,-1
 400 1355 l 1,10,-1
 1000 1355 l 1,11,-1
 1000 1440 l 1,12,-1
 1190 1530 l 1,13,-1
 1200 1530 l 1,14,-1
 1200 1355 l 1,15,-1
 1360 1355 l 1,16,-1
 1360 1345 l 1,17,-1
 1322 1265 l 1,18,-1
 1200 1265 l 1,19,-1
 1200 70 l 1,20,-1
 1010 -20 l 1,21,-1
 1000 -20 l 1,22,-1
 1000 710 l 1,23,-1
 400 710 l 1,24,-1
 400 70 l 1,25,-1
 210 -20 l 1,0,-1
400 1265 m 1,26,-1
 400 800 l 1,27,-1
 1000 800 l 1,28,-1
 1000 1265 l 1,29,-1
 400 1265 l 1,26,-1
EndSplineSet
Validated: 1
EndChar

StartChar: IJ
Encoding: 306 306 198
Width: 1660
Flags: W
HStem: -20 90<855.328 1166.21> 1420 90<673 1300> 1510 20G<347.778 400>
VStem: 200 200<70 1440> 520 212<242.625 369.813> 1300 200<263.359 1420>
LayerCount: 2
Fore
SplineSet
1008.5 -20 m 128,-1,1
 803 -20 803 -20 656 121 c 0,2,3
 550 223 550 223 520 363 c 1,4,-1
 722 459 l 1,5,-1
 732 459 l 1,6,-1
 732 358 l 10,7,8
 732 231 732 231 809.5 150.5 c 128,-1,9
 887 70 887 70 1008.5 70 c 128,-1,10
 1130 70 1130 70 1215 150.5 c 128,-1,11
 1300 231 1300 231 1300 358 c 18,12,-1
 1300 1420 l 1,13,-1
 635 1420 l 1,14,-1
 635 1430 l 1,15,-1
 673 1510 l 1,16,-1
 1500 1510 l 1,17,-1
 1500 474 l 2,18,19
 1500 262 1500 262 1357 121 c 128,-1,0
 1214 -20 1214 -20 1008.5 -20 c 128,-1,1
200 -20 m 1,20,-1
 200 1440 l 1,21,-1
 390 1530 l 1,22,-1
 400 1530 l 1,23,-1
 400 70 l 1,24,-1
 210 -20 l 1,25,-1
 200 -20 l 1,20,-1
EndSplineSet
Validated: 1
EndChar

StartChar: lslash
Encoding: 322 322 199
Width: 684
Flags: W
HStem: -20 21G<252 303.975> 1510 20G<380.025 432>
VStem: 252 180<61 691 863 1449>
DStem2: 50 685 55 599 0.906303 0.422628<0 185.609 421.436 606.622>
LayerCount: 2
Fore
SplineSet
262 -20 m 1,0,-1
 252 -20 l 1,1,-1
 252 691 l 1,2,-1
 55 599 l 1,3,-1
 50 608 l 1,4,-1
 50 685 l 1,5,-1
 252 779 l 1,6,-1
 252 1449 l 1,7,-1
 422 1530 l 1,8,-1
 432 1530 l 1,9,-1
 432 863 l 1,10,-1
 629 955 l 1,11,-1
 634 946 l 1,12,-1
 634 868 l 1,13,-1
 432 774 l 1,14,-1
 432 61 l 1,15,-1
 262 -20 l 1,0,-1
EndSplineSet
Validated: 1
EndChar

StartChar: Lslash
Encoding: 321 321 200
Width: 1020
Flags: W
HStem: 0 90<400 972> 1510 20G<347.778 400>
VStem: 200 200<90 624 816 1440>
DStem2: 120 686 125 589 0.906902 0.421341<0 46.429 308.707 602.102>
LayerCount: 2
Fore
SplineSet
200 0 m 1,0,-1
 200 624 l 1,1,-1
 125 589 l 1,2,-1
 120 598 l 1,3,-1
 120 686 l 1,4,-1
 200 723 l 1,5,-1
 200 1440 l 1,6,-1
 390 1530 l 1,7,-1
 400 1530 l 1,8,-1
 400 816 l 1,9,-1
 699 955 l 1,10,-1
 704 946 l 1,11,-1
 704 858 l 1,12,-1
 400 717 l 1,13,-1
 400 90 l 1,14,-1
 1010 90 l 1,15,-1
 1010 80 l 1,16,-1
 972 0 l 1,17,-1
 200 0 l 1,0,-1
EndSplineSet
Validated: 1
EndChar

StartChar: Eng
Encoding: 330 330 201
Width: 1370
Flags: W
HStem: -410 21G<686 791> -20 21G<180 232.222> 1440 90<519.38 851.44>
VStem: 180 200<70 1246.64> 990 200<-126.641 1246.64>
LayerCount: 2
Fore
SplineSet
190 -20 m 1,0,-1
 180 -20 l 9,1,-1
 180 1036 l 2,2,3
 180 1248 180 1248 327.5 1389 c 128,-1,4
 475 1530 475 1530 685.5 1530 c 128,-1,5
 896 1530 896 1530 1043 1389 c 128,-1,6
 1190 1248 1190 1248 1190 1036 c 2,7,-1
 1190 84 l 18,8,9
 1190 -128 1190 -128 1043 -269 c 128,-1,10
 896 -410 896 -410 686 -410 c 1,11,-1
 686 -400 l 1,12,-1
 723 -321 l 1,13,14
 833 -302 833 -302 901 -240 c 0,15,16
 990 -158 990 -158 990 -32 c 26,17,-1
 990 1152 l 2,18,19
 990 1279 990 1279 901 1359.5 c 128,-1,20
 812 1440 812 1440 685.5 1440 c 128,-1,21
 559 1440 559 1440 469.5 1359.5 c 128,-1,22
 380 1279 380 1279 380 1152 c 2,23,-1
 380 70 l 17,24,-1
 190 -20 l 1,0,-1
EndSplineSet
Validated: 1
EndChar

StartChar: OE
Encoding: 338 338 202
Width: 1674
Flags: W
HStem: -20 90<503.772 812.372> 0 90<1014 1586> 710 90<1014 1536> 1420 90<1014 1536> 1440 90<504.328 812.372>
VStem: 160 210<263.42 1246.64> 814 200<90.752 710 800 1419.25>
LayerCount: 2
Fore
SplineSet
1586 0 m 1,0,-1
 815 0 l 1,1,2
 745 -20 745 -20 666 -20 c 0,3,4
 456 -20 456 -20 308 121 c 128,-1,5
 160 262 160 262 160 474 c 2,6,-1
 160 1036 l 2,7,8
 160 1248 160 1248 308 1389 c 128,-1,9
 456 1530 456 1530 666 1530 c 0,10,11
 745 1530 745 1530 815 1510 c 1,12,-1
 1574 1510 l 1,13,-1
 1574 1500 l 1,14,-1
 1536 1420 l 1,15,-1
 1014 1420 l 1,16,-1
 1014 800 l 1,17,-1
 1574 800 l 1,18,-1
 1574 790 l 1,19,-1
 1536 710 l 1,20,-1
 1014 710 l 1,21,-1
 1014 90 l 1,22,-1
 1624 90 l 1,23,-1
 1624 80 l 1,24,-1
 1586 0 l 1,0,-1
814 104 m 1,25,-1
 814 1406 l 1,26,27
 748 1440 748 1440 666 1440 c 0,28,29
 540 1440 540 1440 455 1359.5 c 128,-1,30
 370 1279 370 1279 370 1152 c 2,31,-1
 370 358 l 2,32,33
 370 226 370 226 455 150 c 0,34,35
 545 70 545 70 666 70 c 0,36,37
 748 70 748 70 814 104 c 1,25,-1
EndSplineSet
Validated: 1
EndChar

StartChar: Thorn
Encoding: 222 222 203
Width: 1210
VWidth: 1798
Flags: W
HStem: -20 21G<200 252.222> 250 90<400 803.36> 1170 90<400 803.36> 1510 20G<347.778 400>
VStem: 200 200<70 250 340 1170 1260 1440> 944 216<538.304 970.863>
LayerCount: 2
Fore
SplineSet
400 340 m 1,0,-1
 656 340 l 10,1,2
 783 340 783 340 863.5 439 c 128,-1,3
 944 538 944 538 944 754.5 c 128,-1,4
 944 971 944 971 863.5 1070.5 c 128,-1,5
 783 1170 783 1170 656 1170 c 18,6,-1
 400 1170 l 1,7,-1
 400 340 l 1,0,-1
200 -20 m 1,8,-1
 200 1440 l 1,9,-1
 390 1530 l 1,10,-1
 400 1530 l 1,11,-1
 400 1260 l 1,12,-1
 666 1260 l 2,13,14
 878 1260 878 1260 1019 1112.5 c 128,-1,15
 1160 965 1160 965 1160 754.5 c 128,-1,16
 1160 544 1160 544 1019 397 c 128,-1,17
 878 250 878 250 666 250 c 2,18,-1
 400 250 l 1,19,-1
 400 70 l 1,20,-1
 210 -20 l 1,21,-1
 200 -20 l 1,8,-1
EndSplineSet
Validated: 1
EndChar

StartChar: Tbar
Encoding: 358 358 204
Width: 1070
Flags: W
HStem: -20 21G<435 487.222> 475 90<278 435 635 792> 1420 90<48 435 635 1022>
VStem: 435 200<70 475 565 1420>
LayerCount: 2
Fore
SplineSet
445 -20 m 1,0,-1
 435 -20 l 1,1,-1
 435 475 l 1,2,-1
 240 475 l 1,3,-1
 240 485 l 1,4,-1
 278 565 l 1,5,-1
 435 565 l 1,6,-1
 435 1420 l 1,7,-1
 10 1420 l 1,8,-1
 10 1430 l 1,9,-1
 48 1510 l 1,10,-1
 1060 1510 l 1,11,-1
 1060 1500 l 1,12,-1
 1022 1420 l 1,13,-1
 635 1420 l 1,14,-1
 635 565 l 1,15,-1
 830 565 l 1,16,-1
 830 555 l 1,17,-1
 792 475 l 1,18,-1
 635 475 l 1,19,-1
 635 70 l 1,20,-1
 445 -20 l 1,0,-1
EndSplineSet
Validated: 1
EndChar

StartChar: tbar
Encoding: 359 359 205
Width: 780
Flags: W
HStem: -20 21G<300 351.772> 480 80<133 300 475 647> 1020 80<43 300 475 737> 1510 20G<423.228 475>
VStem: 300 175<59 480 560 1020 1100 1451>
LayerCount: 2
Fore
SplineSet
310 -20 m 1,0,-1
 300 -20 l 1,1,-1
 300 480 l 1,2,-1
 100 480 l 1,3,-1
 100 490 l 1,4,-1
 133 560 l 1,5,-1
 300 560 l 1,6,-1
 300 1020 l 1,7,-1
 10 1020 l 1,8,-1
 10 1030 l 1,9,-1
 43 1100 l 1,10,-1
 300 1100 l 1,11,-1
 300 1451 l 1,12,-1
 465 1530 l 1,13,-1
 475 1530 l 1,14,-1
 475 1100 l 1,15,-1
 770 1100 l 1,16,-1
 770 1090 l 1,17,-1
 737 1020 l 1,18,-1
 475 1020 l 1,19,-1
 475 560 l 1,20,-1
 680 560 l 1,21,-1
 680 550 l 1,22,-1
 647 480 l 1,23,-1
 475 480 l 1,24,-1
 475 59 l 1,25,-1
 310 -20 l 1,0,-1
EndSplineSet
Validated: 1
EndChar

StartChar: thorn
Encoding: 254 254 206
Width: 1190
Flags: W
HStem: -430 21G<200 251.975> -20 80<476.041 741.869> 1040 80<476.041 741.869> 1510 20G<328.025 380>
VStem: 200 180<-349 69 148.561 951.439 1031 1449> 835 195<201.47 898.53>
LayerCount: 2
Fore
SplineSet
610 60 m 128,-1,1
 708 60 708 60 771.5 123.5 c 128,-1,2
 835 187 835 187 835 286 c 2,3,-1
 835 814 l 2,4,5
 835 913 835 913 771.5 976.5 c 128,-1,6
 708 1040 708 1040 610 1040 c 128,-1,7
 512 1040 512 1040 446 976.5 c 128,-1,8
 380 913 380 913 380 814 c 2,9,-1
 380 286 l 2,10,11
 380 187 380 187 446 123.5 c 128,-1,0
 512 60 512 60 610 60 c 128,-1,1
200 -430 m 1,12,-1
 200 1449 l 1,13,-1
 370 1530 l 1,14,-1
 380 1530 l 1,15,-1
 380 1031 l 1,16,17
 483 1120 483 1120 615 1120 c 0,18,19
 787 1120 787 1120 908.5 1003 c 128,-1,20
 1030 886 1030 886 1030 712 c 2,21,-1
 1030 388 l 2,22,23
 1030 214 1030 214 908.5 97 c 128,-1,24
 787 -20 787 -20 615 -20 c 0,25,26
 483 -20 483 -20 380 69 c 1,27,-1
 380 -349 l 1,28,-1
 210 -430 l 1,29,-1
 200 -430 l 1,12,-1
EndSplineSet
Validated: 1
EndChar

StartChar: eth
Encoding: 240 240 207
Width: 1150
Flags: W
HStem: -20 80<443.258 706.742> 1040 80<446.043 613.389> 1510 20G<361.357 428.938 632.349 680>
VStem: 160 190<201.47 901.577> 800 190<201.47 906.655>
DStem2: 260 1322 265 1236 0.905904 0.423483<0 131.094 286.663 425.792> 411 1530 290 1474 0.661622 -0.749838<0 93.5533 214.586 442.404 505.48 780.79>
LayerCount: 2
Fore
SplineSet
575 60 m 128,-1,1
 673 60 673 60 736.5 123.5 c 128,-1,2
 800 187 800 187 800 286 c 2,3,-1
 800 814 l 2,4,5
 800 913 800 913 736.5 976.5 c 128,-1,6
 673 1040 673 1040 575 1040 c 128,-1,7
 477 1040 477 1040 413.5 976.5 c 128,-1,8
 350 913 350 913 350 814 c 2,9,-1
 350 286 l 2,10,11
 350 187 350 187 413.5 123.5 c 128,-1,0
 477 60 477 60 575 60 c 128,-1,1
575 -20 m 128,-1,13
 403 -20 403 -20 281.5 97 c 128,-1,14
 160 214 160 214 160 388 c 2,15,-1
 160 712 l 2,16,17
 160 886 160 886 280 1002 c 0,18,19
 402 1120 402 1120 615 1120 c 1,20,-1
 436 1315 l 1,21,-1
 265 1236 l 1,22,-1
 260 1245 l 1,23,-1
 260 1322 l 1,24,-1
 379 1377 l 1,25,-1
 290 1474 l 1,26,-1
 401 1530 l 1,27,-1
 411 1530 l 1,28,-1
 498 1433 l 1,29,-1
 675 1516 l 1,30,-1
 680 1507 l 1,31,-1
 680 1429 l 1,32,-1
 554 1370 l 1,33,-1
 891 986 l 2,34,35
 990 873 990 873 990 712 c 2,36,-1
 990 388 l 2,37,38
 990 214 990 214 868.5 97 c 128,-1,12
 747 -20 747 -20 575 -20 c 128,-1,13
EndSplineSet
Validated: 1
EndChar

StartChar: oe
Encoding: 339 339 208
Width: 1737
Flags: W
HStem: -20 80<443.258 706.459 1030.06 1292.98> 1040 80<443.258 706.459 1030.06 1293.74>
VStem: 160 190<201.47 898.53> 800 190<208.222 363 454 891.433> 1387 190<201.47 300 645 898.53>
DStem2: 990 454 989 363 0.902264 0.431184<0 440.555>
LayerCount: 2
Fore
SplineSet
575 60 m 128,-1,1
 673 60 673 60 736.5 123.5 c 128,-1,2
 800 187 800 187 800 286 c 2,3,-1
 800 814 l 2,4,5
 800 913 800 913 736.5 976.5 c 128,-1,6
 673 1040 673 1040 575 1040 c 128,-1,7
 477 1040 477 1040 413.5 976.5 c 128,-1,8
 350 913 350 913 350 814 c 2,9,-1
 350 286 l 2,10,11
 350 187 350 187 413.5 123.5 c 128,-1,0
 477 60 477 60 575 60 c 128,-1,1
575 -20 m 0,12,13
 403 -20 403 -20 281.5 97 c 128,-1,14
 160 214 160 214 160 388 c 2,15,-1
 160 712 l 2,16,17
 160 886 160 886 281.5 1003 c 128,-1,18
 403 1120 403 1120 575 1120 c 0,19,20
 746 1120 746 1120 868 1003 c 1,21,22
 990 1120 990 1120 1162 1120 c 128,-1,23
 1334 1120 1334 1120 1455.5 1003 c 128,-1,24
 1577 886 1577 886 1577 712 c 2,25,-1
 1577 644 l 1,26,-1
 989 363 l 1,27,28
 985 277 985 277 949 206 c 1,29,30
 964 160 964 160 1000 124 c 0,31,32
 1064 60 1064 60 1162 60 c 128,-1,33
 1260 60 1260 60 1321 123.5 c 128,-1,34
 1382 187 1382 187 1382 286 c 2,35,-1
 1382 300 l 1,36,-1
 1567 388 l 1,37,-1
 1577 388 l 1,38,39
 1577 214 1577 214 1455.5 97 c 128,-1,40
 1334 -20 1334 -20 1162 -20 c 128,-1,41
 990 -20 990 -20 868 97 c 1,42,43
 746 -20 746 -20 575 -20 c 0,12,13
990 454 m 1,44,-1
 1387 645 l 1,45,-1
 1387 814 l 2,46,47
 1387 913 1387 913 1323.5 976.5 c 128,-1,48
 1260 1040 1260 1040 1162 1040 c 128,-1,49
 1064 1040 1064 1040 1000 976 c 0,50,51
 964 940 964 940 949 894 c 1,52,53
 990 812 990 812 990 712 c 2,54,-1
 990 454 l 1,44,-1
EndSplineSet
Validated: 1
EndChar

StartChar: eng
Encoding: 331 331 209
Width: 1190
Flags: W
HStem: -410 21G<595 681> -20 21G<180 231.975> 1040 80<459.327 730.628>
VStem: 180 180<61 901.577> 830 180<-188.53 898.53>
LayerCount: 2
Fore
SplineSet
190 -20 m 1,0,-1
 180 -20 l 9,1,-1
 180 712 l 2,2,3
 180 886 180 886 301 1003 c 0,4,5
 423 1120 423 1120 595 1120 c 128,-1,6
 767 1120 767 1120 888.5 1003 c 128,-1,7
 1010 886 1010 886 1010 712 c 2,8,-1
 1010 -2 l 18,9,10
 1010 -176 1010 -176 888.5 -293 c 128,-1,11
 767 -410 767 -410 595 -410 c 1,12,-1
 595 -400 l 1,13,-1
 628 -330 l 1,14,15
 711 -314 711 -314 762 -266 c 0,16,17
 830 -203 830 -203 830 -104 c 10,18,-1
 830 814 l 2,19,20
 830 913 830 913 761.5 976.5 c 128,-1,21
 693 1040 693 1040 595 1040 c 128,-1,22
 497 1040 497 1040 428.5 976.5 c 128,-1,23
 360 913 360 913 360 814 c 2,24,-1
 360 61 l 17,25,-1
 190 -20 l 1,0,-1
EndSplineSet
Validated: 1
EndChar

StartChar: kgreenlandic
Encoding: 312 312 210
Width: 1170
Flags: W
HStem: -20 21G<200 251.975 830 881.975> 720 80<530.94 730.974> 1100 20G<328.025 380 796.582 868.571>
VStem: 200 180<61 633.623 711 1039> 830 180<61 579.013>
DStem2: 380 711 443.5 656.5 0.728364 0.68519<0.541384 142.471 212.525 599.266>
LayerCount: 2
Fore
SplineSet
210 -20 m 1,0,-1
 200 -20 l 1,1,-1
 200 1039 l 1,2,-1
 370 1120 l 1,3,-1
 380 1120 l 1,4,-1
 380 711 l 1,5,-1
 818 1120 l 1,6,-1
 828 1120 l 1,7,-1
 899 1085 l 1,8,-1
 589 799 l 1,9,10
 595 800 595 800 601 800 c 0,11,12
 764 800 764 800 888 683 c 0,13,14
 1010 567 1010 567 1010 392 c 2,15,-1
 1010 61 l 1,16,-1
 840 -20 l 1,17,-1
 830 -20 l 1,18,-1
 830 494 l 2,19,20
 830 593 830 593 761.5 656.5 c 128,-1,21
 693 720 693 720 600 720 c 128,-1,22
 507 720 507 720 443.5 656.5 c 128,-1,23
 380 593 380 593 380 494 c 2,24,-1
 380 61 l 1,25,-1
 210 -20 l 1,0,-1
EndSplineSet
Validated: 1
EndChar

StartChar: ij
Encoding: 307 307 211
Width: 1100
Flags: W
HStem: -410 21G<485 571> -20 21G<200 251.975> 1100 20G<328.025 380 848.025 900> 1220 245<206.097 373.903 726.097 893.903>
VStem: 170 240<1257.13 1427.87> 200 180<61 1039> 690 240<1257.13 1427.87> 720 180<-188.53 1039>
LayerCount: 2
Fore
SplineSet
485 -410 m 1,0,-1
 485 -400 l 1,1,-1
 518 -330 l 1,2,3
 596 -322 596 -322 652 -266 c 0,4,5
 720 -199 720 -199 720 -104 c 2,6,-1
 720 1039 l 17,7,-1
 890 1120 l 1,8,-1
 900 1120 l 9,9,-1
 900 -2 l 2,10,11
 900 -176 900 -176 778.5 -293 c 128,-1,12
 657 -410 657 -410 485 -410 c 1,0,-1
200 -20 m 1,13,-1
 200 1039 l 1,14,-1
 370 1120 l 1,15,-1
 380 1120 l 1,16,-1
 380 61 l 1,17,-1
 210 -20 l 1,18,-1
 200 -20 l 1,13,-1
810 1465 m 128,-1,20
 860 1465 860 1465 895 1429 c 128,-1,21
 930 1393 930 1393 930 1342.5 c 128,-1,22
 930 1292 930 1292 895 1256 c 128,-1,23
 860 1220 860 1220 810 1220 c 128,-1,24
 760 1220 760 1220 725 1256 c 128,-1,25
 690 1292 690 1292 690 1342.5 c 128,-1,26
 690 1393 690 1393 725 1429 c 128,-1,19
 760 1465 760 1465 810 1465 c 128,-1,20
290 1465 m 128,-1,28
 340 1465 340 1465 375 1429 c 128,-1,29
 410 1393 410 1393 410 1342.5 c 128,-1,30
 410 1292 410 1292 375 1256 c 128,-1,31
 340 1220 340 1220 290 1220 c 128,-1,32
 240 1220 240 1220 205 1256 c 128,-1,33
 170 1292 170 1292 170 1342.5 c 128,-1,34
 170 1393 170 1393 205 1429 c 128,-1,27
 240 1465 240 1465 290 1465 c 128,-1,28
EndSplineSet
Validated: 1
EndChar

StartChar: hbar
Encoding: 295 295 212
Width: 1210
Flags: W
HStem: -20 21G<200 251.975 850 901.975> 1040 80<479.589 750.628> 1270 80<73 200 380 547> 1510 20G<328.025 380>
VStem: 200 180<61 949.238 1031 1270 1350 1449> 850 180<61 898.53>
LayerCount: 2
Fore
SplineSet
210 -20 m 1,0,-1
 200 -20 l 1,1,-1
 200 1270 l 1,2,-1
 40 1270 l 1,3,-1
 40 1280 l 1,4,-1
 73 1350 l 1,5,-1
 200 1350 l 1,6,-1
 200 1449 l 1,7,-1
 370 1530 l 1,8,-1
 380 1530 l 1,9,-1
 380 1350 l 1,10,-1
 580 1350 l 1,11,-1
 580 1340 l 1,12,-1
 547 1270 l 1,13,-1
 380 1270 l 1,14,-1
 380 1031 l 1,15,16
 483 1120 483 1120 615 1120 c 0,17,18
 787 1120 787 1120 908.5 1003 c 128,-1,19
 1030 886 1030 886 1030 712 c 2,20,-1
 1030 61 l 1,21,-1
 860 -20 l 1,22,-1
 850 -20 l 1,23,-1
 850 814 l 2,24,25
 850 913 850 913 781.5 976.5 c 128,-1,26
 713 1040 713 1040 615 1040 c 128,-1,27
 517 1040 517 1040 448.5 976.5 c 128,-1,28
 380 913 380 913 380 814 c 2,29,-1
 380 61 l 1,30,-1
 210 -20 l 1,0,-1
EndSplineSet
Validated: 1
EndChar

StartChar: longs
Encoding: 383 383 213
Width: 820
Flags: W
HStem: -20 21G<220 271.975> 820 80<43 220> 1430 80<499.88 777>
VStem: 220 180<61 820 900 1288.53>
LayerCount: 2
Fore
SplineSet
230 -20 m 1,0,-1
 220 -20 l 1,1,-1
 220 820 l 1,2,-1
 10 820 l 1,3,-1
 10 830 l 1,4,-1
 43 900 l 1,5,-1
 220 900 l 1,6,-1
 220 1102 l 2,7,8
 220 1276 220 1276 341.5 1393 c 128,-1,9
 463 1510 463 1510 635 1510 c 2,10,-1
 810 1510 l 1,11,-1
 810 1500 l 1,12,-1
 777 1430 l 1,13,-1
 635 1430 l 2,14,15
 537 1430 537 1430 468.5 1366.5 c 128,-1,16
 400 1303 400 1303 400 1204 c 2,17,-1
 400 61 l 1,18,-1
 230 -20 l 1,0,-1
EndSplineSet
Validated: 1
EndChar

StartChar: florin
Encoding: 402 402 214
Width: 800
Flags: W
HStem: -410 21G<-35 51> 820 80<380 718> 1430 80<479.88 757>
VStem: 200 180<-188.53 820 900 1288.53>
LayerCount: 2
Fore
SplineSet
-35 -410 m 1,0,-1
 -35 -400 l 1,1,-1
 -2 -330 l 1,2,3
 76 -322 76 -322 132 -266 c 0,4,5
 200 -199 200 -199 200 -104 c 2,6,-1
 200 1102 l 2,7,8
 200 1276 200 1276 321.5 1393 c 128,-1,9
 443 1510 443 1510 615 1510 c 2,10,-1
 790 1510 l 1,11,-1
 790 1500 l 1,12,-1
 757 1430 l 1,13,-1
 615 1430 l 2,14,15
 517 1430 517 1430 448.5 1366.5 c 128,-1,16
 380 1303 380 1303 380 1204 c 2,17,-1
 380 900 l 1,18,-1
 751 900 l 1,19,-1
 751 890 l 1,20,-1
 718 820 l 1,21,-1
 380 820 l 1,22,-1
 380 -2 l 2,23,24
 380 -176 380 -176 258.5 -293 c 128,-1,25
 137 -410 137 -410 -35 -410 c 1,0,-1
EndSplineSet
Validated: 1
EndChar

StartChar: dcroat
Encoding: 273 273 215
Width: 1170
Flags: W
HStem: -20 80<448.131 712.365> 1040 80<448.131 713.959> 1270 80<643 810 990 1117> 1510 20G<938.025 990>
VStem: 160 195<201.47 898.53> 810 180<201.47 951.439 1031 1270 1350 1449>
LayerCount: 2
Fore
SplineSet
575 -20 m 128,-1,1
 403 -20 403 -20 281.5 97 c 128,-1,2
 160 214 160 214 160 388 c 2,3,-1
 160 712 l 2,4,5
 160 886 160 886 281.5 1003 c 128,-1,6
 403 1120 403 1120 575 1120 c 0,7,8
 707 1120 707 1120 810 1031 c 1,9,-1
 810 1270 l 1,10,-1
 610 1270 l 1,11,-1
 610 1280 l 1,12,-1
 643 1350 l 1,13,-1
 810 1350 l 1,14,-1
 810 1449 l 1,15,-1
 980 1530 l 1,16,-1
 990 1530 l 1,17,-1
 990 1350 l 1,18,-1
 1150 1350 l 1,19,-1
 1150 1340 l 1,20,-1
 1117 1270 l 1,21,-1
 990 1270 l 1,22,-1
 990 388 l 2,23,24
 990 214 990 214 868.5 97 c 128,-1,0
 747 -20 747 -20 575 -20 c 128,-1,1
580 60 m 128,-1,26
 678 60 678 60 744 123.5 c 128,-1,27
 810 187 810 187 810 286 c 2,28,-1
 810 814 l 2,29,30
 810 913 810 913 744 976.5 c 128,-1,31
 678 1040 678 1040 580 1040 c 128,-1,32
 482 1040 482 1040 418.5 976.5 c 128,-1,33
 355 913 355 913 355 814 c 2,34,-1
 355 286 l 2,35,36
 355 187 355 187 418.5 123.5 c 128,-1,25
 482 60 482 60 580 60 c 128,-1,26
EndSplineSet
Validated: 1
EndChar

StartChar: germandbls
Encoding: 223 223 216
Width: 1179
Flags: W
HStem: -20 80<586 743.844> 801 80<585 720.184> 1450 80<454.436 728.58>
VStem: 180 180<61 1335.43> 820 190<993.713 1342.1> 904 195<255.581 669.583>
LayerCount: 2
Fore
SplineSet
190 -20 m 1,0,-1
 180 -20 l 1,1,-1
 180 1132 l 2,2,3
 180 1333 180 1333 304 1434 c 0,4,5
 422 1530 422 1530 595 1530 c 128,-1,6
 768 1530 768 1530 886 1434 c 0,7,8
 1010 1333 1010 1333 1010 1166 c 0,9,10
 1010 965 1010 965 826 863 c 1,11,12
 900 844 900 844 964 789 c 0,13,14
 1099 671 1099 671 1099 472 c 0,15,16
 1099 266 1099 266 965 125 c 0,17,18
 828 -20 828 -20 595 -20 c 2,19,-1
 553 -20 l 1,20,-1
 553 -10 l 1,21,-1
 586 60 l 1,22,23
 743 60 743 60 830 172 c 0,24,25
 904 267 904 267 904 450 c 0,26,27
 904 628 904 628 833 709 c 0,28,29
 751 801 751 801 604 801 c 2,30,-1
 552 801 l 1,31,-1
 552 811 l 1,32,-1
 585 881 l 1,33,34
 699 881 699 881 766 961 c 0,35,36
 820 1024 820 1024 820 1178 c 0,37,38
 820 1322 820 1322 760 1385 c 0,39,40
 698 1450 698 1450 590 1450 c 0,41,42
 497 1450 497 1450 428 1391 c 0,43,44
 360 1333 360 1333 360 1227 c 2,45,-1
 360 61 l 1,46,-1
 190 -20 l 1,0,-1
EndSplineSet
Validated: 1
EndChar

StartChar: ae
Encoding: 230 230 217
Width: 1631
Flags: W
HStem: -20 67<381.737 604.823 957.01 1154.11> 669 71<377.035 608.36> 1020 80<308 604.12> 1040 80<923.239 1187.74>
VStem: 80 198<173.164 541.25> 704 180<126.406 363 454 589.594 652 879.37> 1281 190<201.47 300 645 898.53>
DStem2: 884 454 884 363 0.901978 0.431782<0 440.556>
LayerCount: 2
Fore
SplineSet
466 -20 m 0,0,1
 279 -20 279 -20 179.5 93 c 128,-1,2
 80 206 80 206 80 360 c 0,3,4
 80 520 80 520 193 632 c 0,5,6
 302 740 302 740 466 740 c 0,7,8
 616 740 616 740 704 652 c 1,9,-1
 704 794 l 2,10,11
 704 893 704 893 635.5 956.5 c 128,-1,12
 567 1020 567 1020 469 1020 c 2,13,-1
 274 1020 l 1,14,-1
 274 1030 l 1,15,-1
 308 1100 l 1,16,-1
 469 1100 l 2,17,18
 634 1100 634 1100 752 993 c 1,19,20
 884 1120 884 1120 1056 1120 c 128,-1,21
 1228 1120 1228 1120 1349.5 1003 c 128,-1,22
 1471 886 1471 886 1471 712 c 2,23,-1
 1471 644 l 1,24,-1
 884 363 l 1,25,-1
 884 135 l 1,26,27
 888 130 888 130 894 124 c 0,28,29
 958 60 958 60 1056 60 c 128,-1,30
 1154 60 1154 60 1215 123.5 c 128,-1,31
 1276 187 1276 187 1276 286 c 2,32,-1
 1276 300 l 1,33,-1
 1461 388 l 1,34,-1
 1471 388 l 1,35,36
 1471 214 1471 214 1349.5 97 c 128,-1,37
 1228 -20 1228 -20 1056 -20 c 0,38,39
 934 -20 934 -20 837 39 c 1,40,-1
 714 -20 l 1,41,-1
 704 -20 l 1,42,-1
 704 66 l 1,43,44
 611 -20 611 -20 466 -20 c 0,0,1
278 278 m 2,45,46
 278 173 278 173 342.5 110 c 128,-1,47
 407 47 407 47 491 47 c 128,-1,48
 575 47 575 47 644.5 110 c 128,-1,49
 714 173 714 173 714 278 c 2,50,-1
 714 438 l 2,51,52
 714 543 714 543 644.5 606 c 128,-1,53
 575 669 575 669 491 669 c 128,-1,54
 407 669 407 669 342.5 606 c 128,-1,55
 278 543 278 543 278 438 c 2,56,-1
 278 278 l 2,45,46
884 454 m 1,57,-1
 1281 645 l 1,58,-1
 1281 814 l 2,59,60
 1281 913 1281 913 1217.5 976.5 c 128,-1,61
 1154 1040 1154 1040 1056 1040 c 128,-1,62
 958 1040 958 1040 894 976 c 0,63,64
 854 936 854 936 840 882 c 1,65,66
 884 798 884 798 884 692 c 2,67,-1
 884 454 l 1,57,-1
EndSplineSet
Validated: 1
EndChar

StartChar: S
Encoding: 83 83 218
Width: 1140
Flags: W
HStem: -20 90<394.397 705.206> 1440 90<434.148 687.116>
VStem: 60 212<242 369.813> 153 205<1013.46 1322.15> 845 215<269.38 639.748>
LayerCount: 2
Fore
SplineSet
548 -20 m 0,0,1
 344 -20 344 -20 196 121 c 0,2,3
 90 222 90 222 60 363 c 1,4,-1
 262 459 l 1,5,-1
 272 459 l 1,6,-1
 272 358 l 10,7,8
 272 230 272 230 350 150 c 128,-1,9
 428 70 428 70 548 70 c 0,10,11
 675 70 675 70 761 161 c 0,12,13
 845 250 845 250 845 425 c 0,14,15
 845 588 845 588 779 674 c 0,16,17
 702 774 702 774 567 792 c 0,18,19
 430 811 430 811 323 862 c 0,20,21
 153 943 153 943 153 1129 c 0,22,23
 153 1312 153 1312 278 1424 c 0,24,25
 396 1530 396 1530 563 1530 c 128,-1,26
 730 1530 730 1530 849 1417 c 0,27,28
 934 1337 934 1337 957 1237 c 1,29,-1
 766 1146 l 1,30,-1
 758 1146 l 1,31,32
 758 1323 758 1323 712 1374 c 0,33,34
 651 1440 651 1440 560.5 1440 c 128,-1,35
 470 1440 470 1440 412 1375 c 0,36,37
 358 1314 358 1314 358 1190 c 0,38,39
 358 933 358 933 598 902 c 0,40,41
 807 875 807 875 934 763 c 0,42,43
 1060 652 1060 652 1060 477 c 0,44,45
 1059 265 1059 265 909.5 122.5 c 128,-1,46
 760 -20 760 -20 548 -20 c 0,0,1
EndSplineSet
Validated: 1
EndChar

StartChar: s
Encoding: 115 115 219
Width: 930
Flags: W
HStem: -20 80<325.55 576.648> 1040 80<362.164 549.302>
VStem: 128 183<700.978 975.843> 660 190<166.762 488.408>
LayerCount: 2
Fore
SplineSet
449 -20 m 0,0,1
 281 -20 281 -20 168 85 c 0,2,3
 89 158 89 158 60 272 c 1,4,-1
 238 356 l 1,5,-1
 248 356 l 1,6,7
 248 164 248 164 316 107 c 0,8,9
 372 60 372 60 462 60 c 0,10,11
 541 60 541 60 600 119 c 0,12,13
 660 179 660 179 660 342 c 0,14,15
 660 541 660 541 456 563 c 0,16,17
 297 580 297 580 220 644 c 0,18,19
 128 721 128 721 128 832 c 0,20,21
 128 953 128 953 228 1038 c 0,22,23
 324 1120 324 1120 460 1120 c 0,24,25
 597 1120 597 1120 688 1036 c 0,26,27
 754 975 754 975 776 891 c 1,28,-1
 601 808 l 1,29,-1
 591 808 l 1,30,31
 591 949 591 949 554.5 994.5 c 128,-1,32
 518 1040 518 1040 459.5 1040 c 128,-1,33
 401 1040 401 1040 358 998 c 0,34,35
 311 953 311 953 311 827 c 0,36,37
 311 665 311 665 489 647 c 0,38,39
 671 628 671 628 757 553 c 0,40,41
 850 470 850 470 850 339 c 0,42,43
 850 182 850 182 733 77 c 0,44,45
 625 -20 625 -20 449 -20 c 0,0,1
EndSplineSet
Validated: 1
EndChar

StartChar: Aringacute
Encoding: 506 506 220
Width: 1370
Flags: W
HStem: -20 21G<180 232.222 990 1042.22> 710 90<380 990> 1440 90<519.38 851.44> 1570 98<524.776 662.24> 1836 98<525.247 662.469>
VStem: 180 200<70 710 800 1246.64> 410 97<1686.75 1818.1> 673 97<1678.01 1825.38> 990 200<70 710 800 1246.64>
DStem2: 752 1626 880 1570 0.427336 0.904093<4.06987 343.991>
LayerCount: 2
Fore
SplineSet
180 -20 m 1,0,-1
 180 1036 l 2,1,2
 180 1248 180 1248 327.5 1389 c 128,-1,3
 475 1530 475 1530 685.5 1530 c 128,-1,4
 896 1530 896 1530 1043 1389 c 128,-1,5
 1190 1248 1190 1248 1190 1036 c 2,6,-1
 1190 70 l 1,7,-1
 1000 -20 l 1,8,-1
 990 -20 l 1,9,-1
 990 710 l 1,10,-1
 380 710 l 1,11,-1
 380 70 l 1,12,-1
 190 -20 l 1,13,-1
 180 -20 l 1,0,-1
990 800 m 1,14,-1
 990 1152 l 2,15,16
 990 1279 990 1279 901 1359.5 c 128,-1,17
 812 1440 812 1440 685.5 1440 c 128,-1,18
 559 1440 559 1440 469.5 1359.5 c 128,-1,19
 380 1279 380 1279 380 1152 c 2,20,-1
 380 800 l 1,21,-1
 990 800 l 1,14,-1
591 1836 m 0,22,23
 556 1835 556 1835 532 1811 c 0,24,25
 507 1786 507 1786 507 1752 c 128,-1,26
 507 1718 507 1718 531 1694 c 128,-1,27
 555 1670 555 1670 590 1668 c 256,28,29
 626 1668 626 1668 648 1693 c 0,30,31
 672 1719 672 1719 673 1752 c 0,32,33
 672 1789 672 1789 648 1811 c 0,34,35
 622 1835 622 1835 591 1836 c 0,22,23
592 1934 m 0,36,37
 665 1934 665 1934 717 1881 c 0,38,39
 770 1826 770 1826 770 1753 c 0,40,41
 770 1677 770 1677 717 1624 c 0,42,43
 663 1570 663 1570 590 1570 c 256,44,45
 517 1570 517 1570 463 1624 c 0,46,47
 410 1677 410 1677 410 1753 c 0,48,49
 410 1827 410 1827 463 1881 c 0,50,51
 516 1934 516 1934 592 1934 c 0,36,37
909 1937 m 1,52,-1
 1029 1880 l 1,53,-1
 880 1570 l 1,54,-1
 870 1570 l 1,55,-1
 752 1626 l 1,56,-1
 899 1937 l 1,57,-1
 909 1937 l 1,52,-1
EndSplineSet
Validated: 1
EndChar

StartChar: aringacute
Encoding: 507 507 221
Width: 1064
Flags: W
HStem: -20 67<381.737 604.823> 669 71<377.035 608.36> 1020 80<308 604.12> 1160 98<350.776 488.24> 1426 98<351.247 488.469>
VStem: 80 198<173.164 541.25> 236 97<1276.75 1408.1> 499 97<1268.01 1415.38> 704 180<61 66 126.406 589.594 652 878.53>
DStem2: 578 1216 706 1160 0.427336 0.904093<4.06987 343.991>
LayerCount: 2
Fore
SplineSet
278 278 m 2,0,1
 278 173 278 173 342.5 110 c 128,-1,2
 407 47 407 47 491 47 c 128,-1,3
 575 47 575 47 644.5 110 c 128,-1,4
 714 173 714 173 714 278 c 2,5,-1
 714 438 l 2,6,7
 714 543 714 543 644.5 606 c 128,-1,8
 575 669 575 669 491 669 c 128,-1,9
 407 669 407 669 342.5 606 c 128,-1,10
 278 543 278 543 278 438 c 2,11,-1
 278 278 l 2,0,1
704 -20 m 1,12,-1
 704 66 l 1,13,14
 611 -20 611 -20 466 -20 c 0,15,16
 279 -20 279 -20 179.5 93 c 128,-1,17
 80 206 80 206 80 360 c 0,18,19
 80 520 80 520 193 632 c 0,20,21
 302 740 302 740 466 740 c 0,22,23
 616 740 616 740 704 652 c 1,24,-1
 704 794 l 2,25,26
 704 893 704 893 635.5 956.5 c 128,-1,27
 567 1020 567 1020 469 1020 c 2,28,-1
 274 1020 l 1,29,-1
 274 1030 l 1,30,-1
 308 1100 l 1,31,-1
 469 1100 l 2,32,33
 641 1100 641 1100 762.5 983 c 128,-1,34
 884 866 884 866 884 692 c 2,35,-1
 884 61 l 17,36,-1
 714 -20 l 1,37,-1
 704 -20 l 1,12,-1
417 1426 m 0,38,39
 382 1425 382 1425 358 1401 c 0,40,41
 333 1376 333 1376 333 1342 c 128,-1,42
 333 1308 333 1308 357 1284 c 128,-1,43
 381 1260 381 1260 416 1258 c 256,44,45
 452 1258 452 1258 474 1283 c 0,46,47
 498 1309 498 1309 499 1342 c 0,48,49
 498 1379 498 1379 474 1401 c 0,50,51
 448 1425 448 1425 417 1426 c 0,38,39
418 1524 m 0,52,53
 491 1524 491 1524 543 1471 c 0,54,55
 596 1416 596 1416 596 1343 c 0,56,57
 596 1267 596 1267 543 1214 c 0,58,59
 489 1160 489 1160 416 1160 c 256,60,61
 343 1160 343 1160 289 1214 c 0,62,63
 236 1267 236 1267 236 1343 c 0,64,65
 236 1417 236 1417 289 1471 c 0,66,67
 342 1524 342 1524 418 1524 c 0,52,53
735 1527 m 1,68,-1
 855 1470 l 1,69,-1
 706 1160 l 1,70,-1
 696 1160 l 1,71,-1
 578 1216 l 1,72,-1
 725 1527 l 1,73,-1
 735 1527 l 1,68,-1
EndSplineSet
Validated: 1
EndChar

StartChar: AEacute
Encoding: 508 508 222
Width: 1688
Flags: W
HStem: -20 21G<180 232.222> 0 90<1028 1600> 710 90<380 828 1028 1550> 1420 90<1028 1550> 1440 90<518.549 826.106>
VStem: 180 200<70 710 800 1246.64> 828 200<90 710 800 1419.54>
DStem2: 822 1626 950 1570 0.427336 0.904093<4.06987 343.991>
LayerCount: 2
Fore
SplineSet
1600 0 m 1,0,-1
 828 0 l 1,1,-1
 828 710 l 1,2,-1
 380 710 l 1,3,-1
 380 70 l 1,4,-1
 190 -20 l 1,5,-1
 180 -20 l 1,6,-1
 180 1036 l 2,7,8
 180 1248 180 1248 328 1389 c 128,-1,9
 476 1530 476 1530 686 1530 c 0,10,11
 765 1530 765 1530 835 1510 c 1,12,-1
 1588 1510 l 1,13,-1
 1588 1500 l 1,14,-1
 1550 1420 l 1,15,-1
 1028 1420 l 1,16,-1
 1028 800 l 1,17,-1
 1588 800 l 1,18,-1
 1588 790 l 1,19,-1
 1550 710 l 1,20,-1
 1028 710 l 1,21,-1
 1028 90 l 1,22,-1
 1638 90 l 1,23,-1
 1638 80 l 1,24,-1
 1600 0 l 1,0,-1
828 1409 m 1,25,26
 764 1440 764 1440 686 1440 c 0,27,28
 560 1440 560 1440 470 1360 c 0,29,30
 380 1278 380 1278 380 1152 c 2,31,-1
 380 800 l 1,32,-1
 828 800 l 1,33,-1
 828 1409 l 1,25,26
979 1937 m 1,34,-1
 1099 1880 l 1,35,-1
 950 1570 l 1,36,-1
 940 1570 l 1,37,-1
 822 1626 l 1,38,-1
 969 1937 l 1,39,-1
 979 1937 l 1,34,-1
EndSplineSet
Validated: 1
EndChar

